SplineFontDB: 3.0
FontName: Cantarell-Regular
FullName: Cantarell Regular
FamilyName: Cantarell
Weight: Regular
Copyright: Copyright (c) 2009 Dave Crossland <dave@lab6.com>
UComments: "Cantarell is designed by Dave Crossland+AA0ACgAA-dave@lab6.com+AA0ACgAA-http://abattis.org/cantarell/" 
Version: 001.001
ItalicAngle: 0
UnderlinePosition: -233
UnderlineWidth: 116
Ascent: 1514
Descent: 534
LayerCount: 2
Layer: 0 0 "Back"  1
Layer: 1 0 "Fore"  0
XUID: [1021 472 1916768597 5236576]
FSType: 0
OS2Version: 0
OS2_WeightWidthSlopeOnly: 0
OS2_UseTypoMetrics: 1
CreationTime: 1236980653
ModificationTime: 1247126896
PfmFamily: 33
TTFWeight: 500
TTFWidth: 5
LineGap: 211
VLineGap: 0
OS2TypoAscent: 0
OS2TypoAOffset: 1
OS2TypoDescent: 0
OS2TypoDOffset: 1
OS2TypoLinegap: 211
OS2WinAscent: 0
OS2WinAOffset: 1
OS2WinDescent: 0
OS2WinDOffset: 1
HheadAscent: 0
HheadAOffset: 1
HheadDescent: 0
HheadDOffset: 1
OS2FamilyClass: 2050
OS2Vendor: 'ABAT'
DEI: 91125

StartChar: a
Encoding: 97 97 0
Width: 1069
VWidth: 2097
InSpiro: 1
Flags: W
HStem: 0 21G<764.482 886.096> 438 123<366.019 752.004> 871.25 135.26<231.788 648.661>
DStem2: 300.004 981 217.004 826 0.965879 0.258992<-119.175 203.013>
LayerCount: 2
Fore
SplineSet
753.004 561 m 1
 752.004 438 l 1
 671.313 436.159 590.437 437.709 510.004 431 c 0
 476.471 428.203 442.905 423.409 410.891 413.049 c 0
 378.876 402.688 348.225 386.354 325.004 362 c 0
 298.95 334.674 283.207 296.564 287.004 259 c 0
 289.227 237.016 297.934 215.927 310.596 197.818 c 0
 323.258 179.71 339.782 164.498 358.004 152 c 0
 401.626 122.081 455.194 107.671 508.074 108.999 c 0
 560.954 110.327 613.114 127.02 658.004 155 c 0
 735.215 203.127 790.341 284.749 808.004 374 c 1
 871.004 347 l 1
 857.021 252.163 810.701 162.337 741.324 96.1826 c 0
 671.946 30.0283 579.626 -12.2119 484.004 -19 c 0
 406.116 -24.5293 326.256 -6.32422 260.004 35 c 0
 222.11 58.6367 188.667 89.8145 164.277 127.229 c 0
 139.889 164.643 124.756 208.373 123.004 253 c 0
 120.088 327.275 155.297 400.786 211.004 450 c 0
 259.88 493.179 322.406 518.335 385.965 532.948 c 0
 449.523 547.562 514.872 552.672 580.004 556 c 0
 637.623 558.944 695.313 560.331 753.004 561 c 1
  Spiro
    753.004 561 v
    752.004 438 v
    510.004 431 o
    325.004 362 c
    287.004 259 c
    358.004 152 c
    658.004 155 o
    808.004 374 v
    871.004 347 v
    484.004 -19 o
    260.004 35 c
    123.004 253 c
    211.004 450 c
    580.004 556 o
    0 0 z
  EndSpiro
186.004 946 m 1
 223.235 959.998 261.331 971.699 300.004 981 c 0
 366.932 997.095 435.634 1006.26 504.469 1006.51 c 0
 573.304 1006.76 642.987 998.301 707.004 973 c 0
 766.522 949.477 820.519 908.718 852.004 853 c 0
 868.649 823.543 878.897 790.716 883.997 757.268 c 0
 889.096 723.82 889.159 689.834 889.004 656 c 2
 886.004 0 l 1
 773.004 0 l 1
 724.004 115 l 1
 724.004 613 l 2
 724.004 653.241 725.747 694.219 715.004 733 c 0
 709.278 753.67 699.766 773.326 686.708 790.342 c 0
 673.65 807.357 657.224 821.683 639.004 833 c 0
 593.697 861.144 539.011 870.774 485.677 871.25 c 0
 432.343 871.725 379.259 863.688 327.004 853 c 0
 290.006 845.433 253.324 836.34 217.004 826 c 1
 186.004 946 l 1
  Spiro
    186.004 946 v
    300.004 981 o
    707.004 973 o
    852.004 853 o
    889.004 656 [
    886.004 0 v
    773.004 0 v
    724.004 115 v
    724.004 613 ]
    715.004 733 o
    639.004 833 o
    327.004 853 o
    217.004 826 v
    0 0 z
  EndSpiro
EndSplineSet
Validated: 37
EndChar

StartChar: d
Encoding: 100 100 1
Width: 1188
VWidth: 2097
InSpiro: 1
Flags: W
HStem: 0 21G<875.304 998> 1491 20G<834 998>
VStem: 130 160<285.421 718.05> 834 164<142 825 919 1511>
LayerCount: 2
Fore
SplineSet
834 1511 m 1
 998 1511 l 1
 998 0 l 1
 884 0 l 1
 834 115 l 1
 834 1511 l 1
  Spiro
    834 1511 v
    998 1511 v
    998 0 v
    884 0 v
    834 115 v
    0 0 z
  EndSpiro
651 1005 m 0
 707.314 999.086 762.646 984.57 815 963 c 0
 845.077 950.608 874.189 935.876 902 919 c 1
 848 825 l 1
 816.448 839.786 783.633 851.89 750 861 c 0
 686.309 878.252 619.057 885.033 554 874 c 0
 511.268 866.753 469.721 851.533 433.405 827.874 c 0
 397.089 804.216 366.366 772.126 344 735 c 0
 302.523 666.151 290.01 583.377 290 503 c 0
 289.99 425.965 301.117 347.167 337 279 c 0
 364.984 225.839 408.868 181.04 462 153 c 0
 520.376 122.193 588.224 111.496 654 117 c 0
 754.12 125.377 850.251 168.997 926 235 c 1
 964 142 l 1
 864.127 48.8496 732.35 -11.2383 596 -19 c 0
 523.724 -23.1143 450.161 -11.9961 383.866 17.0869 c 0
 317.572 46.1699 259.445 93.6445 218 153 c 0
 152.163 247.289 129.403 366.002 130 481 c 0
 130.343 547.067 138.148 613.318 156.319 676.838 c 0
 174.49 740.358 203.881 801.099 246 852 c 0
 290.583 905.88 349.119 947.902 414 974 c 0
 488.653 1004.03 570.974 1013.4 651 1005 c 0
  Spiro
    651 1005 o
    815 963 o
    902 919 v
    848 825 v
    750 861 o
    554 874 o
    344 735 o
    290 503 o
    337 279 o
    462 153 o
    654 117 o
    926 235 v
    964 142 v
    596 -19 o
    218 153 o
    130 481 o
    246 852 o
    414 974 o
    0 0 z
  EndSpiro
EndSplineSet
Validated: 37
EndChar

StartChar: e
Encoding: 101 101 2
Width: 1102
VWidth: 2097
InSpiro: 1
Flags: W
HStem: -20 131<471.466 886.028> 417 124<297 813>
VStem: 130 167<541 714.343> 813 159<541 764.806>
LayerCount: 2
Fore
SplineSet
591 864 m 0
 536.131 867.896 479.497 856.391 433 827 c 0
 394.036 802.371 363.47 765.79 342 725 c 0
 312.326 668.624 297.954 604.702 297 541 c 1
 813 541 l 1
 814.153 582.835 811.722 624.868 804 666 c 0
 795.98 708.721 781.161 751.062 754 785 c 0
 734.578 809.267 709.219 828.614 681.01 841.667 c 0
 652.802 854.721 622.004 861.798 591 864 c 0
  Spiro
    591 864 o
    433 827 o
    342 725 o
    297 541 v
    813 541 v
    804 666 o
    754 785 o
    0 0 z
  EndSpiro
598 1007 m 0
 646.994 1007.75 696.343 1001.18 742.553 984.884 c 0
 788.764 968.589 831.527 942.078 865.463 906.732 c 0
 918.375 851.621 947.34 777.176 960.409 701.903 c 0
 971.158 639.992 972 576.838 972 514 c 2
 972 417 l 1
 293 417 l 1
 297.726 352.161 323.332 289.084 364.773 238.994 c 0
 402.126 193.846 451.91 159.464 506.602 138.43 c 0
 555.659 119.563 608.441 111.309 661 111 c 0
 686.662 110.849 712.318 112.506 737.812 115.436 c 0
 763.448 118.382 788.933 122.604 814.187 127.905 c 0
 839.383 133.193 864.35 139.572 889 147 c 1
 918 35 l 1
 884.076 23.3249 849.561 13.3621 814.623 5.20964 c 0
 779.69 -2.94165 744.326 -9.27117 708.708 -13.5313 c 0
 673.305 -17.7658 637.655 -19.9836 602 -20 c 0
 517.365 -20.0389 431.138 -7.71664 355.395 30.0471 c 0
 285.425 64.9324 227.143 122.244 190.032 191.059 c 0
 147.098 270.673 130.981 362.553 130 453 c 0
 128.742 568.997 150.663 687.596 209.632 787.494 c 0
 252.892 860.78 317.337 921.596 393.764 959.029 c 0
 457.069 990.035 527.518 1005.92 598 1007 c 0
  Spiro
    598 1007 o
    865.463 906.732 o
    960.409 701.903 o
    972 514 [
    972 417 v
    293 417 v
    364.773 238.994 o
    506.602 138.43 o
    661 111 o
    737.812 115.436 o
    814.187 127.905 o
    889 147 v
    918 35 v
    814.623 5.20964 o
    708.708 -13.5313 o
    602 -20 o
    355.395 30.0471 o
    190.032 191.059 o
    130 453 o
    209.632 787.494 o
    393.764 959.029 o
    0 0 z
  EndSpiro
EndSplineSet
Validated: 33
EndChar

StartChar: h
Encoding: 104 104 3
Width: 1191
VWidth: 2097
InSpiro: 1
Flags: W
HStem: 0 21G<190 354 842.966 1007.15> 1491 20G<190 354>
VStem: 190 164<0 1511> 843 164<0 776.847>
LayerCount: 2
Fore
SplineSet
228 835 m 1
 334.224 910.335 453.282 970.562 581 996 c 0
 657.686 1011.27 739.117 1011.72 812.166 983.834 c 0
 885.216 955.944 945.942 897.76 977 826 c 0
 997.075 779.617 1005.67 729.002 1009.05 678.574 c 0
 1012.42 628.146 1011.38 577.539 1011 527 c 2
 1007 0 l 1
 843 0 l 1
 842 595 l 2
 841.951 623.966 841.703 653.069 836.991 681.649 c 0
 832.279 710.229 823.018 738.232 808 763 c 0
 783.47 803.455 743.423 833.748 698.413 848.323 c 0
 653.403 862.899 604.662 862.808 558 855 c 0
 452.759 837.39 354.969 788.369 265 731 c 1
 228 835 l 1
  Spiro
    228 835 v
    581 996 o
    977 826 o
    1011 527 [
    1007 0 v
    843 0 v
    842 595 ]
    808 763 o
    558 855 o
    265 731 v
    0 0 z
  EndSpiro
190 1511 m 1
 354 1511 l 1
 354 0 l 1
 190 0 l 1
 190 1511 l 1
  Spiro
    190 1511 v
    354 1511 v
    354 0 v
    190 0 v
    0 0 z
  EndSpiro
EndSplineSet
Validated: 37
EndChar

StartChar: i
Encoding: 105 105 4
Width: 524
VWidth: 2097
InSpiro: 1
Flags: W
HStem: 0 21G<180 344> 968 20G<180 344> 1232 189<165 359>
VStem: 165 194<1232 1421> 180 164<0 988>
LayerCount: 2
Fore
SplineSet
165 1421 m 1xf0
 359 1421 l 1
 359 1232 l 1
 165 1232 l 1
 165 1421 l 1xf0
  Spiro
    165 1421 v
    359 1421 v
    359 1232 v
    165 1232 v
    0 0 z
  EndSpiro
180 988 m 1xe8
 344 988 l 1
 344 0 l 1
 180 0 l 1
 180 988 l 1xe8
  Spiro
    180 988 v
    344 988 v
    344 0 v
    180 0 v
    0 0 z
  EndSpiro
EndSplineSet
Validated: 1
EndChar

StartChar: n
Encoding: 110 110 5
Width: 1181
VWidth: 2097
InSpiro: 1
Flags: W
HStem: 0 21G<180 344 832.966 997.152> 968 20G<180 303.522>
VStem: 180 164<0 835> 833 164<0 776.847>
LayerCount: 2
Fore
SplineSet
218 835 m 1
 324.224 910.335 443.282 970.562 571 996 c 0
 647.686 1011.27 729.117 1011.72 802.166 983.834 c 0
 875.216 955.944 935.942 897.76 967 826 c 0
 987.08 779.617 995.67 729.002 999.05 678.574 c 0
 1002.42 628.146 1001.38 577.539 1001 527 c 2
 997 0 l 1
 833 0 l 1
 832 595 l 2
 831.951 623.966 831.703 653.069 826.991 681.649 c 0
 822.279 710.229 813.018 738.232 798 763 c 0
 773.47 803.455 733.423 833.748 688.413 848.323 c 0
 643.403 862.899 594.662 862.808 548 855 c 0
 442.759 837.39 344.969 788.369 255 731 c 1
 218 835 l 1
  Spiro
    218 835 v
    571 996 o
    967 826 o
    1001 527 [
    997 0 v
    833 0 v
    832 595 ]
    798 763 o
    548 855 o
    255 731 v
    0 0 z
  EndSpiro
180 988 m 1
 295 988 l 1
 344 873 l 1
 344 0 l 1
 180 0 l 1
 180 988 l 1
  Spiro
    180 988 v
    295 988 v
    344 873 v
    344 0 v
    180 0 v
    0 0 z
  EndSpiro
EndSplineSet
Validated: 37
EndChar

StartChar: o
Encoding: 111 111 6
Width: 1211
VWidth: 2097
Flags: W
HStem: -20 140<461.412 767.349> 867 140<447.645 750.28>
VStem: 130 160<307.781 702.989> 921 160<288.229 680.33>
LayerCount: 2
Fore
SplineSet
597 867 m 0
 446 867 290 746 290 511 c 4
 290 296 419 120 613 120 c 0
 785 120 921 263 921 481 c 4
 921 735 754 867 597 867 c 0
611 1007 m 0
 874 1007 1081 832 1081 514 c 4
 1081 183 877 -20 595 -20 c 0
 327 -20 130 167 130 483 c 4
 130 805 326 1007 611 1007 c 0
EndSplineSet
Validated: 1
EndChar

StartChar: s
Encoding: 115 115 7
Width: 1016
VWidth: 2097
Flags: W
HStem: -20 129<250.642 661.605> 879 128<387.264 810.305>
VStem: 154 170<651.393 821.563> 717 179<162.699 339.123>
LayerCount: 2
Fore
SplineSet
590 1007 m 4
 718 1007 770 988 841 967 c 5
 799 842 l 5
 734 860 663 879 563 879 c 4
 355 879 324 770 324 726 c 4
 324 549 896 591 896 283 c 4
 896 159 817 -20 466 -20 c 4
 392 -20 274 -4 130 55 c 5
 176 179 l 5
 308 130 387 109 473 109 c 4
 592 109 717 135 717 264 c 4
 717 453 154 378 154 709 c 4
 154 820 245 1007 590 1007 c 4
EndSplineSet
Validated: 1
EndChar

StartChar: bar
Encoding: 124 124 8
Width: 884
VWidth: 2097
Flags: W
VStem: 360 164<-308 1601>
LayerCount: 2
Fore
SplineSet
360 1601 m 5
 524 1601 l 5
 524 -308 l 5
 360 -308 l 5
 360 1601 l 5
524 1601 m 5
 524 -308 l 5
EndSplineSet
Validated: 3
EndChar

StartChar: b
Encoding: 98 98 9
Width: 1183
VWidth: 2097
InSpiro: 1
Flags: W
HStem: 0 21G<190 312.696> 871 136<402.225 736.259> 1491 20G<190 354>
VStem: 190 164<163 1511>
LayerCount: 2
Fore
SplineSet
190 1511 m 1
 354 1511 l 1
 354 115 l 1
 304 0 l 1
 190 0 l 1
 190 1511 l 1
  Spiro
    354 1511 v
    354 115 v
    304 0 v
    190 0 v
    190 1511 v
    0 0 z
  EndSpiro
588 1007 m 0
 660.318 1011.32 733.99 1000.42 800.347 971.344 c 0
 866.704 942.27 924.782 894.579 966 835 c 0
 1023.99 751.182 1048.12 647.804 1053 546 c 0
 1056.47 473.487 1050.86 400.286 1033.14 329.887 c 0
 1015.41 259.488 984.363 191.864 938 136 c 0
 893.342 82.1904 834.86 40.1328 770 14 c 0
 695.362 -16.0723 613.027 -25.4189 533 -17 c 0
 476.688 -11.0762 421.355 3.43359 369 25 c 0
 338.922 37.3896 309.809 52.1221 282 69 c 1
 336 163 l 1
 367.56 148.234 400.373 136.128 434 127 c 0
 497.688 109.712 564.955 102.865 630 114 c 0
 672.7 121.31 714.181 136.635 750.46 160.31 c 0
 786.74 183.984 817.496 215.983 840 253 c 0
 867.829 298.777 882.896 351.486 889.328 404.671 c 0
 895.76 457.855 894.664 511.844 888 565 c 0
 881.76 614.774 869.9 664.368 847 709 c 0
 819.55 762.499 775.323 807.21 722 835 c 0
 663.495 865.491 595.766 876.243 530 871 c 0
 429.789 863.011 333.374 819.52 258 753 c 1
 220 846 l 1
 320.179 938.742 451.726 998.858 588 1007 c 0
  Spiro
    588 1007 o
    966 835 o
    1053 546 o
    938 136 o
    770 14 o
    533 -17 o
    369 25 o
    282 69 v
    336 163 v
    434 127 o
    630 114 o
    840 253 o
    888 565 o
    847 709 o
    722 835 o
    530 871 o
    258 753 v
    220 846 v
    0 0 z
  EndSpiro
EndSplineSet
Validated: 37
EndChar

StartChar: l
Encoding: 108 108 10
Width: 564
VWidth: 2097
Flags: W
HStem: 0 21G<200 364> 1491 20G<200 364>
VStem: 200 164<0 1511>
LayerCount: 2
Fore
SplineSet
200 1511 m 5
 364 1511 l 5
 364 0 l 5
 200 0 l 5
 200 1511 l 5
EndSplineSet
Validated: 1
EndChar

StartChar: w
Encoding: 119 119 11
Width: 1675
VWidth: 2097
Flags: W
HStem: 0 21G<408.692 577.63 1087.57 1266.31> 968 20G<55 236.467 755.639 929.147 1438.53 1620>
VStem: 55 175<813 988> 1445 175<813 988>
LayerCount: 2
Fore
SplineSet
55 988 m 21
 230 988 l 13
 533 51 l 21
 464 51 l 5
 762 988 l 13
 923 988 l 21
 1211 51 l 5
 1142 51 l 13
 1445 988 l 29
 1620 988 l 29
 1259 0 l 29
 1094 0 l 29
 803 905 l 21
 871 905 l 5
 571 0 l 13
 416 0 l 29
 55 988 l 21
EndSplineSet
Validated: 5
EndChar

StartChar: exclam
Encoding: 33 33 12
Width: 650
VWidth: 2097
InSpiro: 1
Flags: W
HStem: 0 200<225 425> 1401 20G<240 410>
VStem: 225 200<0 200> 240 170<458 1421>
LayerCount: 2
Fore
SplineSet
225 200 m 1xe0
 425 200 l 1
 425 0 l 1
 225 0 l 1
 225 200 l 1xe0
  Spiro
    225 200 v
    425 200 v
    425 0 v
    225 0 v
    0 0 z
  EndSpiro
240 1421 m 1xd0
 410 1421 l 1
 410 458 l 1
 240 458 l 1
 240 1421 l 1xd0
  Spiro
    240 1421 v
    410 1421 v
    410 458 v
    240 458 v
    0 0 z
  EndSpiro
EndSplineSet
Validated: 1
EndChar

StartChar: u
Encoding: 117 117 14
Width: 1181
VWidth: 2097
InSpiro: 1
Flags: W
HStem: 0 21G<877.478 1001> 968 20G<183.848 348.034 837 1001>
VStem: 181.953 167.047<209.317 988> 837 164<152 988>
LayerCount: 2
Fore
SplineSet
184 988 m 1
 348 988 l 1
 349 392 l 2
 349.049 363.034 349.296 333.931 354.009 305.351 c 0
 358.721 276.771 367.982 248.768 383 224 c 0
 407.53 183.545 447.577 153.252 492.587 138.677 c 0
 537.597 124.101 586.338 124.192 633 132 c 0
 738.241 149.61 836.031 198.631 926 256 c 1
 963 152 l 1
 856.775 76.6659 737.718 16.438 610 -9 c 0
 533.313 -24.2739 451.883 -24.725 378.833 3.16481 c 0
 305.783 31.0547 245.057 89.2396 214 161 c 0
 193.926 207.383 185.327 257.998 181.953 308.426 c 0
 178.578 358.854 179.617 409.461 180 460 c 2
 184 988 l 1
  Spiro
    184 988 v
    348 988 v
    349 392 ]
    383 224 o
    633 132 o
    926 256 v
    963 152 v
    610 -9 o
    214 161 o
    180 460 [
    0 0 z
  EndSpiro
837 988 m 1
 1001 988 l 1
 1001 0 l 1
 886 0 l 1
 837 115 l 1
 837 988 l 1
  Spiro
    837 988 v
    1001 988 v
    1001 0 v
    886 0 v
    837 115 v
    0 0 z
  EndSpiro
EndSplineSet
Validated: 37
EndChar

StartChar: p
Encoding: 112 112 15
Width: 1177
VWidth: 2097
InSpiro: 1
Flags: W
HStem: 870 136<396.218 730.252> 968 20G<180 302.696>
VStem: 180 164<-531 69 163 845>
LayerCount: 2
Fore
SplineSet
180 988 m 1x60
 294 988 l 1
 344 873 l 1
 344 -531 l 1
 180 -531 l 1
 180 988 l 1x60
  Spiro
    180 988 v
    294 988 v
    344 873 v
    344 -531 v
    180 -531 v
    0 0 z
  EndSpiro
582 1006 m 0xa0
 654.316 1010.31 727.983 999.397 794.337 970.323 c 0
 860.691 941.248 918.771 893.568 960 834 c 0
 1018.01 750.192 1042.18 646.81 1047 545 c 0
 1050.43 472.651 1044.77 399.621 1027.03 329.398 c 0
 1009.28 259.175 978.259 191.734 932 136 c 0
 887.34 82.1927 828.86 40.1336 764 14 c 0
 689.362 -16.0734 607.027 -25.4192 527 -17 c 0
 470.688 -11.0757 415.355 3.43384 363 25 c 0
 332.922 37.3899 303.809 52.1222 276 69 c 1
 330 163 l 1
 361.56 148.234 394.373 136.128 428 127 c 0
 491.687 109.712 558.955 102.866 624 114 c 0
 666.7 121.309 708.181 136.634 744.461 160.308 c 0
 780.741 183.982 811.498 215.982 834 253 c 0
 861.74 298.634 876.796 351.163 883.246 404.176 c 0
 889.696 457.188 888.63 511.009 882 564 c 0
 875.772 613.776 863.904 663.37 841 708 c 0
 813.546 761.496 769.321 806.208 716 834 c 0
 657.496 864.494 589.766 875.245 524 870 c 0
 423.79 862.008 327.377 818.515 252 752 c 1
 214 845 l 1
 314.165 937.762 445.722 997.876 582 1006 c 0xa0
  Spiro
    582 1006 o
    960 834 o
    1047 545 o
    932 136 o
    764 14 o
    527 -17 o
    363 25 o
    276 69 v
    330 163 v
    428 127 o
    624 114 o
    834 253 o
    882 564 o
    841 708 o
    716 834 o
    524 870 o
    252 752 v
    214 845 v
    0 0 z
  EndSpiro
EndSplineSet
Validated: 37
EndChar

StartChar: q
Encoding: 113 113 16
Width: 1176
VWidth: 2097
InSpiro: 1
Flags: W
HStem: 872 131<434.117 796.72> 968 20G<873.741 996>
VStem: 832 164<-531 813>
LayerCount: 2
Fore
SplineSet
650 1003 m 0xa0
 706.882 994.38 761.589 974.727 814 951 c 0
 843.614 937.594 872.617 922.848 901 907 c 1
 847 813 l 1
 815.013 826.753 782.314 838.875 749 849 c 0
 685.58 868.275 618.721 880.628 553 872 c 0
 509.875 866.339 467.879 851.303 431.641 827.248 c 0
 395.403 803.194 365.206 770.4 343 733 c 0
 314.958 685.769 299.516 631.802 292.747 577.293 c 0
 285.978 522.783 287.029 467.347 295 413 c 0
 301.81 366.565 314.262 320.594 336 279 c 0
 363.834 225.741 407.804 180.955 461 153 c 0
 519.42 122.3 587.227 111.586 653 117 c 0
 753.152 125.244 849.38 168.819 925 235 c 1
 963 142 l 1
 862.675 49.4524 731.238 -10.6797 595 -19 c 0
 522.665 -23.4176 448.943 -12.6108 382.561 16.4647 c 0
 316.179 45.5402 258.14 93.339 217 153 c 0
 161.028 234.171 136.563 333.62 130 432 c 0
 125.069 505.916 129.53 580.773 147.14 652.73 c 0
 164.749 724.687 196.961 793.607 245 850 c 0
 290.284 903.16 348.703 944.749 413 972 c 0
 487.312 1003.5 570.2 1015.09 650 1003 c 0xa0
  Spiro
    650 1003 o
    814 951 o
    901 907 v
    847 813 v
    749 849 o
    553 872 o
    343 733 o
    295 413 o
    336 279 o
    461 153 o
    653 117 o
    925 235 v
    963 142 v
    595 -19 o
    217 153 o
    130 432 o
    245 850 o
    413 972 o
    0 0 z
  EndSpiro
881 988 m 1x60
 996 988 l 1
 996 -531 l 1
 832 -531 l 1
 832 853 l 1
 881 988 l 1x60
  Spiro
    881 988 v
    996 988 v
    996 -531 v
    832 -531 v
    832 853 v
    0 0 z
  EndSpiro
EndSplineSet
Validated: 37
EndChar

StartChar: m
Encoding: 109 109 17
Width: 1734
VWidth: 2097
InSpiro: 1
Flags: W
HStem: 0 21G<180 344 782.966 947.152 1385.97 1550.15> 856 150<442.733 706.152 1012.08 1308.06> 968 20G<180 303.522>
VStem: 180 164<0 835> 783 164<0 730.099> 1386 164<0 776.859>
CounterMasks: 1 1c
LayerCount: 2
Fore
SplineSet
1210 1006 m 0xdc
 1273.66 1008.11 1338.6 996.141 1394.32 965.29 c 0
 1450.05 934.439 1494.63 884.426 1520 826 c 0
 1540.13 779.639 1548.73 729.013 1552.08 678.582 c 0
 1555.44 628.151 1554.38 577.542 1554 527 c 2
 1550 0 l 1
 1386 0 l 1
 1385 595 l 2
 1384.95 623.967 1384.71 653.072 1380 681.654 c 0
 1375.3 710.237 1366.05 738.252 1351 763 c 0
 1333.55 791.682 1308.34 815.58 1278.74 831.424 c 0
 1249.14 847.268 1215.56 855.074 1182 856 c 0
 1116.78 857.799 1053.34 835.127 994 808 c 0
 943.941 785.116 895.503 758.804 848 731 c 1
 781 835 l 1
 821.562 864.049 863.979 890.523 908 914 c 0
 1001.65 963.943 1103.92 1002.49 1210 1006 c 0xdc
  Spiro
    1210 1006 o
    1520 826 o
    1554 527 [
    1550 0 v
    1386 0 v
    1385 595 ]
    1351 763 o
    1182 856 o
    994 808 o
    848 731 v
    781 835 v
    908 914 o
    0 0 z
  EndSpiro
617 1006 m 0
 679.271 1009.33 743.025 996.669 796.812 965.114 c 0
 850.599 933.559 892.698 883.43 917 826 c 0
 936.689 779.469 945.308 728.925 948.811 678.521 c 0
 952.314 628.118 951.383 577.524 951 527 c 2
 947 0 l 1
 783 0 l 1
 782 595 l 2
 781.951 623.961 781.674 653.06 776.933 681.631 c 0
 772.193 710.201 762.946 738.194 748 763 c 0
 731.492 790.398 708.062 813.629 680.348 829.6 c 0
 652.633 845.572 620.938 854.214 589 856 c 0
 523.741 859.65 460.122 835.868 401 808 c 0
 351.222 784.536 302.9 758.093 255 731 c 1
 218 835 l 1
 259.089 863.269 301.399 889.785 345 914 c 0
 429.396 960.871 520.6 1000.84 617 1006 c 0
  Spiro
    617 1006 o
    917 826 o
    951 527 [
    947 0 v
    783 0 v
    782 595 ]
    748 763 o
    589 856 o
    401 808 o
    255 731 v
    218 835 v
    345 914 o
    0 0 z
  EndSpiro
180 988 m 1xbc
 295 988 l 1
 344 873 l 1
 344 0 l 1
 180 0 l 1
 180 988 l 1xbc
  Spiro
    180 988 v
    295 988 v
    344 873 v
    344 0 v
    180 0 v
    0 0 z
  EndSpiro
EndSplineSet
Validated: 37
EndChar

StartChar: c
Encoding: 99 99 18
Width: 1001
VWidth: 2097
InSpiro: 1
Flags: W
HStem: -20 138<448.008 831.356> 865 141<437.142 842.388>
VStem: 130 160<280.044 716.518>
LayerCount: 2
Fore
SplineSet
600 1006 m 0
 698.056 1007.38 796.098 986.173 886 947 c 1
 846 827 l 1
 769.026 853.638 687.386 868.281 606 865 c 0
 560.158 863.152 514.247 855.089 471.853 837.55 c 0
 429.459 820.011 391.011 792.542 362 757 c 0
 329.253 716.88 309.173 667.471 298.956 616.7 c 0
 288.739 565.93 287.051 513.704 290 462 c 0
 293.667 397.716 305.298 332.597 336 276 c 0
 360.908 230.083 398.648 191.32 443.669 164.826 c 0
 488.689 138.331 540.073 123.689 592 118 c 0
 673.791 109.04 757.362 120.752 835 148 c 1
 875 35 l 1
 785.812 0.500873 690.625 -19.3341 595 -20 c 0
 523.108 -20.5006 450.525 -9.56807 384.222 18.2253 c 0
 317.918 46.0187 258.868 91.5555 217 150 c 0
 184.87 194.852 162.868 246.509 149.395 300.011 c 0
 135.921 353.514 130.441 408.829 130 464 c 0
 129.452 532.503 136.365 601.314 154.041 667.499 c 0
 171.718 733.685 201.298 797.245 245 850 c 0
 287.58 901.4 343.187 941.661 404.749 967.451 c 0
 466.312 993.241 533.26 1005.06 600 1006 c 0
  Spiro
    600 1006 o
    886 947 v
    846 827 v
    606 865 o
    362 757 o
    290 462 o
    336 276 o
    592 118 o
    835 148 v
    875 35 v
    595 -20 o
    217 150 o
    130 464 o
    245 850 o
    0 0 z
  EndSpiro
EndSplineSet
Validated: 33
EndChar

StartChar: t
Encoding: 116 116 19
Width: 780
VWidth: 2097
InSpiro: 1
Flags: HW
HStem: 859 129<70 668>
VStem: 203 164<155.356 1271>
DStem2: 605 116 632 0 0.986046 0.166475<-161.51 78.0897>
LayerCount: 2
Fore
SplineSet
80 988 m 1
 678 988 l 1
 678 859 l 1
 80 859 l 1
 80 988 l 1
  Spiro
    80 988 v
    678 988 v
    678 859 v
    80 859 v
    0 0 z
  EndSpiro
213 1271 m 1
 377 1271 l 1
 377 317 l 2
 377 273.373 378.405 228.127 397.897 189.097 c 0
 407.643 169.581 421.613 152.117 438.908 138.824 c 0
 456.204 125.531 476.666 116.55 498 112 c 0
 536.399 103.81 576.268 109.567 615 116 c 0
 640.678 120.265 666.307 124.826 692 129 c 1
 715 17 l 1
 690.774 10.8848 666.442 5.18457 642 0 c 0
 563.633 -16.623 481.664 -29.6465 404 -10 c 0
 370.812 -1.60449 339.069 12.9346 311.779 33.6025 c 0
 284.489 54.2695 261.855 80.9785 245.629 111.122 c 0
 229.403 141.266 219.638 174.629 214.76 208.513 c 0
 209.883 242.397 209.833 276.767 210 311 c 2
 213 926 l 1
 213 1271 l 1
  Spiro
    213 1271 v
    377 1271 v
    377 317 ]
    498 112 o
    615 116 o
    692 129 v
    715 17 v
    642 0 o
    404 -10 o
    210 311 [
    213 926 v
    0 0 z
  EndSpiro
EndSplineSet
EndChar

StartChar: r
Encoding: 114 114 20
Width: 801
VWidth: 2097
InSpiro: 1
Flags: W
HStem: 0 21G<180 344> 867 140<408.785 738.583> 968 20G<180 303.448>
VStem: 180 164<0 798.667>
LayerCount: 2
Fore
SplineSet
585 1007 m 0xd0
 655.518 1009.69 726.612 995.882 791 967 c 1
 741 837 l 1
 689.506 856.997 634.24 867.231 579 867 c 0
 458.504 866.496 339.092 814.207 257 726 c 1
 217 798.667 l 1
 297.088 921.28 438.655 1001.42 585 1007 c 0xd0
  Spiro
    585 1007 o
    791 967 v
    741 837 v
    579 867 o
    257 726 v
    217 798.667 v
    0 0 z
  EndSpiro
180 988 m 1xb0
 295 988 l 1
 344 872 l 1
 344 0 l 1
 180 0 l 1
 180 988 l 1xb0
  Spiro
    180 988 v
    295 988 v
    344 872 v
    344 0 v
    180 0 v
    0 0 z
  EndSpiro
EndSplineSet
Validated: 37
EndChar

StartChar: v
Encoding: 118 118 21
Width: 983
VWidth: 2097
Flags: W
VStem: 65 170<818 988> 748 170<818 988>
LayerCount: 2
Fore
SplineSet
918 988 m 5
 748 988 l 5
 449 12 l 5
 543 12 l 5
 235 988 l 5
 65 988 l 5
 413 0 l 5
 573 0 l 5
 918 988 l 5
EndSplineSet
Validated: 5
EndChar

StartChar: k
Encoding: 107 107 22
Width: 1073
VWidth: 2097
InSpiro: 1
Flags: HW
HStem: 0 21G<180 344 789.663 1003> 988 20G<777.126 977> 1491 20G<180 344>
VStem: 180 164<0 1511> 796 181<827 1008> 806 197<0 197>
LayerCount: 2
Fore
SplineSet
796 1008 m 1xf8
 977 1008 l 1xf8
 502 517 l 1
 502 618 l 1
 1003 0 l 1
 806 0 l 1xf4
 360 546 l 1
 796 1008 l 1xf8
  Spiro
    796 1008 v
    977 1008 v
    502 517 v
    502 618 v
    1003 0 v
    806 0 v
    360 546 v
    0 0 z
  EndSpiro
180 1511 m 1
 344 1511 l 1
 344 0 l 1
 180 0 l 1
 180 1511 l 1
  Spiro
    180 1511 v
    344 1511 v
    344 0 v
    180 0 v
    0 0 z
  EndSpiro
EndSplineSet
Validated: 5
EndChar

StartChar: j
Encoding: 106 106 23
Width: 524
VWidth: 2097
Flags: HW
HStem: 968 20G<176 340.072> 1232 189<165 359>
VStem: 165 194<1232 1421> 178 166<-312.74 988>
LayerCount: 2
Fore
SplineSet
344 -131 m 6xd0
 344 -239 347 -440 78 -538 c 5
 16 -414 l 5
 195 -330 178 -164 178 -140 c 6
 176 988 l 5
 340 988 l 5
 344 -131 l 6xd0
165 1421 m 1xe0
 359 1421 l 1
 359 1232 l 1
 165 1232 l 1
 165 1421 l 1xe0
EndSplineSet
Validated: 33
EndChar

StartChar: x
Encoding: 120 120 24
Width: 1048
VWidth: 2097
Flags: W
HStem: 0 21G<77 265.598 754.749 959> 968 20G<65 269.251 789.289 978>
VStem: 77 175<0 175 813 988> 769 190<0 190> 803 175<813 988>
LayerCount: 2
Fore
SplineSet
65 988 m 25xf0
 255 988 l 25
 959 0 l 25
 769 0 l 25
 65 988 l 25xf0
803 988 m 9xe8
 978 988 l 17
 603 468 l 1
 560 453 l 1
 252 0 l 1
 77 0 l 1
 472.782 554 l 1
 514.381 567 l 1
 803 988 l 9xe8
EndSplineSet
Validated: 5
EndChar

StartChar: z
Encoding: 122 122 25
Width: 1078
VWidth: 2097
Flags: W
HStem: 0 129<363 928> 859 129<150 688>
DStem2: 150 87 363 129 0.573177 0.819431<156.503 940.97>
LayerCount: 2
Fore
SplineSet
150 988 m 29
 903 988 l 21
 903 901 l 5
 363 129 l 13
 928 129 l 29
 928 0 l 29
 150 0 l 21
 150 87 l 5
 688 859 l 13
 150 859 l 29
 150 988 l 29
EndSplineSet
Validated: 1
EndChar

StartChar: y
Encoding: 121 121 26
Width: 1040
VWidth: 2097
InSpiro: 1
Flags: W
HStem: 968 20G<45 217.425 822.636 985>
VStem: 45 165<823 988> 245 175<-531 -356> 830 155<833 988>
LayerCount: 2
Fore
SplineSet
210 988 m 1
 556 56 l 1
 538 -100 l 1
 494 -154 l 1
 45 988 l 1
 210 988 l 1
  Spiro
    210 988 v
    556 56 v
    538 -100 v
    494 -154 v
    45 988 v
    0 0 z
  EndSpiro
830 988 m 1
 985 988 l 1
 420 -531 l 1
 245 -531 l 1
 485 51 l 1
 830 988 l 1
  Spiro
    830 988 v
    985 988 v
    420 -531 v
    245 -531 v
    485 51 v
    0 0 z
  EndSpiro
EndSplineSet
Validated: 5
EndChar

StartChar: f
Encoding: 102 102 27
Width: 820
VWidth: 2097
InSpiro: 1
Flags: W
HStem: 0 21G<279.963 446> 859 129<135 775>
VStem: 280 166<0 1230.04>
DStem2: 721 1419 759 1282 0.968722 -0.248149<-100.893 127.318>
LayerCount: 2
Fore
SplineSet
473 1409 m 0
 552.334 1435.12 638.561 1432.42 721 1419 c 0
 762.929 1412.18 804.363 1402.38 845 1390 c 1
 820 1268 l 1
 799.886 1273.56 779.529 1278.25 759 1282 c 0
 694.695 1293.75 626.889 1298.04 565 1277 c 0
 525.69 1263.63 489.764 1238.09 468.591 1202.38 c 0
 458.005 1184.52 451.178 1164.55 447.665 1144.09 c 0
 444.151 1123.63 443.962 1102.76 444 1082 c 2
 446 0 l 1
 280 0 l 1
 278 1088 l 2
 277.938 1121.99 278.201 1156.13 283.655 1189.68 c 0
 289.11 1223.23 299.756 1256.07 316.561 1285.61 c 0
 350.172 1344.69 408.436 1387.74 473 1409 c 0
  Spiro
    473 1409 o
    721 1419 o
    845 1390 v
    820 1268 v
    759 1282 o
    565 1277 o
    444 1082 [
    446 0 v
    280 0 v
    278 1088 ]
    0 0 z
  EndSpiro
135 988 m 1
 775 988 l 1
 775 859 l 1
 135 859 l 1
 135 988 l 1
  Spiro
    135 988 v
    775 988 v
    775 859 v
    135 859 v
    0 0 z
  EndSpiro
EndSplineSet
Validated: 37
EndChar

StartChar: G
Encoding: 71 71 28
Width: 1591
VWidth: 2097
InSpiro: 1
Flags: W
HStem: -19 150<733.779 1170.52> 610 140<872 1276> 1282 150<710.549 1182.53>
VStem: 215 170<484.676 950.583> 1276 160<210.214 610>
LayerCount: 2
Fore
SplineSet
919 1432 m 0
 971.981 1431.92 1024.94 1427.08 1077.1 1417.77 c 0
 1129.51 1408.41 1181.11 1394.52 1231.22 1376.54 c 0
 1281.14 1358.63 1329.6 1336.67 1376 1311 c 1
 1309 1184 l 1
 1274 1202.1 1237.8 1217.84 1200.71 1231.14 c 0
 1157.77 1246.53 1113.68 1258.71 1068.93 1267.51 c 0
 1019.9 1277.15 969.963 1282.7 920 1282 c 0
 817.848 1280.58 716.056 1250.64 630.423 1194.92 c 0
 559.507 1148.78 499.647 1085.63 458.024 1011.97 c 0
 410.247 927.421 386.845 830.096 385 733 c 0
 382.944 624.806 406.818 515.574 458.153 420.311 c 0
 505.938 331.638 578.628 256.4 666.306 206.815 c 0
 755.261 156.508 857.806 131.33 960 131 c 0
 1030.97 130.771 1102.56 143.273 1167 173 c 0
 1207.06 191.48 1244.1 216.523 1276 247 c 1
 1276 610 l 1
 872 610 l 1
 872 750 l 1
 1441 750 l 1
 1436 192 l 1
 1380.09 128.535 1310.16 77.6543 1233 43 c 0
 1132.51 -2.13379 1021.15 -20.3027 911 -19 c 0
 784.156 -17.5 655.876 10.3037 546.545 74.6338 c 0
 444.592 134.623 362.574 225.934 307.281 330.508 c 0
 244.583 449.087 213.551 583.873 215 718 c 0
 216.341 842.152 245.863 966.326 303.569 1076.26 c 0
 359.943 1183.66 444.679 1276.78 549.239 1338.26 c 0
 660.165 1403.48 790.321 1432.19 919 1432 c 0
  Spiro
    919 1432 o
    1077.1 1417.77 o
    1231.22 1376.54 o
    1376 1311 v
    1309 1184 v
    1200.71 1231.14 o
    1068.93 1267.51 o
    920 1282 o
    630.423 1194.92 o
    458.024 1011.97 o
    385 733 o
    458.153 420.311 o
    666.306 206.815 o
    960 131 o
    1167 173 o
    1276 247 v
    1276 610 v
    872 610 v
    872 750 v
    1441 750 v
    1436 192 v
    1233 43 o
    911 -19 o
    546.545 74.6338 o
    307.281 330.508 o
    215 718 o
    303.569 1076.26 o
    549.239 1338.26 o
    0 0 z
  EndSpiro
EndSplineSet
Validated: 33
EndChar

StartChar: H
Encoding: 72 72 29
Width: 1600
VWidth: 2097
Flags: W
HStem: 0 21G<290 460 1220 1390> 658 150<357 1319> 1401 20G<290 460 1220 1390>
VStem: 290 170<0 658 808 1421> 357 103<658 808> 1220 170<0 658 808 1421> 1220 99<658 808>
LayerCount: 2
Fore
SplineSet
357 808 m 5xea
 1319 808 l 5
 1319 658 l 5
 357 658 l 5
 357 808 l 5xea
1220 1421 m 1xe4
 1390 1421 l 1
 1390 0 l 1
 1220 0 l 1
 1220 1421 l 1xe4
290 1421 m 1xf0
 460 1421 l 1
 460 0 l 1
 290 0 l 1
 290 1421 l 1xf0
EndSplineSet
Validated: 5
EndChar

StartChar: g
Encoding: 103 103 30
Width: 1176
VWidth: 2097
InSpiro: 1
Flags: W
HStem: -19 136<446.133 781.266> 872 131<434.115 796.72> 968 20G<873.741 996>
VStem: 832 164<-251.757 18 142 813>
DStem2: 250 -358 204 -477 0.956111 -0.293004<0 292.523>
LayerCount: 2
Fore
SplineSet
881 988 m 1xb0
 996 988 l 1
 996 -48 l 2
 996 -114.652 993.699 -182.267 973.597 -245.815 c 0
 953.496 -309.364 916.661 -367.452 868 -413 c 0
 812.126 -465.3 741.927 -501.199 668 -521 c 0
 542.665 -554.571 408.058 -544.018 284 -506 c 0
 256.869 -497.686 230.158 -487.999 204 -477 c 1
 250 -358 l 1
 274.908 -367.271 300.282 -375.295 326 -382 c 0
 378.852 -395.778 433.273 -404.202 487.891 -404.343 c 0
 542.509 -404.483 597.6 -396.047 648 -375 c 0
 707.572 -350.122 759.454 -305.875 790 -249 c 0
 811.55 -208.874 822.563 -163.777 827.486 -118.497 c 0
 832.41 -73.2167 832 -27.5469 832 18 c 2
 832 853 l 1
 881 988 l 1xb0
  Spiro
    881 988 v
    996 988 v
    996 -48 ]
    868 -413 o
    668 -521 o
    284 -506 o
    204 -477 v
    250 -358 v
    326 -382 o
    648 -375 o
    790 -249 o
    832 18 [
    832 853 v
    0 0 z
  EndSpiro
650 1003 m 0xd0
 706.881 994.375 761.588 974.725 814 951 c 0
 843.615 937.594 872.618 922.849 901 907 c 1
 847 813 l 1
 815.005 826.734 782.308 838.858 749 849 c 0
 685.584 868.309 618.713 880.727 553 872 c 0
 509.906 866.277 467.976 851.137 431.778 827.064 c 0
 395.58 802.991 365.363 770.279 343 733 c 0
 315.236 686.718 299.425 633.895 292.472 580.373 c 0
 285.518 526.852 286.776 472.341 295 419 c 0
 302.147 372.646 314.906 326.891 336 285 c 0
 363.68 230.028 406.989 182.512 461 153 c 0
 518.995 121.311 587.196 110.88 653 117 c 0
 752.907 126.292 848.397 170.195 925 235 c 1
 963 142 l 1
 863.902 47.8151 731.556 -12.3826 595 -19 c 0
 522.231 -22.5263 448.305 -10.3546 382.023 19.8852 c 0
 315.742 50.1251 258.039 98.8046 217 159 c 0
 161.473 240.447 136.535 339.643 130 438 c 0
 125.154 510.936 129.844 584.808 147.618 655.711 c 0
 165.391 726.614 197.557 794.392 245 850 c 0
 290.323 903.123 348.714 944.732 413 972 c 0
 487.305 1003.52 570.2 1015.1 650 1003 c 0xd0
  Spiro
    650 1003 o
    814 951 o
    901 907 v
    847 813 v
    749 849 o
    553 872 o
    343 733 o
    295 419 o
    336 285 o
    461 153 o
    653 117 o
    925 235 v
    963 142 v
    595 -19 o
    217 159 o
    130 438 o
    245 850 o
    413 972 o
    0 0 z
  EndSpiro
EndSplineSet
Validated: 37
EndChar

StartChar: O
Encoding: 79 79 31
Width: 1686
VWidth: 2097
InSpiro: 1
Flags: W
HStem: -15 149<695.378 1088.21> 1287 149<676.07 1077.27>
VStem: 215 175<465.477 980.057> 1376 175<448.924 965.224>
LayerCount: 2
Fore
SplineSet
872 1287 m 0
 740.98 1286.28 610.44 1229.46 524 1131 c 0
 474.071 1074.13 438.884 1005.1 417.637 932.463 c 0
 396.39 859.827 388.262 783.66 390 708 c 0
 393.198 568.756 430.185 426.704 516 317 c 0
 560.892 259.612 618.805 212.35 684.451 180.738 c 0
 750.096 149.125 823.145 133.084 896 134 c 0
 966.914 134.892 1037.66 151.873 1100.93 183.913 c 0
 1164.2 215.953 1219.62 263.136 1262 320 c 0
 1343.93 429.929 1375.84 570.899 1376 708 c 0
 1376.14 827.98 1351.95 950.25 1290 1053 c 0
 1246.86 1124.56 1185.23 1185.02 1112.23 1225.69 c 0
 1039.24 1266.37 955.557 1287.46 872 1287 c 0
  Spiro
    524 1131 o
    390 708 o
    516 317 o
    896 134 o
    1262 320 o
    1376 708 o
    1290 1053 o
    872 1287 o
    0 0 z
  EndSpiro
891 1436 m 0
 981.195 1435.13 1071.43 1417.92 1154.78 1383.45 c 0
 1238.13 1348.98 1314.25 1296.67 1375 1230 c 0
 1438.35 1160.48 1484.45 1076 1512.84 986.328 c 0
 1541.23 896.66 1552.81 802.038 1551 708 c 0
 1549.03 605.611 1531.3 503.157 1494.65 407.529 c 0
 1458.01 311.9 1401.27 223.436 1326 154 c 0
 1205.44 42.791 1040.02 -15.1396 876 -15 c 0
 706.801 -14.8564 535.935 47.6523 416 167 c 0
 346.014 236.644 294.304 323.686 261.799 416.916 c 0
 229.294 510.145 214.907 609.266 215 708 c 0
 215.098 811.35 231.017 915.114 266.663 1012.12 c 0
 302.309 1109.13 358.981 1198.98 435 1269 c 0
 556.945 1381.32 725.221 1437.61 891 1436 c 0
  Spiro
    1375 1230 o
    1551 708 o
    1326 154 o
    876 -15 o
    416 167 o
    215 708 o
    435 1269 o
    891 1436 o
    0 0 z
  EndSpiro
EndSplineSet
Validated: 33
EndChar

StartChar: A
Encoding: 65 65 32
Width: 1383
VWidth: 2097
Flags: W
HStem: 0 21G<130 293.956 1154.03 1333> 413 149<482.461 965.139> 1401 20G<627.892 835.108>
VStem: 130 157<0 157> 1161 172<0 172>
DStem2: 130 0 287 0 0.334866 0.942266<52.5739 489.83 647.581 1381.49> 828 1421 723.554 1255.2 0.334866 -0.942266<121.252 855.33 1013.12 1450.47>
LayerCount: 2
Fore
SplineSet
723.554 1255.2 m 1
 482.461 562 l 1
 965.139 562 l 1
 723.554 1255.2 l 1
635 1421 m 1
 828 1421 l 1
 1333 0 l 1
 1161 0 l 1
 1017.07 413 l 1
 430.639 413 l 1
 287 0 l 1
 130 0 l 1
 635 1421 l 1
EndSplineSet
Validated: 1
EndChar

StartChar: L
Encoding: 76 76 33
Width: 1133
VWidth: 2097
Flags: W
HStem: 0 149<357 1098> 1401 20G<290 460>
VStem: 290 170<149 1421> 357 103<0 149>
LayerCount: 2
Fore
SplineSet
357 149 m 5xd0
 1098 149 l 5
 1098 0 l 5
 357 0 l 5
 357 149 l 5xd0
290 1421 m 5xe0
 460 1421 l 5xe0
 460 0 l 5xd0
 290 0 l 5
 290 1421 l 5xe0
EndSplineSet
Validated: 5
EndChar

StartChar: E
Encoding: 69 69 34
Width: 1283
VWidth: 2097
Flags: W
HStem: 0 150<290 1123> 657 150<290 1068> 1271 150<290 1123>
VStem: 290 170<150 657 807 1271>
LayerCount: 2
Fore
SplineSet
290 807 m 5
 1068 807 l 5
 1068 657 l 5
 290 657 l 5
 290 807 l 5
290 1421 m 5
 1123 1421 l 5
 1123 1271 l 5
 290 1271 l 5
 290 1421 l 5
290 150 m 5
 1123 150 l 5
 1123 0 l 5
 290 0 l 5
 290 150 l 5
290 1421 m 5
 460 1421 l 5
 460 0 l 5
 290 0 l 5
 290 1421 l 5
EndSplineSet
Validated: 5
EndChar

StartChar: F
Encoding: 70 70 35
Width: 1248
VWidth: 2097
Flags: W
HStem: 0 21G<290 460> 657 150<357 1053> 1271 150<357 1113>
VStem: 290 170<0 657 807 1271> 357 103<657 807 1271 1421>
LayerCount: 2
Fore
SplineSet
357 807 m 1xe8
 1053 807 l 1
 1053 657 l 1
 357 657 l 1
 357 807 l 1xe8
357 1421 m 1
 1113 1421 l 1
 1113 1271 l 1
 357 1271 l 1
 357 1421 l 1
290 1421 m 1xf0
 460 1421 l 1xe8
 460 0 l 1
 290 0 l 1
 290 1421 l 1xf0
EndSplineSet
Validated: 5
EndChar

StartChar: N
Encoding: 78 78 36
Width: 1659
VWidth: 2097
InSpiro: 1
Flags: W
HStem: 0 21G<290 460 1221 1449> 1401 20G<290 518.015 1279 1449>
VStem: 1279 170<124 1421>
LayerCount: 2
Fore
SplineSet
290 1421 m 1
 505 1421 l 1
 1349 124 l 1
 1279 124 l 1
 1279 1421 l 1
 1449 1421 l 1
 1449 0 l 1
 1234 0 l 1
 379.23 1315 l 1
 460 1315 l 1
 460 0 l 1
 290 0 l 1
 290 1421 l 1
  Spiro
    290 1421 v
    505 1421 v
    1349 124 v
    1279 124 v
    1279 1421 v
    1449 1421 v
    1449 0 v
    1234 0 v
    379.23 1315 v
    460 1315 v
    460 0 v
    290 0 v
    0 0 z
  EndSpiro
EndSplineSet
Validated: 5
EndChar

StartChar: V
Encoding: 86 86 37
Width: 1401
VWidth: 2097
Flags: W
HStem: 0 21G<628.033 852.967> 1401 20G<140 348.548 1147.47 1341>
VStem: 140 202<1219 1421> 1154 187<1234 1421>
LayerCount: 2
Fore
SplineSet
140 1421 m 5
 342 1421 l 5
 801 19 l 5
 696 19 l 5
 1154 1421 l 5
 1341 1421 l 5
 846 0 l 5
 635 0 l 5
 140 1421 l 5
EndSplineSet
Validated: 5
EndChar

StartChar: Z
Encoding: 90 90 38
Width: 1358
VWidth: 2097
Flags: W
HStem: 0 150<381 1298> 1271 150<185 1028>
DStem2: 155 111 381 150 0.608059 0.793892<168.383 1451.75>
LayerCount: 2
Fore
SplineSet
185 1421 m 29
 1271 1421 l 17
 1271 1312 l 1
 381 150 l 9
 1298 150 l 25
 1298 0 l 25
 155 0 l 17
 155 111 l 1
 1028 1271 l 9
 185 1271 l 29
 185 1421 l 29
EndSplineSet
Validated: 1
EndChar

StartChar: T
Encoding: 84 84 39
Width: 1210
VWidth: 2097
Flags: W
HStem: 0 21G<560 730> 1271 150<85 560 730 1205> 1271 122<560 730>
VStem: 560 170<0 1393>
LayerCount: 2
Fore
SplineSet
730 0 m 5xb0
 560 0 l 5
 560 1393 l 5
 730 1393 l 5
 730 0 l 5xb0
85 1421 m 5xd0
 1205 1421 l 5
 1205 1271 l 5
 85 1271 l 5
 85 1421 l 5xd0
EndSplineSet
Validated: 5
EndChar

StartChar: I
Encoding: 73 73 40
Width: 730
VWidth: 2097
Flags: W
HStem: 0 21G<320 490> 1401 20G<320 490>
VStem: 320 170<0 1421>
LayerCount: 2
Fore
SplineSet
320 1421 m 5
 490 1421 l 5
 490 0 l 5
 320 0 l 5
 320 1421 l 5
EndSplineSet
Validated: 1
EndChar

StartChar: X
Encoding: 88 88 41
Width: 1368
VWidth: 2097
Flags: W
HStem: 0 21G<110 333.313 1104.66 1338> 1401 20G<170 389.54 1073.96 1283>
VStem: 110 210<0 210> 170 206<1215 1421> 1087 196<1225 1421> 1118 220<0 220>
LayerCount: 2
Fore
SplineSet
170 1421 m 9xd4
 376 1421 l 25
 1338 0 l 25
 1118 0 l 17
 170 1421 l 9xd4
1087 1421 m 9xe8
 1283 1421 l 17
 791 684 l 1
 762 664 l 1
 320 0 l 1
 110 0 l 1
 647 777 l 1
 680 797 l 1
 1087 1421 l 9xe8
EndSplineSet
Validated: 5
EndChar

StartChar: Y
Encoding: 89 89 42
Width: 1263
VWidth: 2097
Flags: W
HStem: 0 21G<569 739> 1401 20G<100 313.327 1020.37 1223>
VStem: 100 201<1220 1421> 569 170<0 673> 1033 190<1231 1421>
LayerCount: 2
Fore
SplineSet
100 1421 m 9
 301 1421 l 25
 685 798 l 25
 644 805 l 25
 1033 1421 l 25
 1223 1421 l 25
 739 673 l 25
 739 0 l 25
 569 0 l 25
 569 673 l 17
 100 1421 l 9
EndSplineSet
Validated: 5
EndChar

StartChar: K
Encoding: 75 75 43
Width: 1417
VWidth: 2097
Flags: W
HStem: 0 21G<290 460 1118 1319.8> 1401 20G<290 460 1068.6 1299>
VStem: 290 170<0 1421> 1086 213<1208 1421> 1118 219<1 220>
LayerCount: 2
Fore
SplineSet
1086 1421 m 1xf0
 1299 1421 l 1xf0
 646 685 l 1
 680 764 l 1
 1337 0 l 1
 1118 1 l 1xe8
 484 729 l 1
 1086 1421 l 1xf0
290 1421 m 1
 460 1421 l 1
 460 0 l 1
 290 0 l 1
 290 1421 l 1
EndSplineSet
Validated: 5
EndChar

StartChar: M
Encoding: 77 77 44
Width: 1884
VWidth: 2097
Flags: W
HStem: 0 21G<290 460 1504 1674> 1401 20G<290 540.569 1438.25 1674>
LayerCount: 2
Fore
SplineSet
290 1421 m 5
 530 1421 l 5
 1050 437 l 5
 920 437 l 5
 1449 1421 l 5
 1674 1421 l 5
 1674 0 l 5
 1504 0 l 5
 1504 1365 l 5
 1611 1365 l 5
 1067 407 l 5
 897 407 l 5
 353.23 1365 l 5
 460 1365 l 5
 460 0 l 5
 290 0 l 5
 290 1421 l 5
EndSplineSet
Validated: 5
EndChar

StartChar: hyphen
Encoding: 45 45 45
Width: 1210
VWidth: 2097
InSpiro: 1
Flags: W
HStem: 589 139<175 1035>
LayerCount: 2
Fore
SplineSet
175 728 m 1
 1035 728 l 1
 1035 589 l 1
 175 589 l 1
 175 728 l 1
  Spiro
    175 728 v
    1035 728 v
    1035 589 v
    175 589 v
    0 0 z
  EndSpiro
EndSplineSet
Validated: 1
EndChar

StartChar: J
Encoding: 74 74 46
Width: 953
VWidth: 2097
InSpiro: 1
Flags: W
HStem: -17 151<139.852 467.563> 7 142<135.904 488.6>
VStem: 573 170<236.859 1419>
LayerCount: 2
Fore
SplineSet
573 1419 m 1xa0
 743 1419 l 1
 743 426 l 2
 743 368.558 741.781 310.475 727.074 254.948 c 0
 712.367 199.421 684.349 147.264 644.754 105.649 c 0
 605.16 64.0342 554.854 33.2715 500.864 13.6562 c 0
 446.875 -5.95898 389.406 -14.9648 332 -17 c 0xa0
 257.38 -19.6445 182.482 -10.9277 110 7 c 1
 137 149 l 1x60
 197.815 134.802 260.779 128.645 323 134 c 0
 358.469 137.053 393.781 144.15 426.754 157.572 c 0
 459.726 170.994 490.22 191.043 514.092 217.453 c 0
 537.964 243.863 554.718 276.432 563.502 310.931 c 0
 572.285 345.43 573 381.4 573 417 c 2
 573 1419 l 1xa0
  Spiro
    573 1419 v
    743 1419 v
    743 426 ]
    332 -17 o
    110 7 v
    137 149 v
    323 134 o
    573 417 [
    0 0 z
  EndSpiro
EndSplineSet
Validated: 33
EndChar

StartChar: R
Encoding: 82 82 47
Width: 1438
VWidth: 2097
InSpiro: 1
Flags: W
HStem: 0 21G<290 461 1108.01 1311> 592 150<357 695.178> 653 91.971<800.549 882> 1272 149<461 947.617>
VStem: 290 171<0 592 742 1272> 357 104<592 742> 1058 170<856.984 1164> 1121 190<0 190>
LayerCount: 2
Fore
SplineSet
697 653 m 1xb1
 882 653 l 1
 1311 0 l 1
 1121 0 l 1
 697 653 l 1xb1
  Spiro
    697 653 v
    882 653 v
    1311 0 v
    1121 0 v
    0 0 z
  EndSpiro
290 1421 m 1xba
 812 1421 l 2
 869.508 1421 927.761 1419.72 983.062 1403.94 c 0
 1038.37 1388.17 1089.72 1358 1129 1316 c 0
 1163.83 1278.76 1189.07 1233.07 1204.93 1184.6 c 0
 1220.78 1136.14 1227.76 1084.99 1228 1034 c 0
 1228.29 973.9 1219.35 913.512 1198.98 856.967 c 0
 1178.62 800.422 1145.95 747.994 1102 707 c 0
 1038.79 648.041 954.287 615.996 868.831 603.003 c 0
 783.374 590.009 696.438 592 610 592 c 2
 357 592 l 1
 357 742 l 1
 630 742 l 2xd6
 686.876 742 743.891 739.994 800.549 744.971 c 0
 857.207 749.948 914.501 764.872 960 799 c 0
 992.021 823.019 1017.26 855.709 1033.54 892.279 c 0
 1049.81 928.849 1057.62 968.973 1058 1009 c 0
 1058.33 1044.11 1052.92 1079.4 1040.76 1112.34 c 0
 1028.6 1145.28 1009.37 1175.73 984 1200 c 0
 950.128 1232.4 905.889 1252.69 860.02 1262.35 c 0
 814.151 1272 766.874 1272 720 1272 c 2
 461 1272 l 1
 461 0 l 1
 290 0 l 1
 290 1421 l 1xba
  Spiro
    290 1421 v
    812 1421 ]
    1129 1316 o
    1228 1034 o
    1102 707 o
    610 592 [
    357 592 v
    357 742 v
    630 742 ]
    960 799 o
    1058 1009 o
    984 1200 o
    720 1272 [
    461 1272 v
    461 0 v
    290 0 v
    0 0 z
  EndSpiro
EndSplineSet
Validated: 37
EndChar

StartChar: D
Encoding: 68 68 48
Width: 1605
VWidth: 2097
InSpiro: 1
Flags: W
HStem: 0 150<460 979.337> 1271 150<460 982.213>
VStem: 290 170<150 1271> 1275 170<460.936 969.362>
LayerCount: 2
Fore
SplineSet
460 1271 m 1
 460 150 l 1
 667 150 l 2
 729.782 150 792.849 150.426 854.856 160.261 c 0
 916.863 170.096 977.688 189.509 1032 221 c 0
 1107.95 265.037 1169.39 332.647 1209 411 c 0
 1252.89 497.836 1271.95 595.748 1275 693 c 0
 1278.78 813.297 1257.41 937.088 1195 1040 c 0
 1147.61 1118.14 1077.17 1182.01 995 1222 c 0
 955.097 1241.42 912.428 1255.13 868.691 1262.64 c 0
 824.953 1270.15 780.378 1271 736 1271 c 2
 460 1271 l 1
  Spiro
    460 1271 v
    460 150 v
    667 150 ]
    1032 221 o
    1209 411 o
    1275 693 o
    1195 1040 o
    995 1222 o
    736 1271 [
    0 0 z
  EndSpiro
290 1421 m 1
 687 1421 l 2
 819.03 1421 953.753 1412.88 1076 1363 c 0
 1184.57 1318.7 1281.39 1243.51 1345 1145 c 0
 1427.73 1016.88 1451.63 858.361 1445 706 c 0
 1440.99 613.829 1426.46 521.767 1397.17 434.284 c 0
 1367.88 346.8 1322.36 264.062 1259 197 c 0
 1180.32 113.715 1075.14 57.8271 964 30 c 0
 844.935 0.189453 720.74 0 598 0 c 2
 290 0 l 1
 290 1421 l 1
  Spiro
    290 1421 v
    687 1421 ]
    1076 1363 o
    1345 1145 o
    1445 706 o
    1259 197 o
    964 30 o
    598 0 [
    290 0 v
    0 0 z
  EndSpiro
EndSplineSet
Validated: 33
EndChar

StartChar: P
Encoding: 80 80 49
Width: 1339
VWidth: 2097
InSpiro: 1
Flags: W
HStem: 0 21G<290 460> 1271 150<460 949.168>
VStem: 290 170<0 611 759 1271>
LayerCount: 2
Fore
SplineSet
290 1421 m 1
 738 1421 l 2
 807.577 1421 877.722 1421.48 945.97 1407.94 c 0
 1014.22 1394.41 1080.41 1364.8 1130 1316 c 0
 1171.97 1274.69 1200.96 1221.11 1216.34 1164.27 c 0
 1231.72 1107.43 1234.61 1047.62 1229 989 c 0
 1223.99 936.616 1212.11 884.708 1191.62 836.236 c 0
 1171.14 787.765 1141.44 742.935 1103 707 c 0
 1062.19 668.856 1011.98 641.442 958.758 624.475 c 0
 905.539 607.508 849.675 600.526 794 596 c 0
 636.771 583.218 478.1 588.261 322 611 c 1
 350 759 l 1
 486.972 739.539 625.894 733.834 764 742 c 0
 798.66 744.049 833.445 747.069 867.12 755.524 c 0
 900.796 763.979 933.264 778.114 961 799 c 0
 990.98 821.576 1014.99 851.769 1031.28 885.579 c 0
 1047.58 919.388 1056.54 956.551 1059 994 c 0
 1061.47 1031.64 1057.38 1069.89 1045.3 1105.62 c 0
 1033.22 1141.36 1012.69 1174.38 985 1200 c 0
 963.267 1220.11 937.387 1235.55 909.775 1246.24 c 0
 882.163 1256.94 852.925 1263.01 823.508 1266.4 c 0
 764.676 1273.18 705.221 1271 646 1271 c 2
 460 1271 l 1
 460 0 l 1
 290 0 l 1
 290 1421 l 1
  Spiro
    290 1421 v
    738 1421 ]
    1130 1316 o
    1229 989 o
    1103 707 o
    794 596 c
    322 611 v
    350 759 v
    764 742 c
    961 799 o
    1059 994 o
    985 1200 o
    646 1271 [
    460 1271 v
    460 0 v
    290 0 v
    0 0 z
  EndSpiro
EndSplineSet
Validated: 37
EndChar

StartChar: B
Encoding: 66 66 50
Width: 1424
VWidth: 2097
Flags: W
HStem: 0 150<460 990.862> 682 132<460 709> 1291 130<460 923.251>
VStem: 290 170<150 682 814 1291> 1018 164<933.538 1205.47> 1130 169<271.237 558.184>
LayerCount: 2
Fore
SplineSet
290 1421 m 5xf4
 791 1421 l 6
 1148 1421 1182 1153 1182 1079 c 4xf8
 1182 957 1081 826 998 794 c 5
 1175 762 1299 606 1299 431 c 4
 1299 302 1218 0 752 0 c 6
 290 0 l 5
 290 1421 l 5xf4
460 682 m 5
 460 150 l 5
 719 150 l 6
 780 150 1130 133 1130 413 c 4xf4
 1130 604 960 708 709 695 c 6
 460 682 l 5
460 1291 m 5
 460 814 l 5
 641 819 l 6
 708.17 820.856 1018 823 1018 1071 c 4xf8
 1018 1159 975 1291 734 1291 c 6
 460 1291 l 5
EndSplineSet
Validated: 33
EndChar

StartChar: U
Encoding: 85 85 51
Width: 1580
VWidth: 2097
InSpiro: 1
Flags: W
HStem: -21 148<626.396 1033.6> 1401 20G<290 460 1200 1370>
VStem: 290 170<282.326 1421> 1200 170<282.326 1421>
LayerCount: 2
Fore
SplineSet
290 1421 m 1
 460 1421 l 1
 460 500 l 2
 460 453.742 460.869 407.024 471.991 362.124 c 0
 483.113 317.223 504.405 274.694 535 240 c 0
 570.892 199.299 618.658 169.974 669.91 152.141 c 0
 721.162 134.309 775.734 127 830 127 c 0
 884.266 127 938.838 134.309 990.09 152.141 c 0
 1041.34 169.974 1089.11 199.299 1125 240 c 0
 1155.59 274.694 1176.89 317.223 1188.01 362.124 c 0
 1199.13 407.024 1200 453.742 1200 500 c 2
 1200 1421 l 1
 1370 1421 l 1
 1370 620 l 2
 1370 512.939 1379.09 404.079 1354 300 c 0
 1340.95 245.854 1317.18 194.084 1282.73 150.326 c 0
 1248.27 106.568 1203.68 71.1709 1154.3 45.3965 c 0
 1055.56 -6.15137 941.394 -21 830 -21 c 0
 718.606 -21 604.443 -6.15137 505.695 45.3965 c 0
 456.32 71.1709 411.733 106.568 377.274 150.326 c 0
 342.816 194.084 319.053 245.854 306 300 c 0
 280.909 404.079 290 512.939 290 620 c 2
 290 1421 l 1
  Spiro
    290 1421 v
    460 1421 v
    460 500 ]
    535 240 o
    830 127 o
    1125 240 o
    1200 500 [
    1200 1421 v
    1370 1421 v
    1370 620 ]
    1354 300 o
    830 -21 o
    306 300 o
    290 620 [
    0 0 z
  EndSpiro
EndSplineSet
Validated: 33
EndChar

StartChar: Q
Encoding: 81 81 52
Width: 1706
VWidth: 2097
InSpiro: 1
Flags: W
HStem: -15 149<697.94 1110.98> 1287 149<676.083 1079.09>
VStem: 215 175<463.888 979.45> 1376 175<420.132 961.917>
DStem2: 1582 41 1490 -56 0.726357 -0.687318<-843.433 -406.872 -252.133 -0.154972>
LayerCount: 2
Fore
SplineSet
981 633 m 1
 1582 41 l 1
 1490 -56 l 1
 876 525 l 1
 981 633 l 1
  Spiro
    981 633 v
    1582 41 v
    1490 -56 v
    876 525 v
    0 0 z
  EndSpiro
872 1287 m 0
 741.01 1285.87 610.378 1229.48 524 1131 c 0
 474.114 1074.12 439.129 1005.02 417.987 932.377 c 0
 396.845 859.738 388.635 783.641 390 708 c 0
 392.516 568.589 428.694 425.717 516 317 c 0
 561.446 260.409 619.985 214.483 685.567 183.387 c 0
 751.148 152.291 823.438 135.618 896 134 c 0
 961.566 132.538 1027.6 143.456 1088.44 167.951 c 0
 1149.27 192.447 1204.53 230.895 1248 280 c 0
 1298.52 337.072 1332.45 407.645 1351.91 481.341 c 0
 1371.37 555.037 1377.69 631.796 1376 708 c 0
 1373.34 827.771 1350.81 949.78 1290 1053 c 0
 1247.53 1125.09 1185.99 1185.99 1112.81 1226.57 c 0
 1039.63 1267.15 955.673 1287.72 872 1287 c 0
  Spiro
    524 1131 o
    390 708 o
    516 317 o
    896 134 o
    1248 280 o
    1376 708 o
    1290 1053 o
    872 1287 o
    0 0 z
  EndSpiro
891 1436 m 0
 981.254 1435.31 1071.61 1418.41 1155.06 1384.01 c 0
 1238.5 1349.61 1314.61 1297.08 1375 1230 c 0
 1437.83 1160.2 1483.07 1075.44 1511.16 985.824 c 0
 1539.24 896.204 1551.23 801.917 1551 708 c 0
 1550.76 610.016 1537.26 511.654 1506.1 418.754 c 0
 1474.95 325.855 1424.85 238.716 1356 169 c 0
 1294.12 106.345 1217.77 58.418 1135.17 27.9062 c 0
 1052.56 -2.60645 964.05 -16.3477 876 -15 c 0
 707.051 -12.4141 536.458 48.5088 416 167 c 0
 345.569 236.281 293.583 323.315 261.157 416.637 c 0
 228.731 509.959 214.695 609.206 215 708 c 0
 215.319 811.335 231.255 915.059 266.827 1012.08 c 0
 302.399 1109.1 358.974 1199.01 435 1269 c 0
 556.953 1381.27 725.245 1437.26 891 1436 c 0
  Spiro
    1375 1230 o
    1551 708 o
    1356 169 o
    876 -15 o
    416 167 o
    215 708 o
    435 1269 o
    891 1436 o
    0 0 z
  EndSpiro
EndSplineSet
Validated: 37
EndChar

StartChar: W
Encoding: 87 87 53
Width: 2155
VWidth: 2097
InSpiro: 1
Flags: W
HStem: 0 21G<578.737 771.875 1481.71 1675> 1401 20G<140 327.977 1032.97 1216.19 1921.18 2095>
VStem: 140 182<1239 1421> 1927 168<1253 1421>
LayerCount: 2
Fore
SplineSet
140 1421 m 1
 322 1421 l 1
 741 19 l 1
 616 19 l 1
 1039 1421 l 1
 1210 1421 l 1
 1644 19 l 1
 1519 19 l 1
 1927 1421 l 1
 2095 1421 l 1
 1669 0 l 1
 1488 0 l 1
 1064 1348 l 1
 1162 1348 l 1
 766 0 l 1
 585 0 l 1
 140 1421 l 1
  Spiro
    140 1421 v
    322 1421 v
    741 19 v
    616 19 v
    1039 1421 v
    1210 1421 v
    1644 19 v
    1519 19 v
    1927 1421 v
    2095 1421 v
    1669 0 v
    1488 0 v
    1064 1348 v
    1162 1348 v
    766 0 v
    585 0 v
    0 0 z
  EndSpiro
EndSplineSet
Validated: 5
EndChar

StartChar: C
Encoding: 67 67 54
Width: 1451
VWidth: 2097
InSpiro: 1
Flags: W
HStem: 1281 150<765.317 1249.05>
VStem: 275 170<480.584 940.018>
DStem2: 1223 1402 1162 1259 0.964784 -0.263044<-255.844 143.036>
LayerCount: 2
Fore
SplineSet
994 1431 m 0
 1071.11 1430.32 1148.03 1420.02 1223 1402 c 0
 1273.68 1389.82 1323.5 1374.08 1372 1355 c 1
 1320 1214 l 1
 1268.23 1231.95 1215.5 1247.18 1162 1259 c 0
 1099.61 1272.79 1035.89 1281.88 972 1281 c 0
 897.699 1279.98 823.332 1264.6 755.972 1233.23 c 0
 688.612 1201.86 628.706 1154.97 581 1098 c 0
 490.796 990.277 444.518 848.502 445 708 c 0
 445.465 572.491 490.25 436.102 577 332 c 0
 626.385 272.737 688.865 224.486 758.606 191.511 c 0
 828.346 158.537 904.959 140.954 982 137 c 0
 1049.29 133.546 1116.87 140.066 1183 153 c 0
 1235.99 163.364 1288.15 177.85 1339 196 c 1
 1391 70 l 1
 1332.83 44.7139 1272.57 24.2266 1211 9 c 0
 1088.31 -21.3418 959.449 -31.0664 835 -9 c 0
 702.424 14.5078 576.116 76.7012 481 172 c 0
 411.642 241.492 359.178 327.159 325.245 419.291 c 0
 291.312 511.423 275.161 609.818 275 708 c 0
 274.703 889.116 331.371 1073.9 452 1209 c 0
 519.067 1284.11 604.555 1342.29 698.275 1379.12 c 0
 791.995 1415.95 893.307 1431.89 994 1431 c 0
  Spiro
    994 1431 o
    1223 1402 o
    1372 1355 v
    1320 1214 v
    1162 1259 o
    972 1281 o
    581 1098 o
    445 708 o
    577 332 o
    982 137 o
    1183 153 o
    1339 196 v
    1391 70 v
    1211 9 o
    835 -9 o
    481 172 o
    275 708 o
    452 1209 o
    0 0 z
  EndSpiro
EndSplineSet
Validated: 33
EndChar

StartChar: S
Encoding: 83 83 55
Width: 1361
VWidth: 2097
Flags: W
HStem: -19 167<445.365 904.585> 1274 160<591.234 1091.19>
VStem: 269 185<942.967 1160.98> 1036 185<254.697 482.74>
LayerCount: 2
Fore
SplineSet
821 1434 m 0
 949 1434 1078 1406 1174 1377 c 1
 1119 1222 l 1
 1074 1235 932 1274 807 1274 c 0
 614 1274 454 1184 454 1050 c 0
 454 741 1221 856 1221 397 c 0
 1221 214 1073 -19 672 -19 c 0
 503 -19 377 22 240 76 c 1
 298 241 l 1
 481 173 609 148 693 148 c 0
 893 148 1036 235 1036 372 c 0
 1036 709 269 570 269 1022 c 0
 269 1242 484 1434 821 1434 c 0
EndSplineSet
Validated: 1
EndChar

StartChar: at
Encoding: 64 64 56
Width: 2100
VWidth: 2097
InSpiro: 1
Flags: HW
HStem: -114 135<1473.84 1664.7> 1238 161<816.817 1390.55>
VStem: 181 168<158.613 734.55> 601 152<273.313 676.067> 1280 153<223.788 789> 1795 168<203.484 841.393>
CounterMasks: 1 3c
LayerCount: 2
Fore
SplineSet
1323 968 m 1
 1436 968 l 1
 1433 252 l 2
 1432.89 225.841 1432.64 199.633 1434.97 173.578 c 0
 1437.3 147.523 1442.41 121.454 1453.25 97.6478 c 0
 1464.09 73.8416 1480.98 52.4728 1503.04 38.4005 c 0
 1525.09 24.3282 1552 18.0909 1578 21 c 0
 1613.21 24.9401 1645.05 44.8451 1670 70 c 0
 1697.02 97.2374 1717.65 130.296 1734 165 c 0
 1787.85 279.296 1796.55 409.662 1795 536 c 0
 1793.94 622.919 1786.41 710.206 1764.92 794.433 c 0
 1743.42 878.659 1706.15 959.642 1650 1026 c 0
 1599.78 1085.35 1535.42 1132.07 1465 1165 c 0
 1354.14 1216.84 1230.38 1237.12 1108 1238 c 0
 963.523 1239.03 816.049 1211.07 692 1137 c 0
 570.518 1064.46 478.148 948.301 423 818 c 0
 372.114 697.77 348.77 566.555 349 436 c 0
 349.281 276.49 388.237 113.764 481 -16 c 0
 542.166 -101.563 625.47 -170.886 720 -217 c 0
 850.366 -280.596 1001.59 -300.57 1144 -273 c 0
 1201.08 -261.949 1256.71 -243.413 1309 -218 c 1
 1372 -337 l 1
 1318.66 -364.593 1262.17 -386.075 1204 -401 c 0
 1030.79 -445.439 844.519 -431.805 676 -372 c 0
 542.161 -324.502 417.906 -244.088 332 -131 c 0
 276.339 -57.7274 237.602 27.6762 214.202 116.668 c 0
 190.803 205.659 181.74 297.987 181 390 c 0
 179.705 551.024 201.265 713.677 259 864 c 0
 326.913 1040.82 454.996 1195.62 622 1285 c 0
 780.022 1369.57 962.77 1399.23 1142 1399 c 0
 1266.78 1398.84 1392.72 1383.85 1510 1341.23 c 0
 1627.28 1298.61 1734.29 1224.95 1809 1125 c 0
 1870.9 1042.2 1909.99 943.961 1932.41 843.042 c 0
 1954.82 742.122 1962.73 638.378 1963 535 c 0
 1963.22 451.757 1958.18 368.186 1941.59 286.611 c 0
 1925.01 205.037 1895.86 125.108 1848 57 c 0
 1815.06 10.1262 1773.37 -30.8449 1724.67 -61.0268 c 0
 1675.98 -91.2088 1620.19 -110.568 1563 -114 c 0
 1521.39 -116.497 1479.1 -110.409 1440.49 -94.6856 c 0
 1401.88 -78.9624 1367.23 -53.4626 1341.15 -20.9391 c 0
 1315.07 11.5844 1297.89 50.7815 1289.1 91.5324 c 0
 1280.31 132.283 1279.87 174.312 1280 216 c 2
 1282 849 l 1
 1323 968 l 1
  Spiro
    1323 968 v
    1436 968 v
    1433 252 ]
    1578 21 o
    1670 70 o
    1734 165 o
    1795 536 o
    1650 1026 o
    1465 1165 o
    1108 1238 o
    692 1137 o
    423 818 o
    349 436 o
    481 -16 o
    720 -217 o
    1144 -273 o
    1309 -218 v
    1372 -337 v
    1204 -401 o
    676 -372 o
    332 -131 o
    181 390 o
    259 864 o
    622 1285 o
    1142 1399 o
    1809 1125 o
    1963 535 o
    1848 57 o
    1563 -114 o
    1280 216 [
    1282 849 v
    0 0 z
  EndSpiro
1106 960 m 0
 1159.57 954.398 1212.2 940.537 1262 920 c 0
 1290.69 908.166 1318.47 894.103 1345 878 c 1
 1293 789 l 1
 1263.03 802.935 1231.9 814.371 1200 823 c 0
 1139.55 839.353 1075.69 845.78 1014 835 c 0
 972.253 827.705 931.81 812.303 896.499 788.869 c 0
 861.188 765.434 831.273 734.055 809 698 c 0
 768.559 632.533 753.258 553.95 753 477 c 0
 752.753 403.241 766.394 328.035 803 264 c 0
 831.835 213.559 875.329 171.566 927 145 c 0
 982.634 116.396 1046.61 105.497 1109 110 c 0
 1204.39 116.884 1296.4 158.487 1367 223 c 1
 1403 134 l 1
 1309 44.6641 1183.5 -12.2341 1054 -19 c 0
 984.663 -22.6226 914.23 -11.538 850.6 16.2467 c 0
 786.969 44.0314 730.847 88.8542 690 145 c 0
 625.29 233.947 600.146 347.008 601 457 c 0
 601.488 519.917 610.141 582.92 628.606 643.069 c 0
 647.071 703.217 675.932 760.489 716 809 c 0
 759.884 862.131 817.152 904.073 881 930 c 0
 951.812 958.755 1029.99 967.948 1106 960 c 0
  Spiro
    1106 960 o
    1262 920 o
    1345 878 v
    1293 789 v
    1200 823 o
    1014 835 o
    809 698 o
    753 477 o
    803 264 o
    927 145 o
    1109 110 o
    1367 223 v
    1403 134 v
    1054 -19 o
    690 145 o
    601 457 o
    716 809 o
    881 930 o
    0 0 z
  EndSpiro
EndSplineSet
Validated: 37
EndChar

StartChar: question
Encoding: 63 63 57
Width: 1046
VWidth: 2097
Flags: HW
HStem: 0 200<311 511> 1294 143<157.727 603.092>
VStem: 311 200<0 200> 326 170<392 567.677> 711 165<927.948 1196.15>
LayerCount: 2
Fore
SplineSet
423 1437 m 0xd8
 701 1437 876 1327 876 1097 c 0
 876 693 496 754 496 392 c 1
 326 392 l 1
 326 817 711 790 711 1069 c 0
 711 1155 660 1294 396 1294 c 0
 320 1294 214 1274 152 1247 c 1
 100 1369 l 1
 200 1418 313 1437 423 1437 c 0xd8
311 200 m 1xe8
 511 200 l 1
 511 0 l 1
 311 0 l 1
 311 200 l 1xe8
EndSplineSet
Validated: 1
EndChar

StartChar: eight
Encoding: 56 56 58
Width: 1300
VWidth: 2097
Flags: HW
HStem: -20.0118 149.809<479.584 841.665> 1297.06 142.98<489.26 810.937>
VStem: 149.713 174.295<269.269 546.374> 229.805 167.186<985.195 1208.45> 905.635 164.385<978.94 1207.43> 975.069 175.011<257.826 542.941>
LayerCount: 2
Fore
SplineSet
642.978 1440.04 m 0xd0
 926.362 1440.04 1070.02 1308 1070.02 1093.24 c 0xd8
 1070.02 972.891 1000.33 886.227 869.423 792.362 c 1
 1067.53 703.182 1150.08 562.406 1150.08 409.101 c 0
 1150.08 196.838 974.445 -20.0118 654.929 -20.0118 c 0
 377.17 -20.0118 149.713 149.54 149.713 389.655 c 0xe4
 149.713 550.171 263.372 709.529 434.335 790.944 c 1
 262.429 877.635 229.805 1019.54 229.805 1097.99 c 0
 229.805 1282.89 384.92 1440.04 642.978 1440.04 c 0xd0
662.535 129.797 m 0
 854.846 129.797 975.069 251.337 975.069 396.539 c 0
 975.069 594.747 794.33 677.057 619.616 725.849 c 1
 429.081 669.959 324.008 533.329 324.008 404.982 c 0xe4
 324.008 261.214 454.06 129.797 662.535 129.797 c 0
643.015 1297.06 m 0
 503.466 1297.06 396.991 1202.62 396.991 1097.32 c 0
 396.991 954.927 560.746 895.385 673.008 860 c 2
 697.561 852.324 l 1
 817.22 927.058 905.635 988.178 905.635 1088.37 c 0xd8
 905.635 1224 783.492 1297.06 643.015 1297.06 c 0
EndSplineSet
Validated: 1
EndChar

StartChar: nine
Encoding: 57 57 59
Width: 1300
VWidth: 2097
InSpiro: 1
Flags: HW
HStem: -15 152<278.986 664.715> 524 140<493.789 816.083> 1301 140<496.775 792.281>
VStem: 962 167<852.328 1121.61>
CounterMasks: 1 e0
LayerCount: 2
Fore
SplineSet
645 1301 m 0
 603.944 1301.13 563.035 1291.2 526.057 1273.36 c 0
 489.079 1255.52 455.942 1230.08 428 1200 c 0
 375.597 1143.59 340.784 1069.85 336 993 c 0
 331.264 916.926 357.426 839.739 406 781 c 0
 464.046 710.807 552.965 667.004 644 664 c 0
 727.979 661.229 812.833 693.348 873 752 c 0
 931.09 808.627 964.489 889.914 962 971 c 0
 959.593 1049.43 925.929 1125.3 875 1185 c 0
 846.248 1218.7 811.682 1247.68 772.488 1268.33 c 0
 733.294 1288.98 689.3 1300.86 645 1301 c 0
  Spiro
    645 1301 o
    428 1200 o
    336 993 o
    406 781 o
    644 664 o
    873 752 o
    962 971 o
    875 1185 o
    0 0 z
  EndSpiro
663 1441 m 0
 767.417 1441.55 873.105 1408.23 953 1341 c 0
 1019.32 1285.19 1065.68 1207.99 1092.21 1125.48 c 0
 1118.73 1042.96 1127.41 955.66 1129 869 c 0
 1131.21 748.436 1121.91 627.161 1094.23 509.798 c 0
 1066.54 392.435 1015.82 278.578 934 190 c 0
 862.654 112.762 769.503 57.0177 669.411 24.8054 c 0
 569.319 -7.40686 463.105 -17.9812 358 -15 c 0
 327.938 -14.1473 297.91 -12.139 268 -9 c 1
 280 139 l 1
 343.765 132.495 408.144 131.455 472 137 c 0
 536.167 142.572 600.162 154.999 659.754 179.437 c 0
 719.346 203.875 774.017 241.155 816 290 c 0
 874.906 358.535 905.667 447.146 921.303 536.154 c 0
 936.939 625.163 941.899 715.735 956 805 c 0
 957.582 815.014 959.248 825.014 961 835 c 1
 1031 852 l 1
 1022.34 787.109 995.226 724.856 954 674 c 0
 913.245 623.725 859.124 584.798 799.453 559.742 c 0
 739.781 534.686 674.712 523.062 610 524 c 0
 547.627 524.904 485.317 537.482 427.958 562.001 c 0
 370.599 586.519 318.355 623.299 277 670 c 0
 202.61 754.005 166.521 868.925 172 981 c 0
 178.22 1108.23 236.647 1232.53 332 1317 c 0
 422.108 1396.82 542.622 1440.37 663 1441 c 0
  Spiro
    663 1441 o
    953 1341 o
    1129 869 o
    934 190 o
    358 -15 o
    268 -9 v
    280 139 v
    472 137 o
    816 290 o
    956 805 o
    961 835 v
    1031 852 v
    954 674 o
    610 524 o
    277 670 o
    172 981 o
    332 1317 o
    0 0 z
  EndSpiro
EndSplineSet
Validated: 37
EndChar

StartChar: six
Encoding: 54 54 60
Width: 1300
VWidth: 2097
InSpiro: 1
Flags: HW
HStem: -25 140<504.282 801.645> 792 140<482.058 806.743> 1279 152<637.951 1019.01>
VStem: 169 167<298.097 594.012>
CounterMasks: 1 e0
LayerCount: 2
Fore
SplineSet
654 792 m 0
 569.916 794.795 484.298 763.679 425 704 c 0
 363.385 641.99 333.321 552.375 336 465 c 0
 338.596 380.344 369.326 296.516 423 231 c 0
 451.116 196.681 485.733 167.493 525.11 147.053 c 0
 564.487 126.613 608.634 115.178 653 115 c 0
 694.122 114.835 735.185 124.325 772.321 141.987 c 0
 809.458 159.649 842.633 185.306 870 216 c 0
 925.347 278.075 957.158 359.975 962 443 c 0
 966.81 525.479 943.605 610.48 892 675 c 0
 835.03 746.228 745.158 788.97 654 792 c 0
  Spiro
    654 792 o
    425 704 o
    336 465 o
    423 231 o
    653 115 o
    870 216 o
    962 443 o
    892 675 o
    0 0 z
  EndSpiro
364 1226 m 0
 435.28 1303.31 528.44 1359.09 628.548 1391.28 c 0
 728.656 1423.47 834.885 1433.99 940 1431 c 0
 970.062 1430.14 1000.09 1428.14 1030 1425 c 1
 1018 1277 l 1
 954.273 1284.01 889.831 1285 826 1279 c 0
 762.012 1272.99 698.343 1259.79 638.983 1235.15 c 0
 579.623 1210.52 524.997 1173.77 482 1126 c 0
 425.676 1063.43 391.307 983.549 372.614 901.462 c 0
 353.921 819.374 348.181 734.961 342 651 c 0
 340.283 627.67 338.624 604.336 337 581 c 1
 267 604 l 1
 275.53 668.921 302.672 731.211 344 782 c 0
 384.825 832.171 439.028 870.908 498.687 895.9 c 0
 558.346 920.892 623.321 932.629 688 932 c 0
 750.454 931.392 812.942 919.209 870.413 894.755 c 0
 927.883 870.302 980.084 833.188 1021 786 c 0
 1098.72 696.371 1131.91 573.484 1126 455 c 0
 1119.36 321.707 1064.64 188.895 966 99 c 0
 876.909 17.8082 755.538 -25.0281 635 -25 c 0
 530.641 -24.9757 425.078 8.08025 345 75 c 0
 278.458 130.608 231.867 207.773 205.362 290.342 c 0
 178.858 372.911 170.395 460.293 169 547 c 0
 167.06 667.542 176.492 788.76 204.123 906.108 c 0
 231.754 1023.46 282.281 1137.36 364 1226 c 0
  Spiro
    364 1226 o
    940 1431 o
    1030 1425 v
    1018 1277 v
    826 1279 o
    482 1126 o
    342 651 o
    337 581 v
    267 604 v
    344 782 o
    688 932 o
    1021 786 o
    1126 455 o
    966 99 o
    635 -25 o
    345 75 o
    169 547 o
    0 0 z
  EndSpiro
EndSplineSet
Validated: 37
EndChar

StartChar: seven
Encoding: 55 55 61
Width: 1300
VWidth: 0
InSpiro: 1
Flags: W
HStem: 0 21G<307.999 516.09> 1261 160<130.999 1025>
VStem: 307.999 198<0 198>
LayerCount: 2
Fore
SplineSet
1169 1421 m 1
 1169 1314 l 1
 505.999 0 l 1
 307.999 0 l 1
 1025 1386 l 1
 1071 1261 l 1
 130.999 1261 l 1
 130.999 1421 l 1
 1169 1421 l 1
  Spiro
    1169 1421 v
    1169 1314 v
    505.999 0 v
    307.999 0 v
    1025 1386 v
    1071 1261 v
    130.999 1261 v
    130.999 1421 v
    0 0 z
  EndSpiro
EndSplineSet
Validated: 5
EndChar

StartChar: five
Encoding: 53 53 62
Width: 1300
VWidth: 2097
InSpiro: 1
Flags: HW
HStem: -19 154<206.198 782.567> 15 151<201.95 665.316> 741 142<399.47 785.322> 1271 150<397.988 1090.98>
VStem: 234.988 164<883 1271> 956.985 179.995<288.134 587.018>
CounterMasks: 1 b0
LayerCount: 2
Fore
SplineSet
234.988 1421 m 1xbc
 1090.98 1421 l 1
 1090.98 1271 l 1
 397.988 1271 l 1
 398.988 883 l 1
 447.503 888.446 496.212 892.224 545 894 c 0
 617.602 896.643 690.72 895.106 762.215 882.202 c 0
 833.711 869.298 903.668 843.947 962.985 802 c 0
 1020.09 761.616 1066.39 706.165 1096.08 642.837 c 0
 1125.77 579.51 1139.24 508.906 1136.98 439 c 0
 1132.89 312.155 1074.56 187.146 976.985 106 c 0
 910.829 50.9853 829.088 16.7696 744.887 -0.934652 c 0
 660.686 -18.639 573.995 -21.4775 487.988 -19 c 0xbc
 411.968 -16.8102 336.07 -10.3026 260.779 0.423854 c 0
 231.409 4.60812 202.134 9.46568 172.988 15 c 1
 204.988 166 l 1x7c
 230.803 160.547 256.778 155.853 282.866 151.904 c 0
 344.164 142.625 406.035 137.309 467.988 135 c 0
 531.828 132.62 596.067 133.173 659.177 143.088 c 0
 722.287 153.003 784.674 173.329 836.985 210 c 0
 878.675 239.225 913.37 278.826 934.804 325.007 c 0
 956.238 371.189 964.113 423.588 956.985 474 c 0
 947.859 538.542 914.116 598.719 866.025 642.721 c 0
 817.933 686.723 756.585 714.651 693 729 c 0
 618.193 745.882 540.565 745.342 464 741 c 0
 387.456 736.659 311.15 728.791 234.988 720 c 1
 234.988 1421 l 1xbc
  Spiro
    234.988 1421 v
    1090.98 1421 v
    1090.98 1271 v
    397.988 1271 v
    398.988 883 v
    545 894 o
    962.985 802 o
    1136.98 439 o
    976.985 106 o
    487.988 -19 o
    260.779 0.423854 o
    172.988 15 v
    204.988 166 v
    282.866 151.904 o
    467.988 135 o
    836.985 210 o
    956.985 474 o
    693 729 o
    464 741 o
    234.988 720 v
    0 0 z
  EndSpiro
EndSplineSet
Validated: 33
EndChar

StartChar: two
Encoding: 50 50 63
Width: 1300
VWidth: 0
InSpiro: 1
Flags: HW
HStem: 0 150<404 1132> 1284 147<383.656 789.909>
DStem2: 332.894 1375.54 398.827 1244.22 0.951678 0.307097<-145.739 280.553> 642 696 717 558 0.754215 0.656627<-343.153 414.513>
LayerCount: 2
Fore
SplineSet
634 1431 m 0
 701.023 1431.72 768.464 1423.65 832.251 1403.06 c 0
 896.039 1382.48 956.177 1348.96 1004 1302 c 0
 1039.94 1266.71 1068.66 1223.87 1086.2 1176.65 c 0
 1103.74 1129.43 1109.84 1078.03 1104 1028 c 0
 1095.72 957.02 1063.48 890.291 1019.82 833.72 c 0
 976.157 777.149 921.96 729.675 867 684 c 0
 816.775 642.26 765.623 601.595 717 558 c 0
 636.417 485.75 562.764 404.758 507 312 c 0
 457.598 229.824 422.275 139.126 404 45 c 1
 379 150 l 1
 1132 150 l 1
 1132 0 l 1
 225 0 l 1
 225 93 l 1
 271.069 237.051 345.862 371.434 441 489 c 0
 501.572 563.851 569.82 632.27 642 696 c 0
 698.442 745.834 758.94 790.875 816 840 c 0
 839.552 860.277 862.255 881.775 881.258 906.367 c 0
 900.261 930.959 915.349 958.878 923 989 c 0
 932.151 1025.03 930.157 1063.7 917.912 1098.8 c 0
 905.667 1133.9 883.802 1165.24 857 1191 c 0
 822.815 1223.86 780.787 1248.14 735.972 1263.63 c 0
 691.157 1279.11 643.389 1285.54 596 1284 c 0
 528.781 1281.82 463.101 1264.02 398.827 1244.22 c 0
 344.657 1227.53 290.878 1209.61 237 1192 c 1
 198 1319 l 1
 241.696 1340.7 286.777 1359.62 332.894 1375.54 c 0
 429.773 1408.99 531.516 1429.89 634 1431 c 0
  Spiro
    634 1431 o
    1004 1302 o
    1104 1028 o
    867 684 o
    717 558 o
    507 312 o
    404 45 v
    379 150 v
    1132 150 v
    1132 0 v
    225 0 v
    225 93 v
    441 489 o
    642 696 o
    816 840 o
    923 989 o
    857 1191 o
    596 1284 o
    398.827 1244.22 o
    237 1192 v
    198 1319 v
    332.894 1375.54 o
    0 0 z
  EndSpiro
EndSplineSet
Validated: 37
EndChar

StartChar: three
Encoding: 51 51 64
Width: 1300
VWidth: 2097
Flags: HW
HStem: -45 158<271.875 749.599> 684 146<472 704.781> 1284 154<354.703 760.246>
VStem: 864 172<957.148 1188.37> 925 173<261.994 533.686>
CounterMasks: 1 e0
LayerCount: 2
Fore
SplineSet
1036 1101 m 4xf0
 1036 951 948 828 818 778 c 5
 1020 724 1098 591 1098 436 c 4
 1098 147 864 -44 547 -45 c 5
 543 -45 l 6
 433 -45 304 -21 176 32 c 5
 224 170 l 5
 399 122 484 113 549 113 c 4
 752 113 925 227 925 399 c 4xe8
 925 513 836 684 492 684 c 4
 485 684 479 684 472 684 c 5
 472 830 l 5
 785 839 864 977 864 1074 c 4
 864 1185 761 1284 586 1284 c 4
 463 1284 338 1237 260 1201 c 5
 205 1336 l 5
 296 1381 446 1438 607 1438 c 4
 855 1438 1036 1294 1036 1101 c 4xf0
EndSplineSet
Validated: 1
EndChar

StartChar: one
Encoding: 49 49 65
Width: 1300
VWidth: 0
InSpiro: 1
Flags: W
HStem: 0 149<292 1120> 1401 20G<544.857 790>
VStem: 626 164<0 1284>
LayerCount: 2
Fore
SplineSet
292 149 m 1
 1120 149 l 1
 1120 0 l 1
 292 0 l 1
 292 149 l 1
  Spiro
    292 149 v
    1120 149 v
    1120 0 v
    292 0 v
    0 0 z
  EndSpiro
594 1421 m 1
 790 1421 l 1
 790 0 l 1
 626 0 l 1
 626 1324 l 1
 694 1284 l 1
 314 1134 l 1
 250 1281 l 1
 594 1421 l 1
  Spiro
    594 1421 v
    790 1421 v
    790 0 v
    626 0 v
    626 1324 v
    694 1284 v
    314 1134 v
    250 1281 v
    0 0 z
  EndSpiro
EndSplineSet
Validated: 5
EndChar

StartChar: zero
Encoding: 48 48 66
Width: 1300
VWidth: 2097
InSpiro: 1
Flags: W
HStem: -20 150<501.61 803.422> 1287 153<494.99 803.285>
VStem: 111.011 168<421.696 1018.71> 1021.01 168<415.64 1011.33>
LayerCount: 2
Fore
SplineSet
663.011 1440 m 0
 741.222 1437.69 818.738 1416.04 887.023 1377.84 c 0
 955.308 1339.63 1014.05 1285.04 1059.01 1221 c 0
 1111.09 1146.81 1144.64 1060.68 1164.24 972.182 c 0
 1183.83 883.685 1190.47 792.629 1189.01 702 c 0
 1187.48 607.302 1177.18 512.41 1152.95 420.853 c 0
 1128.71 329.297 1089.31 240.845 1030.01 167 c 0
 984.059 109.781 926.261 61.8351 860.532 29.1975 c 0
 794.803 -3.44003 721.395 -20.5937 648.011 -20 c 0
 574.021 -19.4014 500.32 -0.768233 434.634 33.2923 c 0
 368.947 67.3528 311.508 116.649 266.011 175 c 0
 208.744 248.448 170.488 335.496 146.734 425.551 c 0
 122.981 515.606 112.653 608.88 111.011 702 c 0
 109.292 799.463 117.039 897.496 140.247 992.171 c 0
 163.455 1086.85 203.512 1178.37 265.011 1254 c 0
 312.89 1312.88 373.554 1361.54 442.196 1393.91 c 0
 510.839 1426.27 587.155 1442.24 663.011 1440 c 0
  Spiro
    1059.01 1221 o
    1189.01 702 o
    1030.01 167 o
    648.011 -20 o
    266.011 175 o
    111.011 702 o
    265.011 1254 o
    663.011 1440 o
    0 0 z
  EndSpiro
645.011 1287 m 0
 589.719 1286.23 535.014 1268.99 488.264 1239.45 c 0
 441.515 1209.92 402.744 1168.62 373.011 1122 c 0
 333.895 1060.66 309.953 990.556 295.938 919.17 c 0
 281.923 847.784 277.369 774.73 279.011 702 c 0
 282.117 564.435 304.377 423.087 375.011 305 c 0
 404.278 256.071 442.721 212.062 490.135 180.398 c 0
 537.549 148.734 593.997 130.164 651.011 130 c 0
 712.388 129.823 773.127 151.102 822.862 187.067 c 0
 872.597 223.033 911.478 272.659 940.011 327 c 0
 999.985 441.219 1019.12 573.007 1021.01 702 c 0
 1022.83 825.913 1008.19 952.593 956.011 1065 c 0
 927.612 1126.18 886.882 1182.49 833.136 1223.25 c 0
 779.391 1264 712.456 1287.94 645.011 1287 c 0
  Spiro
    373.011 1122 o
    279.011 702 o
    375.011 305 o
    651.011 130 o
    940.011 327 o
    1021.01 702 o
    956.011 1065 o
    645.011 1287 o
    0 0 z
  EndSpiro
EndSplineSet
Validated: 33
EndChar

StartChar: four
Encoding: 52 52 67
Width: 1300
VWidth: 0
InSpiro: 1
Flags: W
HStem: 0 21G<768 932> 344 150<316 1180> 1401 20G<682.104 932>
VStem: 768 164<0 1259>
DStem2: 120 456 316 494 0.511218 0.859451<132.858 1021.41>
LayerCount: 2
Fore
SplineSet
694 1421 m 1
 932 1421 l 1
 932 0 l 1
 768 0 l 1
 768 1259 l 1
 316 494 l 1
 1180 494 l 1
 1180 344 l 1
 120 344 l 1
 120 456 l 1
 694 1421 l 1
  Spiro
    694 1421 v
    932 1421 v
    932 0 v
    768 0 v
    768 1259 v
    316 494 v
    1180 494 v
    1180 344 v
    120 344 v
    120 456 v
    0 0 z
  EndSpiro
EndSplineSet
Validated: 5
EndChar

StartChar: period
Encoding: 46 46 68
Width: 570
VWidth: 2097
InSpiro: 1
Flags: W
HStem: 0 210<180 390>
VStem: 180 210<0 210>
LayerCount: 2
Fore
SplineSet
180 210 m 1
 390 210 l 1
 390 0 l 1
 180 0 l 1
 180 210 l 1
  Spiro
    180 210 v
    390 210 v
    390 0 v
    180 0 v
    0 0 z
  EndSpiro
EndSplineSet
Validated: 1
EndChar

StartChar: comma
Encoding: 44 44 69
Width: 570
VWidth: 2097
InSpiro: 1
Flags: HW
HStem: -220 390<200 222>
VStem: 42 180<-220 -40> 200 180<-10 170>
DStem2: 42 -220 222 -220 0.375484 0.926829<67.5872 420.79>
LayerCount: 2
Fore
SplineSet
200 170 m 1xa0
 380 170 l 1xa0
 222 -220 l 1
 42 -220 l 1xc0
 200 170 l 1xa0
  Spiro
    200 170 v
    380 170 v
    222 -220 v
    42 -220 v
    0 0 z
  EndSpiro
EndSplineSet
Validated: 1
EndChar

StartChar: bracketleft
Encoding: 91 91 70
Width: 758
VWidth: 2097
Flags: W
HStem: -410 149<327 708> 1362 149<327 708>
VStem: 250 458<-410 -261 1362 1511> 327 87<-410 -261 1362 1511>
LayerCount: 2
Fore
SplineSet
327 1511 m 5xd0
 708 1511 l 5
 708 1362 l 5xe0
 327 1362 l 5
 327 1511 l 5xd0
327 -261 m 5xd0
 708 -261 l 5
 708 -410 l 5xe0
 327 -410 l 5
 327 -261 l 5xd0
250 1511 m 5
 414 1511 l 5
 414 -410 l 5xd0
 250 -410 l 5
 250 1511 l 5
EndSplineSet
Validated: 5
EndChar

StartChar: bracketright
Encoding: 93 93 71
Width: 758
VWidth: 2097
Flags: W
HStem: -410 149<50 431> 1362 149<50 431>
VStem: 50 458<-410 -261 1362 1511> 344 87<-410 -261 1362 1511>
LayerCount: 2
Fore
SplineSet
50 1511 m 5xe0
 431 1511 l 5
 431 1362 l 5xd0
 50 1362 l 5
 50 1511 l 5xe0
50 -261 m 5xe0
 431 -261 l 5
 431 -410 l 5xd0
 50 -410 l 5
 50 -261 l 5xe0
344 1511 m 5
 508 1511 l 5
 508 -410 l 5xe0
 344 -410 l 5
 344 1511 l 5
EndSplineSet
Validated: 5
EndChar

StartChar: parenleft
Encoding: 40 40 72
Width: 742
VWidth: 2097
InSpiro: 1
Flags: W
VStem: 220 175<225.533 924.438>
LayerCount: 2
Fore
SplineSet
530 1548 m 1
 662 1479 l 1
 576.07 1335.25 507.75 1180.82 461 1020 c 0
 419.001 875.521 395.074 725.459 395 575 c 0
 394.926 424.53 418.73 274.41 461 130 c 0
 507.624 -29.2832 575.922 -182.101 662 -324 c 1
 533 -408 l 1
 440.476 -255.446 363.36 -93.2842 307 76 c 0
 253.432 236.898 220.078 405.419 220 575 c 0
 219.922 744.594 253.142 913.19 307 1074 c 0
 362.568 1239.92 438.59 1398.8 530 1548 c 1
  Spiro
    530 1548 v
    662 1479 v
    461 1020 o
    395 575 o
    461 130 o
    662 -324 v
    533 -408 v
    307 76 o
    220 575 o
    307 1074 o
    0 0 z
  EndSpiro
EndSplineSet
Validated: 33
EndChar

StartChar: parenright
Encoding: 41 41 73
Width: 742
VWidth: 2097
InSpiro: 1
Flags: W
VStem: 347 175<225.533 924.438>
LayerCount: 2
Fore
SplineSet
212 1548 m 1
 303.41 1398.8 379.432 1239.92 435 1074 c 0
 488.858 913.19 522.078 744.594 522 575 c 0
 521.922 405.419 488.568 236.898 435 76 c 0
 378.64 -93.2842 301.524 -255.446 209 -408 c 1
 80 -324 l 1
 166.078 -182.101 234.376 -29.2832 281 130 c 0
 323.27 274.41 347.074 424.53 347 575 c 0
 346.926 725.459 322.999 875.521 281 1020 c 0
 234.25 1180.82 165.93 1335.25 80 1479 c 1
 212 1548 l 1
  Spiro
    212 1548 v
    435 1074 o
    522 575 o
    435 76 o
    209 -408 v
    80 -324 v
    281 130 o
    347 575 o
    281 1020 o
    80 1479 v
    0 0 z
  EndSpiro
EndSplineSet
Validated: 33
EndChar

StartChar: slash
Encoding: 47 47 74
Width: 726
VWidth: 2097
Flags: W
HStem: 1401 20G<529.435 706>
VStem: 40 170<-90 80> 536 170<1251 1421>
DStem2: 40 -90 210 -90 0.311886 0.95012<53.0206 1590.33>
LayerCount: 2
Fore
SplineSet
536 1421 m 5
 706 1421 l 5
 210 -90 l 5
 40 -90 l 5
 536 1421 l 5
EndSplineSet
Validated: 1
EndChar

StartChar: backslash
Encoding: 92 92 75
Width: 726
VWidth: 2097
Flags: W
HStem: 1401 20G<20 196.565>
VStem: 20 170<1251 1421> 516 170<-90 80>
DStem2: 190 1421 20 1421 0.311886 -0.95012<0 1537.31>
LayerCount: 2
Fore
SplineSet
20 1421 m 1
 190 1421 l 1
 686 -90 l 1
 516 -90 l 1
 20 1421 l 1
EndSplineSet
Validated: 1
EndChar

StartChar: plus
Encoding: 43 43 76
Width: 1400
VWidth: 2097
InSpiro: 1
Flags: W
HStem: 589 138<125 1275>
VStem: 626 148<83 1233>
LayerCount: 2
Fore
SplineSet
626 1233 m 1
 774 1233 l 1
 774 83 l 1
 626 83 l 1
 626 1233 l 1
  Spiro
    626 1233 v
    774 1233 v
    774 83 v
    626 83 v
    0 0 z
  EndSpiro
125 727 m 1
 1275 727 l 1
 1275 589 l 1
 125 589 l 1
 125 727 l 1
  Spiro
    125 727 v
    1275 727 v
    1275 589 v
    125 589 v
    0 0 z
  EndSpiro
EndSplineSet
Validated: 5
EndChar

StartChar: asterisk
Encoding: 42 42 77
Width: 1196
VWidth: 2097
InSpiro: 1
Flags: HW
HStem: 1400 20G<513 683>
LayerCount: 2
Fore
SplineSet
931 1277 m 1
 1016 1129 l 1
 628 934 l 1
 265 695 l 1
 180 843 l 1
 568 1038 l 1
 931 1277 l 1
  Spiro
    931 1277 v
    1016 1129 v
    628 934 v
    265 695 v
    180 843 v
    568 1038 v
    0 0 z
  EndSpiro
180 1129 m 1
 265 1277 l 1
 628 1038 l 1
 1016 843 l 1
 931 695 l 1
 568 934 l 1
 180 1129 l 1
  Spiro
    180 1129 v
    265 1277 v
    628 1038 v
    1016 843 v
    931 695 v
    568 934 v
    0 0 z
  EndSpiro
513 1420 m 1
 683 1420 l 1
 658 986 l 1
 683 552 l 1
 513 552 l 1
 538 986 l 1
 513 1420 l 1
  Spiro
    513 1420 v
    683 1420 v
    658 986 v
    683 552 v
    513 552 v
    538 986 v
    0 0 z
  EndSpiro
EndSplineSet
Validated: 5
EndChar

StartChar: numbersign
Encoding: 35 35 78
Width: 1402
VWidth: 2097
Flags: W
HStem: 378 150<47 1357> 880 150<45 1357> 1401 20G<363 523 881 1041>
VStem: 363 160<-30 1421> 881 160<-30 1421>
LayerCount: 2
Fore
SplineSet
45 1030 m 25
 1357 1030 l 25
 1357 880 l 25
 45 880 l 25
 45 1030 l 25
47 528 m 25
 1357 528 l 25
 1357 378 l 25
 47 378 l 25
 47 528 l 25
881 1421 m 1
 1041 1421 l 1
 1041 -30 l 1
 881 -30 l 1
 881 1421 l 1
363 1421 m 1
 523 1421 l 1
 523 -30 l 1
 363 -30 l 1
 363 1421 l 1
EndSplineSet
Validated: 5
EndChar

StartChar: dollar
Encoding: 36 36 79
Width: 1200
VWidth: 2097
Flags: W
HStem: 225 66<552 673> 1123 128<411.147 907.305> 1182 69<552 673> 1491 20G<552 673>
VStem: 251 170<902.393 1066.94> 552 121<-65 291 1182 1511> 814 179<412.179 590.123>
CounterMasks: 1 b0
LayerCount: 2
Fore
SplineSet
552 291 m 21x9e
 673 291 l 13
 673 -65 l 29
 552 -65 l 29
 552 291 l 21x9e
552 1511 m 29
 673 1511 l 29
 673 1182 l 29
 552 1182 l 29xbe
 552 1511 l 29
687 1251 m 4xde
 815 1251 867 1232 938 1211 c 5
 896 1086 l 5
 831 1104 760 1123 660 1123 c 4
 452 1123 421 1021 421 977 c 4
 421 800 993 842 993 534 c 4
 993 410 914 225 563 225 c 4
 489 225 371 241 227 300 c 5
 273 424 l 5
 399 371 464 354 550 354 c 4
 695 354 814 386 814 515 c 4
 814 704 251 629 251 960 c 4
 251 1071 342 1251 687 1251 c 4xde
EndSplineSet
Validated: 5
EndChar

StartChar: semicolon
Encoding: 59 59 80
Width: 570
VWidth: 2097
InSpiro: 1
Flags: W
HStem: 783 210<180 390>
VStem: 42 180<-220 -40> 180 210<783 993> 200 180<-10 170>
DStem2: 42 -220 222 -220 0.375484 0.926829<67.5872 420.79>
LayerCount: 2
Fore
SplineSet
200 170 m 1x90
 380 170 l 1x90
 222 -220 l 1
 42 -220 l 1xc0
 200 170 l 1x90
  Spiro
    200 170 v
    380 170 v
    222 -220 v
    42 -220 v
    0 0 z
  EndSpiro
180 993 m 1xa0
 390 993 l 1
 390 783 l 1
 180 783 l 1
 180 993 l 1xa0
  Spiro
    180 993 v
    390 993 v
    390 783 v
    180 783 v
    0 0 z
  EndSpiro
-837 840 m 0
  Spiro
    -837 840 {
    0 0 z
  EndSpiro
EndSplineSet
Validated: 1
EndChar

StartChar: colon
Encoding: 58 58 81
Width: 570
VWidth: 2097
InSpiro: 1
Flags: W
HStem: 0 210<180 390> 783 210<180 390>
VStem: 180 210<0 210 783 993>
LayerCount: 2
Fore
SplineSet
180 993 m 1
 390 993 l 1
 390 783 l 1
 180 783 l 1
 180 993 l 1
  Spiro
    180 993 v
    390 993 v
    390 783 v
    180 783 v
    0 0 z
  EndSpiro
180 210 m 1
 390 210 l 1
 390 0 l 1
 180 0 l 1
 180 210 l 1
  Spiro
    180 210 v
    390 210 v
    390 0 v
    180 0 v
    0 0 z
  EndSpiro
EndSplineSet
Validated: 1
EndChar

StartChar: equal
Encoding: 61 61 82
Width: 1400
VWidth: 2097
InSpiro: 1
Flags: W
HStem: 351 150<220 1180> 804 150<220 1180>
LayerCount: 2
Fore
SplineSet
220 501 m 1
 1180 501 l 1
 1180 351 l 1
 220 351 l 1
 220 501 l 1
  Spiro
    220 501 v
    1180 501 v
    1180 351 v
    220 351 v
    0 0 z
  EndSpiro
220 954 m 1
 1180 954 l 1
 1180 804 l 1
 220 804 l 1
 220 954 l 1
  Spiro
    220 954 v
    1180 954 v
    1180 804 v
    220 804 v
    0 0 z
  EndSpiro
EndSplineSet
Validated: 1
EndChar

StartChar: quotedbl
Encoding: 34 34 83
Width: 795
VWidth: 2097
InSpiro: 1
Flags: W
HStem: 1083 428<110 295 500 685>
VStem: 110 185<1083 1511> 500 185<1083 1511>
LayerCount: 2
Fore
SplineSet
500 1511 m 1
 685 1511 l 1
 685 1083 l 1
 500 1083 l 1
 500 1511 l 1
  Spiro
    500 1511 v
    685 1511 v
    685 1083 v
    500 1083 v
    0 0 z
  EndSpiro
110 1511 m 1
 295 1511 l 1
 295 1083 l 1
 110 1083 l 1
 110 1511 l 1
  Spiro
    110 1511 v
    295 1511 v
    295 1083 v
    110 1083 v
    0 0 z
  EndSpiro
EndSplineSet
Validated: 1
EndChar

StartChar: quotesingle
Encoding: 39 39 84
Width: 405
VWidth: 2097
InSpiro: 1
Flags: W
HStem: 1083 428<110 295>
VStem: 110 185<1083 1511>
LayerCount: 2
Fore
SplineSet
110 1511 m 5
 295 1511 l 5
 295 1083 l 5
 110 1083 l 5
 110 1511 l 5
  Spiro
    110 1511 v
    295 1511 v
    295 1083 v
    110 1083 v
    0 0 z
  EndSpiro
EndSplineSet
Validated: 1
EndChar

StartChar: underscore
Encoding: 95 95 85
Width: 1160
VWidth: 2097
Flags: W
HStem: 0 150<150 1010>
LayerCount: 2
Fore
SplineSet
150 150 m 1
 1010 150 l 1
 1010 0 l 1
 150 0 l 1
 150 150 l 1
EndSplineSet
Validated: 1
EndChar

StartChar: percent
Encoding: 37 37 86
Width: 1329
VWidth: 2097
Flags: W
HStem: 0 21G<85 268.638> 56 93<892.81 1076.76> 537 96<889.364 1078.72> 806 94<235.831 420.136> 1268 95<232.584 421.384> 1401 20G<1040.36 1224>
VStem: 85 170<0 170> 98 98<939.784 1232.01> 457 97<937.478 1233.05> 747 97<198.627 491.906> 1054 170<1251 1421> 1125 98<195.794 493.88>
DStem2: 85 0 255 0 0.563391 0.82619<95.7765 1719.94>
LayerCount: 2
Fore
SplineSet
1054 1421 m 1xfee0
 1224 1421 l 1
 255 0 l 1
 85 0 l 1
 1054 1421 l 1xfee0
985 633 m 0
 1069 633 1223 585 1223 351 c 0xfcd0
 1223 169 1111 56 984 56 c 0
 869 56 747 132 747 352 c 0
 747 536 871 633 985 633 c 0
984 537 m 0
 925 536 844 492 844 353 c 0
 844 188 933 149 985 149 c 0
 1041 149 1125 192 1125 348 c 0
 1125 500 1038 537 984 537 c 0
327 1363 m 0
 411 1363 554 1326 554 1092 c 0
 554 910 453 806 326 806 c 0
 211 806 98 873 98 1093 c 0xfdc0
 98 1277 213 1363 327 1363 c 0
326 1268 m 0
 267 1267 196 1233 196 1094 c 0
 196 929 275 900 327 900 c 0
 383 900 457 933 457 1089 c 0
 457 1241 380 1268 326 1268 c 0
EndSplineSet
EndChar

StartChar: braceright
Encoding: 125 125 87
Width: 798
VWidth: 2097
InSpiro: 1
Flags: HW
HStem: -411 129<82.666 167.669> 1383 129<82.666 167.544>
DStem2: 305 65 451 7 0.108157 0.994134<-243.131 333.956> 451 1081 307 1021 0.0652583 -0.997868<-184.819 332.077>
LayerCount: 2
Fore
SplineSet
334 1389 m 4
 270.749 1459.3 180.293 1504.85 86 1512 c 5
 56 1383 l 5
 131.389 1372.59 200.265 1326.64 242 1263 c 4
 288.337 1192.34 301.105 1105.29 307 1021 c 4
 311.071 962.784 313.043 904.295 322.178 846.657 c 4
 331.313 789.02 347.824 732.105 376 681 c 4
 401.413 634.906 436.226 593.849 478.477 562.458 c 4
 520.728 531.068 570.221 509.457 622 500 c 5
 622 600 l 5
 570.33 590.599 520.92 569.125 478.678 537.92 c 4
 436.435 506.714 401.552 465.884 376 420 c 4
 346.368 366.79 329.463 307.229 320.356 247.009 c 4
 311.25 186.788 309.694 125.724 305 65 c 4
 298.881 -14.1543 285.27 -95.4375 242 -162 c 4
 200.494 -225.849 131.486 -271.942 56 -282 c 5
 86 -411 l 5
 180.161 -403.2 270.391 -357.864 334 -288 c 4
 370.256 -248.178 398.006 -200.895 416.855 -150.446 c 4
 435.706 -99.999 445.588 -46.582 451 7 c 4
 456.72 63.6221 457.661 120.675 464.384 177.187 c 4
 471.107 233.698 484.406 290.227 512 340 c 4
 532.207 376.45 559.932 408.87 593.636 433.387 c 4
 627.339 457.903 666.846 474.416 708 481 c 5
 708 619 l 5
 666.829 625.924 627.368 642.679 593.688 667.349 c 4
 560.007 692.02 532.279 724.507 512 761 c 4
 485.398 808.871 471.821 862.999 464.646 917.293 c 4
 457.472 971.587 456.036 1026.47 451 1081 c 4
 445.856 1136.69 436.702 1192.33 418.081 1245.07 c 4
 399.461 1297.8 371.407 1347.43 334 1389 c 4
  Spiro
    334 1389 o
    86 1512 v
    56 1383 v
    242 1263 o
    307 1021 o
    376 681 o
    622 500 v
    622 600 v
    376 420 o
    305 65 o
    242 -162 o
    56 -282 v
    86 -411 v
    334 -288 o
    451 7 o
    512 340 o
    708 481 v
    708 619 v
    512 761 o
    451 1081 o
    0 0 z
  EndSpiro
EndSplineSet
EndChar

StartChar: asciitilde
Encoding: 126 126 88
Width: 1400
VWidth: 2097
InSpiro: 1
Flags: W
HStem: 1239 123<792.142 942.209> 1418 123<497.791 647.858>
DStem2: 356 1254 464 1237 0.196116 0.980581<4.51067 194.67> 709 1483 640 1381 0.760319 -0.64955<-84.3683 224.414> 966 1491 1067 1441 0.196116 0.980581<-137.208 52.9514>
LayerCount: 2
Fore
SplineSet
976 1543 m 1
 1084 1526 l 1
 1067 1441 l 2
 1062.16 1416.78 1057.19 1392.51 1049.16 1369.15 c 0
 1041.14 1345.8 1030 1323.36 1014.78 1303.92 c 0
 999.557 1284.47 980.261 1268.14 958.258 1256.93 c 0
 936.255 1245.71 911.687 1239.69 887 1239 c 0
 858.746 1238.21 830.538 1244.32 804.305 1254.85 c 0
 778.073 1265.37 753.669 1280.12 731 1297 c 0
 697.855 1321.68 670.084 1352.67 640 1381 c 0
 629.343 1391.04 617.988 1400.51 605.092 1407.44 c 0
 592.196 1414.37 577.629 1418.54 563 1418 c 0
 548.766 1417.47 534.786 1412.41 523.333 1403.94 c 0
 511.88 1395.47 503.004 1383.84 496.553 1371.14 c 0
 483.651 1345.74 479.38 1316.97 474 1289 c 2
 464 1237 l 1
 356 1254 l 1
 373 1339 l 2
 377.843 1363.22 382.812 1387.49 390.836 1410.85 c 0
 398.861 1434.2 409.995 1456.64 425.219 1476.08 c 0
 440.443 1495.53 459.739 1511.86 481.742 1523.07 c 0
 503.745 1534.29 528.313 1540.31 553 1541 c 0
 581.254 1541.79 609.462 1535.68 635.695 1525.15 c 0
 661.927 1514.63 686.331 1499.88 709 1483 c 0
 742.145 1458.32 769.916 1427.33 800 1399 c 0
 810.657 1388.96 822.012 1379.49 834.908 1372.56 c 0
 847.804 1365.63 862.371 1361.46 877 1362 c 0
 891.234 1362.53 905.214 1367.59 916.667 1376.06 c 0
 928.12 1384.53 936.996 1396.16 943.447 1408.86 c 0
 956.349 1434.26 960.62 1463.03 966 1491 c 2
 976 1543 l 1
  Spiro
    976 1543 v
    1084 1526 v
    1067 1441 ]
    887 1239 o
    731 1297 o
    640 1381 o
    563 1418 o
    474 1289 [
    464 1237 v
    356 1254 v
    373 1339 ]
    553 1541 o
    709 1483 o
    800 1399 o
    877 1362 o
    966 1491 [
    0 0 z
  EndSpiro
EndSplineSet
Validated: 33
EndChar

StartChar: grave
Encoding: 96 96 89
Width: 1122
VWidth: 2097
Flags: W
HStem: 1168 418
VStem: 274 575
LayerCount: 2
Fore
SplineSet
345 1586 m 29
 849 1276 l 25
 786 1168 l 25
 274 1463 l 25
 345 1586 l 29
EndSplineSet
Validated: 1
EndChar

StartChar: asciicircum
Encoding: 94 94 90
Width: 1479
VWidth: 2097
Flags: W
HStem: 1167 374 1413 20G<667 759.359>
VStem: 443 538
LayerCount: 2
Fore
SplineSet
725 1541 m 29xa0
 981 1255 l 21
 888 1167 l 5xa0
 667 1413 l 5
 778 1433 l 5x60
 531 1168 l 13
 443 1246 l 29
 725 1541 l 29xa0
EndSplineSet
Validated: 5
EndChar

StartChar: ampersand
Encoding: 38 38 91
Width: 1589
VWidth: 2097
InSpiro: 1
Flags: HW
HStem: -45 145<444.348 761.462> 0 21G<1230.63 1453>
VStem: 874 163<1034.27 1243.56> 1250 203<0 203>
DStem2: 633 873 480 795 0.685728 -0.727858<-284.122 639.706>
LayerCount: 2
Fore
SplineSet
702 1440 m 0x70
 763.663 1440.58 826.128 1431.02 882.309 1405.6 c 0
 938.491 1380.18 987.68 1337.28 1015 1282 c 0
 1036.7 1238.09 1044.04 1187.47 1037 1139 c 0
 1025.87 1062.34 980.351 994.556 926.046 939.316 c 0
 871.74 884.076 809.548 837.316 749 789 c 2
 551 631 l 2
 498.329 588.969 444.908 546.366 405.044 492.036 c 0
 365.18 437.706 340.638 369.982 348 303 c 0
 354.326 245.441 384.456 190.999 429.56 154.687 c 0
 474.665 118.374 533.096 100.352 591 100 c 0
 659.967 99.5813 727.571 123.003 787 158 c 0
 865.078 203.98 929.928 268.928 994 333 c 2
 1015 354 l 1
 1060 384 l 1
 1399 754 l 1
 1492 660 l 1
 1164 294 l 1
 1107 252 l 1
 1092 237 l 2
 1028.76 173.759 965.553 109.404 891 60 c 0
 799.061 -0.925473 690.984 -36.7469 581 -45 c 0xb0
 527.934 -48.982 474.064 -46.473 422.447 -33.5274 c 0
 370.83 -20.5819 321.625 3.47858 282 39 c 0
 247.171 70.2227 220.158 109.946 203.152 153.52 c 0
 186.147 197.095 178.933 244.237 180 291 c 0
 182.109 383.444 215.97 473.762 268.763 549.677 c 0
 321.556 625.592 393.825 685.469 467 742 c 2
 722 939 l 2
 757.518 966.439 794.128 993.1 824.005 1026.59 c 0
 838.944 1043.34 851.963 1061.97 860.962 1082.53 c 0
 869.961 1103.09 874.795 1125.57 874 1148 c 0
 873.059 1174.57 864.089 1200.73 848.9 1222.54 c 0
 833.711 1244.36 812.619 1261.8 789 1274 c 0
 741.981 1298.29 685.922 1302.51 634.301 1290.85 c 0
 582.68 1279.19 533.811 1251.29 502 1209 c 0
 482.289 1182.79 469.891 1150.78 469 1118 c 0
 468.313 1092.73 474.387 1067.49 485.134 1044.61 c 0
 495.882 1021.73 511.048 1001.17 527.702 982.147 c 0
 561.01 944.11 598.385 909.852 633 873 c 2
 1453 0 l 1
 1250 0 l 1
 480 795 l 2
 426.434 850.306 372.388 907.041 337.938 975.898 c 0
 303.488 1044.76 291.303 1126.13 313 1200 c 0
 324.494 1239.13 344.843 1275.54 371.488 1306.42 c 0
 398.132 1337.3 430.885 1362.69 466.629 1382.33 c 0
 538.115 1421.63 620.428 1439.23 702 1440 c 0x70
  Spiro
    702 1440 o
    1015 1282 o
    1037 1139 o
    749 789 [
    551 631 ]
    348 303 o
    591 100 o
    787 158 o
    994 333 [
    1015 354 v
    1060 384 v
    1399 754 v
    1492 660 v
    1164 294 v
    1107 252 v
    1092 237 ]
    891 60 o
    581 -45 o
    282 39 o
    180 291 o
    467 742 [
    722 939 ]
    874 1148 o
    789 1274 o
    502 1209 o
    469 1118 o
    633 873 [
    1453 0 v
    1250 0 v
    480 795 ]
    313 1200 o
    0 0 z
  EndSpiro
EndSplineSet
Validated: 37
EndChar

StartChar: less
Encoding: 60 60 92
Width: 1073
VWidth: 2097
InSpiro: 1
Flags: W
HStem: 120 165<808 973> 973 155<818 973>
LayerCount: 2
Fore
SplineSet
973 1128 m 5
 100 698 l 5
 100 533 l 5
 973 120 l 5
 973 285 l 5
 172 670 l 5
 172 570 l 5
 973 973 l 5
 973 1128 l 5
  Spiro
    973 1128 v
    100 698 v
    100 533 v
    973 120 v
    973 285 v
    172 670 v
    172 570 v
    973 973 v
    0 0 z
  EndSpiro
EndSplineSet
Validated: 5
EndChar

StartChar: greater
Encoding: 62 62 93
Width: 1073
VWidth: 2097
Flags: W
HStem: 120 165<100 265> 973 155<100 255>
LayerCount: 2
Fore
SplineSet
100 1128 m 5
 973 698 l 5
 973 533 l 5
 100 120 l 5
 100 285 l 5
 901 670 l 5
 901 570 l 5
 100 973 l 5
 100 1128 l 5
EndSplineSet
Validated: 5
EndChar

StartChar: braceleft
Encoding: 123 123 94
Width: 798
VWidth: 2097
InSpiro: 1
Flags: HW
HStem: -411 129<630.331 715.334> 1383 129<630.456 715.334>
VStem: 90 652
DStem2: 333.354 917.293 475.822 846.657 0.0652583 0.997868<-173.928 342.014> 477.644 247.009 333.616 177.187 0.108157 -0.994134<-143.039 433.795>
LayerCount: 2
Fore
SplineSet
464 1389 m 0
 527.251 1459.3 617.707 1504.85 712 1512 c 1
 742 1383 l 1
 666.611 1372.59 597.735 1326.64 556 1263 c 0
 509.663 1192.34 496.895 1105.29 491 1021 c 0
 486.929 962.784 484.957 904.295 475.822 846.657 c 0
 466.687 789.02 450.176 732.105 422 681 c 0
 396.587 634.906 361.774 593.849 319.523 562.458 c 0
 277.272 531.068 227.779 509.457 176 500 c 1
 176 600 l 1
 227.67 590.599 277.08 569.125 319.322 537.92 c 0
 361.565 506.714 396.448 465.884 422 420 c 0
 451.632 366.79 468.537 307.229 477.644 247.009 c 0
 486.75 186.788 488.306 125.724 493 65 c 0
 499.119 -14.1543 512.73 -95.4375 556 -162 c 0
 597.506 -225.849 666.514 -271.942 742 -282 c 1
 712 -411 l 1
 617.839 -403.2 527.609 -357.864 464 -288 c 0
 427.744 -248.178 399.994 -200.895 381.145 -150.446 c 0
 362.294 -99.999 352.412 -46.582 347 7 c 0
 341.28 63.6221 340.339 120.675 333.616 177.187 c 0
 326.893 233.698 313.594 290.227 286 340 c 0
 265.793 376.45 238.068 408.87 204.364 433.387 c 0
 170.661 457.903 131.154 474.416 90 481 c 1
 90 619 l 1
 131.171 625.924 170.632 642.679 204.312 667.349 c 0
 237.993 692.02 265.721 724.507 286 761 c 0
 312.602 808.871 326.179 862.999 333.354 917.293 c 0
 340.528 971.587 341.964 1026.47 347 1081 c 0
 352.144 1136.69 361.298 1192.33 379.919 1245.07 c 0
 398.539 1297.8 426.593 1347.43 464 1389 c 0
  Spiro
    464 1389 o
    712 1512 v
    742 1383 v
    556 1263 o
    491 1021 o
    422 681 o
    176 500 v
    176 600 v
    422 420 o
    493 65 o
    556 -162 o
    742 -282 v
    712 -411 v
    464 -288 o
    347 7 o
    286 340 o
    90 481 v
    90 619 v
    286 761 o
    347 1081 o
    0 0 z
  EndSpiro
EndSplineSet
Validated: 5
EndChar

StartChar: sterling
Encoding: 163 163 95
Width: 1300
VWidth: 2097
Flags: W
HStem: 0 135<152 396 560 1148> 662 135<220 1090> 1295 136<720.384 1079.81>
VStem: 396 164<135 1143.48>
CounterMasks: 1 e0
LayerCount: 2
Fore
SplineSet
220 797 m 17
 1090 797 l 9
 1090 662 l 25
 220 662 l 25
 220 797 l 17
  Spiro
    220 662 v
    220 797 v
    1090 797 v
    1090 662 v
    0 0 z
  EndSpiro
152 135 m 1
 396 135 l 1
 396 938 l 2
 396 1005 398 1072 418 1136 c 0
 468 1296 634 1431 882 1431 c 0
 964 1431 1045 1416 1117 1393 c 1
 1069 1271 l 1
 1017 1285 960 1295 904 1295 c 0
 849 1295 794 1286 744 1265 c 0
 559 1188 560 1005 560 911 c 0
 560 898 560 885 560 872 c 2
 560 135 l 1
 1148 135 l 1
 1148 0 l 1
 152 0 l 1
 152 135 l 1
EndSplineSet
Validated: 37
EndChar

StartChar: exclamdown
Encoding: 161 161 96
Width: 650
VWidth: 2097
Flags: W
HStem: 1121 200<225 425>
VStem: 225 200<1121 1321> 240 170<-410 863>
LayerCount: 2
Fore
SplineSet
225 1321 m 1xc0
 425 1321 l 1
 425 1121 l 1
 225 1121 l 1
 225 1321 l 1xc0
240 863 m 1xa0
 410 863 l 1
 410 -410 l 1
 240 -410 l 1
 240 863 l 1xa0
EndSplineSet
Validated: 1
EndChar

StartChar: cent
Encoding: 162 162 97
Width: 1021
VWidth: 2097
InSpiro: 1
Flags: HW
HStem: 225 66<543 664> 280 113<735.431 860.075> 1063 120<766.073 870.779> 1182 60<553.277 664> 1491 20G<543 664>
VStem: 150 160<526.334 950.618> 543 121<-65 291 1182 1511>
CounterMasks: 1 98
LayerCount: 2
Fore
SplineSet
543 291 m 17x8e
 664 291 l 9
 664 -65 l 25
 543 -65 l 25
 543 291 l 17x8e
  Spiro
    543 291 v
    664 291 v
    664 -65 v
    543 -65 v
    0 0 z
  EndSpiro
543 1511 m 25
 664 1511 l 25
 664 1182 l 25
 543 1182 l 25x1e
 543 1511 l 25
  Spiro
    543 1511 v
    664 1511 v
    664 1182 v
    543 1182 v
    0 0 z
  EndSpiro
620 1242 m 0
 718.062 1243.47 816.134 1222.27 906 1183 c 1
 866 1063 l 1
 789.035 1089.67 707.387 1104.31 626 1101 c 0
 580.162 1099.14 534.258 1091.06 491.868 1073.52 c 0
 449.479 1055.98 411.028 1028.52 382 993 c 0
 350.39 954.317 330.487 906.96 320.02 858.113 c 0
 309.552 809.266 307.385 758.887 310 709 c 0
 313.371 644.691 325.317 579.617 356 523 c 0
 380.963 476.939 418.623 437.939 463.59 411.055 c 0
 508.557 384.172 559.957 369.022 612 363 c 0
 693.777 353.538 777.52 365.181 855 393 c 1
 895 280 l 1x6e
 805.956 245.057 710.654 225.255 615 225 c 0x8e
 542.994 224.809 470.371 236.265 404.118 264.468 c 0
 337.864 292.67 278.919 338.454 237 397 c 0
 172.746 486.739 150.31 600.63 150 711 c 0
 149.813 777.703 157.187 844.656 175.073 908.916 c 0
 192.959 973.176 222.347 1034.72 265 1086 c 0
 307.67 1137.3 363.282 1177.5 424.822 1203.3 c 0
 486.362 1229.11 553.277 1241 620 1242 c 0
  Spiro
    620 1242 o
    906 1183 v
    866 1063 v
    626 1101 o
    382 993 o
    310 709 o
    356 523 o
    612 363 o
    855 393 v
    895 280 v
    615 225 o
    237 397 o
    150 711 o
    265 1086 o
    0 0 z
  EndSpiro
EndSplineSet
Validated: 37
EndChar

StartChar: currency
Encoding: 164 164 98
Width: 1300
InSpiro: 1
Flags: W
HStem: 396 141<526.855 773.578> 946 141<526.591 773.209>
VStem: 304 146<613.591 869.2>
DStem2: 310 1207 185 1082 0.707107 -0.707107<0 250.027 887.857 1135.61> 186 402 311 277 0.707107 0.707107<0 248.639 887.61 1135.61>
LayerCount: 2
Fore
SplineSet
651 946 m 0
 597.289 946.338 543.982 923.289 506.888 884.443 c 0
 469.794 845.597 449.125 791.705 450 738 c 0
 450.848 685.945 471.891 634.346 508.211 597.045 c 0
 544.531 559.745 595.94 537.406 648 537 c 0
 699.254 536.6 750.224 557.435 786.993 593.145 c 0
 823.762 628.854 846.141 678.825 849 730 c 0
 852.047 784.533 832.809 840.127 796.148 880.612 c 0
 759.488 921.098 705.617 945.656 651 946 c 0
  Spiro
    651 946 o
    450 738 o
    648 537 o
    849 730 o
    0 0 z
  EndSpiro
310 1207 m 1
 477 1040 l 1
 527.706 1069.77 586.205 1086.14 645 1087 c 0
 707.128 1087.91 769.419 1071.46 823 1040 c 1
 989 1205 l 1
 1114 1080 l 1
 948 915 l 1
 977.934 864.004 994.308 805.129 995 746 c 0
 995.723 684.205 979.284 622.296 948 569 c 1
 1113 404 l 1
 988 279 l 1
 823 444 l 1
 769.872 412.228 707.901 395.423 646 396 c 0
 586.857 396.552 527.936 412.938 477 443 c 1
 311 277 l 1
 186 402 l 1
 352 568 l 1
 321.696 618.521 304.961 677.095 304 736 c 0
 302.98 798.571 319.81 861.335 352 915 c 1
 185 1082 l 1
 310 1207 l 1
  Spiro
    310 1207 v
    477 1040 v
    645 1087 o
    823 1040 v
    989 1205 v
    1114 1080 v
    948 915 v
    995 746 o
    948 569 v
    1113 404 v
    988 279 v
    823 444 v
    646 396 o
    477 443 v
    311 277 v
    186 402 v
    352 568 v
    304 736 o
    352 915 v
    185 1082 v
    0 0 z
  EndSpiro
EndSplineSet
Validated: 33
EndChar

StartChar: yen
Encoding: 165 165 99
Width: 1300
VWidth: 2097
Flags: W
HStem: 0 21G<563 723> 249 125<288 1012> 574 125<288 1012> 1401 20G<143 338.7 970.994 1157>
VStem: 143 185<1236 1421> 563 160<0 687> 982 175<1246 1421>
LayerCount: 2
Fore
SplineSet
288 374 m 25
 1012 374 l 25
 1012 249 l 25
 288 249 l 25
 288 374 l 25
288 699 m 17
 1012 699 l 9
 1012 574 l 25
 288 574 l 25
 288 699 l 17
143 1421 m 9
 328 1421 l 17
 672 778 l 9
 632 785 l 17
 982 1421 l 9
 1157 1421 l 25
 723 687 l 25
 723 0 l 25
 563 0 l 25
 563 687 l 17
 143 1421 l 9
EndSplineSet
Validated: 5
EndChar

StartChar: brokenbar
Encoding: 166 166 100
Width: 884
VWidth: 2097
Flags: W
VStem: 360 164<-308 460 837 1601>
LayerCount: 2
Fore
SplineSet
360 460 m 1
 524 460 l 1
 524 -308 l 1
 360 -308 l 1
 360 460 l 1
360 1601 m 1
 524 1601 l 1
 524 837 l 1
 360 837 l 1
 360 1601 l 1
EndSplineSet
Validated: 1
EndChar

StartChar: section
Encoding: 167 167 101
Width: 1136
VWidth: 2097
Flags: HW
HStem: -20 129<256.077 713.883> 1299 135<441.214 889.086>
VStem: 195 179<690.137 864.399 1067.18 1239.04> 786 188<173.231 369.783 555.179 749.204>
LayerCount: 2
Fore
SplineSet
424 870 m 1
 383 837 374 796 374 771 c 0
 374 650 574 619 743 554 c 1
 776 586 787 626 787 662 c 0
 787 788 591 809 424 870 c 1
651 1434 m 0
 787 1434 847 1412.08 922 1391.08 c 1
 877 1260 l 1
 803 1283.3 711 1299 626 1299 c 0
 488 1299 373 1247 374 1147 c 0
 376.05 942.01 975 991 975 682 c 0
 975 618 955 539 891 474 c 1
 941 433 974 380 974 306 c 0
 974 176 890 -20 524 -20 c 0
 451 -20 330 -22 160 45 c 1
 206 169 l 1
 323 128 428 109 510 109 c 0
 661.521 109 786 150 786 286 c 0
 786 501 195 410 195 752 c 0
 195 806 217 881 283 944 c 1
 231 986 196 1044 196 1127 c 0
 196 1249.8 299.712 1434 651 1434 c 0
EndSplineSet
Validated: 33
EndChar

StartChar: copyright
Encoding: 169 169 102
Width: 1760
VWidth: 2097
InSpiro: 1
Flags: W
HStem: -14 132<661.257 1098.74> 319 99<771.117 1066.36> 953 102<763.805 1074.38> 1248 132<661.257 1098.48>
VStem: 170 133<471.591 894.406> 560 116<511.849 865.937> 1457 133<471.591 894.409>
CounterMasks: 2 f0 0e
LayerCount: 2
Fore
SplineSet
877 1380 m 0
 1061.69 1380.78 1246.03 1307.72 1378.68 1179.22 c 0
 1511.34 1050.72 1590.01 867.689 1590 683 c 0
 1589.99 498.817 1511.76 316.279 1379.74 187.85 c 0
 1247.72 59.4209 1064.18 -13.9941 880 -14 c 0
 695.812 -14.0059 512.269 59.4033 380.245 187.835 c 0
 248.221 316.266 169.994 498.812 170 683 c 0
 170.006 866.683 247.799 1048.74 379.188 1177.1 c 0
 510.577 1305.46 693.318 1379.23 877 1380 c 0
  Spiro
    877 1380 o
    1590 683 o
    880 -14 o
    170 683 o
    0 0 z
  EndSpiro
880 1248 m 0
 730.503 1248 581.476 1188.68 474.12 1084.64 c 0
 366.765 980.604 303 832.497 303 683 c 0
 303 533.503 366.765 385.397 474.12 281.357 c 0
 581.476 177.317 730.503 118 880 118 c 0
 1029.5 118 1178.52 177.317 1285.88 281.357 c 0
 1393.23 385.397 1457 533.503 1457 683 c 0
 1457 832.497 1393.23 980.604 1285.88 1084.64 c 0
 1178.52 1188.68 1029.5 1248 880 1248 c 0
  Spiro
    880 1248 o
    303 683 o
    880 118 o
    1457 683 o
    0 0 z
  EndSpiro
899 1055 m 0
 970.33 1056.16 1041.69 1040.7 1107 1012 c 1
 1077 925 l 1
 1021.26 944.592 962.04 955.396 903 953 c 0
 869.831 951.654 836.61 945.747 806.001 932.9 c 0
 775.391 920.054 747.723 899.934 727 874 c 0
 704.542 845.894 690.614 811.639 683.296 776.415 c 0
 675.977 741.19 674.42 704.942 676 669 c 0
 678.062 622.086 685.947 574.459 708 533 c 0
 725.777 499.58 752.988 471.322 785.557 452.028 c 0
 818.125 432.735 855.369 422.102 893 418 c 0
 952.258 411.54 1012.8 420.134 1069 440 c 1
 1099 358 l 1
 1034.33 333.15 965.28 319.081 896 319 c 0
 844.021 318.939 791.604 327.173 743.752 347.476 c 0
 695.902 367.779 653.299 400.765 623 443 c 0
 576.484 507.84 560.316 590.201 560 670 c 0
 559.809 718.136 565.006 766.457 577.732 812.88 c 0
 590.458 859.304 611.431 903.816 642 941 c 0
 672.736 978.387 712.941 1007.74 757.512 1026.61 c 0
 802.082 1045.48 850.607 1054.21 899 1055 c 0
  Spiro
    899 1055 o
    1107 1012 v
    1077 925 v
    903 953 o
    727 874 o
    676 669 o
    708 533 o
    893 418 o
    1069 440 v
    1099 358 v
    896 319 o
    623 443 o
    560 670 o
    642 941 o
    0 0 z
  EndSpiro
EndSplineSet
Validated: 33
EndChar

StartChar: guillemotleft
Encoding: 171 171 103
Width: 936
VWidth: 2097
Flags: W
HStem: 968 20G<315.082 515 686.082 886>
VStem: 330 185<258 443 803 988> 701 185<258 443 803 988>
LayerCount: 2
Fore
SplineSet
329 988 m 5
 515 988 l 5
 226 604 l 5
 226 643 l 5
 515 258 l 5
 330 258 l 5
 75 623 l 5
 329 988 l 5
700 988 m 5
 886 988 l 5
 597 604 l 5
 597 643 l 5
 886 258 l 5
 701 258 l 5
 446 623 l 5
 700 988 l 5
EndSplineSet
Validated: 5
EndChar

StartChar: guillemotright
Encoding: 187 187 104
Width: 936
VWidth: 2097
Flags: W
HStem: 968 20G<50 249.918 421 620.918>
VStem: 50 185<258 443 803 988> 421 185<258 443 803 988>
LayerCount: 2
Fore
SplineSet
607 988 m 1
 861 623 l 1
 606 258 l 1
 421 258 l 1
 710 643 l 1
 710 604 l 1
 421 988 l 1
 607 988 l 1
236 988 m 1
 490 623 l 1
 235 258 l 1
 50 258 l 1
 339 643 l 1
 339 604 l 1
 50 988 l 1
 236 988 l 1
EndSplineSet
Validated: 5
EndChar

StartChar: registered
Encoding: 174 174 105
Width: 1232
VWidth: 2097
InSpiro: 1
Flags: W
HStem: 525 111<430.923 801.07> 984 77<467 724.391> 1240 80<520 722.42> 1450 111<429.668 803.93>
VStem: 90 111<863.274 1222.21> 427 93<776 984 1061 1240> 467 53<984 1061> 733 100<1071.38 1228.75> 1031 111<863.282 1223.24>
CounterMasks: 2 f0 0d80
LayerCount: 2
Fore
SplineSet
614 1450 m 0xf980
 721.94 1450.52 829.718 1407.94 907.326 1332.92 c 0
 984.935 1257.9 1031.01 1150.94 1031 1043 c 0
 1030.99 935.396 985.214 828.77 908.029 753.795 c 0
 830.845 678.82 723.604 636.004 616 636 c 0
 508.393 635.996 401.147 678.808 323.96 753.784 c 0
 246.773 828.76 200.996 935.393 201 1043 c 0
 201.004 1150.27 246.491 1256.58 323.255 1331.51 c 0
 400.019 1406.44 506.73 1449.49 614 1450 c 0xf980
  Spiro
    614 1450 o
    1031 1043 o
    616 636 o
    201 1043 o
    0 0 z
  EndSpiro
616 1561 m 0
 479.336 1561 343.211 1506.22 245.477 1410.7 c 0
 147.742 1315.17 90 1179.66 90 1043 c 0
 90 906.336 147.742 770.825 245.477 675.301 c 0
 343.211 579.776 479.336 525 616 525 c 0
 752.664 525 888.789 579.776 986.523 675.301 c 0
 1084.26 770.825 1142 906.336 1142 1043 c 0
 1142 1179.66 1084.26 1315.17 986.523 1410.7 c 0
 888.789 1506.22 752.664 1561 616 1561 c 0
  Spiro
    616 1561 o
    90 1043 o
    616 525 o
    1142 1043 o
    0 0 z
  EndSpiro
614 1022 m 1
 709 1022 l 1
 833 776 l 1
 733 776 l 1
 614 1022 l 1
  Spiro
    614 1022 v
    709 1022 v
    833 776 v
    733 776 v
    0 0 z
  EndSpiro
427 1316 m 1xfd80
 649 1320 l 2
 668.556 1320.35 688.281 1320.14 707.388 1315.96 c 0
 726.495 1311.78 744.804 1303.97 761 1293 c 0
 781.778 1278.93 799.061 1259.58 810 1237 c 0
 820.511 1215.3 825.151 1191.09 826 1167 c 0
 826.839 1143.18 824.281 1119.14 817.377 1096.33 c 0
 810.473 1073.52 798.714 1051.99 782 1035 c 0
 768.568 1021.34 752.144 1010.78 734.47 1003.39 c 0
 716.797 996.005 697.967 991.674 679 989 c 0
 634.375 982.708 589.066 984 544 984 c 2
 467 984 l 1
 467 1061 l 1xfb80
 553 1061 l 2
 588.368 1061 623.991 1057.98 659 1063 c 0
 678.667 1065.82 698.328 1072.6 713 1086 c 0
 722.487 1094.66 729.627 1105.82 733.774 1117.98 c 0
 737.922 1130.14 739.194 1143.21 738 1156 c 0
 736.574 1171.28 731.633 1186.28 723.242 1199.13 c 0
 714.851 1211.97 702.864 1222.43 689 1229 c 0
 675.527 1235.39 660.587 1238.12 645.715 1239.19 c 0
 630.843 1240.26 615.911 1240 601 1240 c 2
 520 1240 l 1
 520 776 l 1
 427 776 l 1
 427 1316 l 1xfd80
  Spiro
    427 1316 v
    649 1320 ]
    761 1293 o
    810 1237 o
    826 1167 o
    782 1035 o
    679 989 o
    544 984 [
    467 984 v
    467 1061 v
    553 1061 ]
    659 1063 o
    713 1086 o
    738 1156 o
    689 1229 o
    601 1240 [
    520 1240 v
    520 776 v
    427 776 v
    0 0 z
  EndSpiro
EndSplineSet
Validated: 37
EndChar

StartChar: paragraph
Encoding: 182 182 106
Width: 1338
VWidth: 2097
Flags: HW
HStem: 0 21G<566.977 738 978 1148> 681 174<566 647> 1361 150<738 978>
VStem: 130 608<919.468 1328.82> 566 81<681 855> 567 171<0 681> 978 170<0 1361>
LayerCount: 2
Fore
SplineSet
232 1406 m 0xf2
 330 1502 462 1511 610 1511 c 2
 1148 1511 l 1
 1148 0 l 1
 978 0 l 1
 978 1361 l 1
 738 1361 l 1
 738 0 l 1
 567 0 l 1xe6
 566 855 l 1
 647 855 l 1
 647 681 l 1xea
 512 687 449 699 403 714 c 0
 182 785 130 992 130 1133 c 0
 130 1246 166 1341 232 1406 c 0xf2
EndSplineSet
Validated: 5
EndChar

StartChar: periodcentered
Encoding: 183 183 107
Width: 590
VWidth: 2097
Flags: W
HStem: 628 210<190 400>
VStem: 190 210<628 838>
LayerCount: 2
Fore
SplineSet
190 838 m 1
 400 838 l 1
 400 628 l 1
 190 628 l 1
 190 838 l 1
  Spiro
    190 838 v
    400 838 v
    400 628 v
    190 628 v
    0 0 z
  EndSpiro
EndSplineSet
Validated: 1
EndChar

StartChar: questiondown
Encoding: 191 191 108
Width: 1047
VWidth: 2097
Flags: HW
HStem: -141 143<239.799 637.12>
VStem: 354 170<751.537 988> 739 165<97.922 354.727>
LayerCount: 2
Fore
SplineSet
339 1220 m 1
 539 1220 l 1
 539 1420 l 1
 339 1420 l 1
 339 1220 l 1
491 -141 m 0
 666 -141 904 19 904 241 c 0
 904 600 524 492 524 988 c 1
 354 988 l 1
 354 405 739 495 739 225 c 0
 739 110 645 2 465 2 c 0
 408 2 327 9 180 69 c 1
 128 -53 l 1
 238 -105 342 -141 491 -141 c 0
EndSplineSet
Validated: 9
EndChar

StartChar: uni00B5
Encoding: 181 181 109
Width: 1187
VWidth: 2097
InSpiro: 1
Flags: W
HStem: 0 21G<883.478 1007> 968 20G<190 354.037 843 1007>
VStem: 190 164<-410 53.0732 224.114 988> 843 164<164.05 988> 873 134<436.851 520>
LayerCount: 2
Fore
SplineSet
190 988 m 1xf0
 354 988 l 1
 355 452 l 2
 355.071 414.014 355.252 375.889 360.567 338.277 c 0
 365.881 300.665 376.49 263.514 394.908 230.292 c 0
 413.326 197.07 439.625 168.085 471.627 147.622 c 0
 503.629 127.158 540.99 115.484 578.878 112.762 c 0
 640.261 108.353 701.075 126.615 758 150 c 0
 814.562 173.236 869.162 201.007 923 230 c 1
 873 520 l 1xe8
 1007 520 l 1xf0
 1007 0 l 1xe8
 892 0 l 1
 843 115 l 1
 843 988 l 1
 1007 988 l 1
 1007 348 l 2
 1007 316.05 1006.47 283.895 1000.22 252.562 c 0
 993.97 221.23 982.114 190.982 964.926 164.05 c 0
 930.548 110.185 876.734 71.4014 820 42 c 0
 741.661 1.40234 655.231 -27.7139 567 -27 c 0
 489.456 -26.373 411.846 1.42773 354 53.0732 c 1
 354 -410 l 1
 190 -410 l 1
 190 988 l 1xf0
  Spiro
    190 988 v
    354 988 v
    355 452 ]
    578.878 112.762 o
    758 150 o
    923 230 v
    873 520 v
    1007 520 v
    1007 0 v
    892 0 v
    843 115 v
    843 988 v
    1007 988 v
    1007 348 ]
    820 42 o
    567 -27 o
    354 53.0732 v
    354 -410 v
    190 -410 v
    0 0 z
  EndSpiro
EndSplineSet
Validated: 37
EndChar

StartChar: uni00AD
Encoding: 173 173 110
Width: 1074
VWidth: 2097
Flags: HW
HStem: 573 149<220 854>
VStem: 220 634<573 722>
LayerCount: 2
Fore
SplineSet
220 728 m 1
 854 728 l 1
 854 589 l 1
 220 589 l 1
 220 728 l 1
EndSplineSet
EndChar

StartChar: plusminus
Encoding: 177 177 111
Width: 1400
VWidth: 2097
Flags: W
HStem: 150 137<220 1180> 872 137<220 1180> 1401 20G<627 773>
VStem: 627 146<461 1421>
LayerCount: 2
Fore
SplineSet
220 287 m 1
 1180 287 l 1
 1180 150 l 1
 220 150 l 1
 220 287 l 1
627 1421 m 5
 773 1421 l 5
 773 461 l 5
 627 461 l 5
 627 1421 l 5
220 1009 m 5
 1180 1009 l 5
 1180 872 l 5
 220 872 l 5
 220 1009 l 5
EndSplineSet
Validated: 5
EndChar

StartChar: ae
Encoding: 230 230 112
Width: 1674
VWidth: 0
Flags: HW
HStem: -20.1533 131.153<361.199 661.211 1064.48 1451.09> 438 123.016<360.732 724 897 1386> 864.019 142.311<239.463 643.022 1021.97 1290.59>
VStem: 122.999 163.001<178.688 372.95> 724 164.679<276.254 436 561 707.558> 1386.37 157.63<560 757.384>
LayerCount: 2
Fore
SplineSet
186 944 m 5
 311.048 990.652 435.725 1006.06 519 1006 c 4
 683.101 1007.22 786.375 937.046 836 832 c 5
 919.301 932.896 1048.92 1006.33 1190.87 1006.33 c 4
 1473.37 1006.33 1543.65 767.369 1544 501 c 4
 1544.02 464.4 1543.65 448.176 1543 436 c 5
 889 436 l 5
 888.785 431.616 888.679 427.228 888.679 422.842 c 4
 888.679 254.932 1039.64 111.613 1253.23 111.613 c 4
 1332.66 111.613 1415.36 135.157 1459 148 c 5
 1486 36 l 5
 1374.73 -5.20703 1264.15 -19.3105 1190.15 -19.3105 c 4
 1054.59 -19.3105 911.184 22.917 821 131 c 5
 741.021 25.5342 620.156 -20.1533 472.688 -20.1533 c 4
 289.796 -20.1533 123.212 101.172 122.999 265.579 c 4
 122.999 408.162 239.42 528.987 483.157 553.286 c 4
 554.777 560.426 627.204 561.016 663.215 561.016 c 4
 677.429 561.016 703.736 560.781 724 561 c 5
 722.606 574.601 724.634 585.392 724.634 612.981 c 4
 724.634 729.832 675.475 870.062 478.837 870.062 c 4
 428.469 870.062 362.069 863.222 227 826 c 5
 186 944 l 5
1386.37 582.462 m 4
 1386.37 692.294 1341.72 864.019 1163.11 864.019 c 4
 996.39 864.019 904.888 719.422 897 560 c 5
 1386 560 l 5
 1386.25 566.146 1386.37 576.302 1386.37 582.462 c 4
286 274 m 4
 286 183 394 111 506 111 c 4
 594 111 671 151 724 207 c 5
 724 437 l 5
 698 438 674 438 650 438 c 4
 423 438 286 403 286 274 c 4
  Spiro
    286 274 o
    318.088 191.369 o
    399.283 132.995 o
    506 111 o
    589.773 123.42 o
    663.549 157.265 o
    724 207 v
    724 437 v
    698.617 437.703 o
    674.05 437.963 o
    650 438 o
    454.903 424.178 o
    329.84 373.779 o
    0 0 z
  EndSpiro
EndSplineSet
Validated: 33
EndChar

StartChar: germandbls
Encoding: 223 223 113
Width: 1260
VWidth: 2097
Flags: W
HStem: -26.0322 132.14<526.895 924.858> 0 21G<201.961 368> 1283 147.19<456.013 705.36>
VStem: 202 166<0 1191.8> 518.797 163.064<634.73 794.355> 782.298 160.132<997.318 1205.18> 966.59 173.46<147.914 363.271>
LayerCount: 2
Fore
SplineSet
596.46 1430.19 m 0x7e
 828.344 1430.19 942.43 1243.11 942.43 1101.02 c 0
 942.43 866.544 681.861 840 681.861 712.248 c 0
 681.861 523.56 1140.05 622.866 1140.05 260.664 c 0
 1140.05 161.906 1082.62 -26.0322 808.683 -26.0322 c 0xbe
 733.985 -26.0322 618.817 -12.8203 504 21 c 1
 535 137 l 1
 620.939 120.039 704.609 106.108 775.045 106.108 c 0
 887.761 106.108 966.59 141.782 966.59 257.795 c 0
 966.59 502.768 518.797 384.978 518.797 705.365 c 0
 518.797 925.674 782.298 939 782.298 1091.14 c 0
 782.298 1203.73 674.674 1282.72 577.922 1283 c 0
 530.002 1283 365.539 1257.37 366 1022 c 2
 368 0 l 1
 202 0 l 1
 200 1023 l 2
 199.42 1319.78 415.783 1430.19 596.46 1430.19 c 0x7e
  Spiro
    596.46 1430.19 o
    789.062 1376.52 o
    904.34 1249.37 o
    942.43 1101.02 o
    874.991 927.594 o
    749.3 823.747 o
    681.861 712.248 o
    800.447 591.879 o
    1021.46 496.651 o
    1140.05 260.664 o
    1115.07 142.57 o
    1016.2 26.2556 o
    808.683 -26.0324 o
    722.104 -21.3641 o
    617.312 -6.20392 o
    504 21 v
    535 137 v
    619.693 121.466 o
    700.682 110.34 o
    775.045 106.108 o
    874.716 119.625 o
    942.026 166.975 o
    966.59 257.795 o
    850.695 411.419 o
    634.693 501.49 o
    518.797 705.365 o
    586.995 861.467 o
    714.1 956.741 o
    782.298 1091.14 o
    750.871 1190.77 o
    673.818 1258.2 o
    577.922 1283 o
    501.673 1267.68 o
    410.011 1194.16 o
    366 1022 [
    368 0 v
    202 0 v
    200 1023 ]
    262.262 1260.29 o
    413.421 1390.66 o
    0 0 z
  EndSpiro
EndSplineSet
Validated: 33
EndChar

StartChar: multiply
Encoding: 215 215 114
Width: 1299
VWidth: 2097
Flags: W
LayerCount: 2
Fore
SplineSet
1003.29 187 m 1
 190.293 1000 l 1
 295.293 1105 l 1
 1108.29 292 l 1
 1003.29 187 l 1
288.222 194.071 m 1
 182.222 299.071 l 1
 580.383 697.232 l 1
 625.638 714.203 l 1
 1010.36 1098.93 l 1
 1115.36 992.929 l 1
 726.896 604.46 l 1
 685.883 591.732 l 1
 288.222 194.071 l 1
EndSplineSet
Validated: 5
EndChar

StartChar: divide
Encoding: 247 247 115
Width: 1400
VWidth: 2097
Flags: W
HStem: 83 195<602 797> 588 139<125 1275> 1038 195<602 797>
VStem: 602 195<83 278 1038 1233>
LayerCount: 2
Fore
SplineSet
602 1233 m 1
 797 1233 l 1
 797 1038 l 1
 602 1038 l 1
 602 1233 l 1
  Spiro
    602 1233 v
    797 1233 v
    797 1038 v
    602 1038 v
    0 0 z
  EndSpiro
602 278 m 1
 797 278 l 1
 797 83 l 1
 602 83 l 1
 602 278 l 1
  Spiro
    602 278 v
    797 278 v
    797 83 v
    602 83 v
    0 0 z
  EndSpiro
125 727 m 5
 1275 727 l 5
 1275 588 l 1
 125 588 l 1
 125 727 l 5
EndSplineSet
Validated: 1
EndChar

StartChar: oslash
Encoding: 248 248 116
Width: 1211
VWidth: 2097
Flags: W
HStem: -20 140<461.412 767.349> 867 140<447.645 750.28> 975 20G<1021.48 1061.71>
VStem: 130 160<307.781 702.989> 921 160<288.229 680.33>
DStem2: 110 41 168 -15 0.698427 0.715681<0.43061 1333>
LayerCount: 2
Fore
SplineSet
1041 995 m 25xb8
 1099 939 l 25
 168 -15 l 25
 110 41 l 25
 1041 995 l 25xb8
EndSplineSet
Refer: 6 111 N 1 0 0 1 0 0 2
Validated: 5
EndChar

StartChar: OE
Encoding: 338 338 118
Width: 1998
VWidth: 2097
InSpiro: 1
Flags: HW
HStem: 0 150<674.402 973> 1271 150<685.301 1050>
VStem: 215 170<455.704 960.064>
LayerCount: 2
Fore
SplineSet
696 1391 m 0
 815.313 1419.71 939.283 1421 1062 1421 c 2
 1220 1421 l 1
 1220 537 l 1
 1220 0 l 1
 973 0 l 2
 839.256 0 702.151 5.83385 579 58 c 0
 475.681 101.765 385.57 176.546 325 271 c 0
 241.538 401.153 213.483 560.392 215 715 c 0
 215.902 806.945 227.258 899.242 254.752 986.985 c 0
 282.246 1074.73 327.406 1157.59 391 1224 c 0
 472.293 1308.89 581.722 1363.51 696 1391 c 0
  Spiro
    1062 1421 [
    1220 1421 v
    1220 537 v
    1220 0 v
    973 0 ]
    579 58 o
    325 271 o
    215 715 o
    391 1224 o
    696 1391 o
    0 0 z
  EndSpiro
628 1200 m 0
 552.049 1155.96 490.606 1088.35 451 1010 c 0
 407.106 923.164 388.053 825.252 385 728 c 0
 381.223 607.703 402.592 483.912 465 381 c 0
 512.385 302.861 582.831 238.99 665 199 c 0
 704.903 179.58 747.572 165.875 791.309 158.364 c 0
 835.047 150.853 879.622 150 924 150 c 2
 1050 150 l 1
 1050 529 l 1
 1050 1271 l 1
 993 1271 l 2
 930.218 1271 867.151 1270.57 805.144 1260.74 c 0
 743.137 1250.9 682.313 1231.49 628 1200 c 0
  Spiro
    451 1010 o
    385 728 o
    465 381 o
    665 199 o
    924 150 [
    1050 150 v
    1050 529 v
    1050 1271 v
    993 1271 ]
    628 1200 o
    0 0 z
  EndSpiro
1117 657 m 1
 1117 807 l 1
 1783 807 l 1
 1783 657 l 1
 1117 657 l 1
  Spiro
    1117 657 v
    1117 807 v
    1783 807 v
    1783 657 v
    0 0 z
  EndSpiro
1117 0 m 1
 1117 150 l 1
 1838 150 l 1
 1838 0 l 1
 1117 0 l 1
  Spiro
    1117 0 v
    1117 150 v
    1838 150 v
    1838 0 v
    0 0 z
  EndSpiro
1117 1271 m 1
 1117 1421 l 1
 1838 1421 l 1
 1838 1271 l 1
 1117 1271 l 1
  Spiro
    1117 1271 v
    1117 1421 v
    1838 1421 v
    1838 1271 v
    0 0 z
  EndSpiro
EndSplineSet
EndChar

StartChar: oe
Encoding: 339 339 119
Width: 1803
VWidth: 0
Flags: HW
HStem: -22.002 140<448.005 736.853 1173.53 1586.3> 407 124<1026 1516> 854.748 142.346<423.766 732.422 1148.35 1423.97>
VStem: 129.989 159.957<297.19 699.568> 871.024 150.976<266.445 407 531 691.616> 1516.24 156.76<531 753.707>
LayerCount: 2
Fore
SplineSet
1320.78 997.094 m 4
 1593.76 997.094 1652.25 752.66 1662 692 c 4
 1671.96 629.994 1673 567 1673 504 c 6
 1673 407 l 5
 1022 407 l 5
 1026.08 274.501 1135.09 107.979 1379.87 107.979 c 4
 1408.06 107.979 1476.24 109.682 1589 144 c 5
 1616 32 l 5
 1535.79 1.9209 1431.99 -23 1316 -23 c 4
 1098.89 -23 990.71 73.6289 936.961 160.3 c 5
 857.369 43.8965 731.583 -22.002 576.357 -22.002 c 4
 308.933 -22.002 129.989 175.371 129.989 486.251 c 4
 129.989 802.954 315.694 1002 594.252 1002 c 4
 764.554 1002 888.265 927.66 959.666 804.546 c 5
 1071.54 976.343 1243.29 997.094 1320.78 997.094 c 4
1286.51 854.748 m 4
 1113.3 854.748 1028.54 693.456 1026 531 c 5
 1516 531 l 5
 1516.16 537.649 1516.24 544.298 1516.24 550.943 c 4
 1516.24 768.501 1424.35 854.748 1286.51 854.748 c 4
871.024 474.295 m 4
 871.024 748.225 716.615 862 577 862 c 4
 404.123 861.482 289.946 707.027 289.946 502.142 c 4
 289.946 289.714 411.607 117.998 594.099 117.998 c 4
 743.275 117.998 871.024 240.288 871.024 474.295 c 4
EndSplineSet
Validated: 1
EndChar

StartChar: AE
Encoding: 198 198 120
Width: 1915
VWidth: 2097
InSpiro: 1
Flags: W
HStem: 0 150<1137 1755> 413 149<463 967> 657 150<1137 1700> 1271 150<784.048 967 1137 1755>
VStem: 130 162<0 162> 967 170<150 413 562 657 807 1271>
LayerCount: 2
Fore
SplineSet
685 1421 m 1
 1755 1421 l 1
 1755 1271 l 1
 1137 1271 l 1
 1137 807 l 1
 1700 807 l 1
 1700 657 l 1
 1137 657 l 1
 1137 150 l 1
 1755 150 l 1
 1755 0 l 1
 967 0 l 1
 967 413 l 1
 376 414 l 1
 463 562 l 1
 967 562 l 1
 967 1271 l 1
 784.048 1271 l 1
 292 0 l 1
 130 0 l 1
 685 1421 l 1
  Spiro
    685 1421 v
    1755 1421 v
    1755 1271 v
    1137 1271 v
    1137 807 v
    1700 807 v
    1700 657 v
    1137 657 v
    1137 150 v
    1755 150 v
    1755 0 v
    967 0 v
    967 413 v
    376 414 v
    463 562 v
    967 562 v
    967 1271 v
    784.048 1271 v
    292 0 v
    130 0 v
    0 0 z
  EndSpiro
EndSplineSet
Validated: 5
EndChar

StartChar: onequarter
Encoding: 188 188 121
Width: 1770
VWidth: 0
Flags: W
HStem: 0 21G<359 546.541 1415 1548> 195 110<1174 1415 1548 1655> 1401 20G<267.538 453 1168.44 1355>
VStem: 320 133<618 1291> 359 176<0 176> 1180 175<1246 1421> 1415 133<0 195 305 688>
DStem2: 359 0 535 0 0.500267 0.865871<88.0471 1641.12> 1025 284 1174 305 0.552608 0.833441<99.8408 552.227>
LayerCount: 2
Fore
SplineSet
1415 688 m 1xe6
 1174 305 l 1
 1415 305 l 1
 1415 688 l 1xe6
1391 836 m 1
 1548 836 l 1
 1548 305 l 1
 1655 305 l 1
 1655 195 l 1
 1548 195 l 1
 1548 0 l 1
 1415 0 l 1
 1415 195 l 1
 1025 195 l 1
 1025 284 l 1
 1391 836 l 1
341 1421 m 1
 453 1421 l 1
 453 618 l 1
 320 618 l 1
 320 1291 l 1xf6
 180 1252 l 1
 150 1369 l 1
 341 1421 l 1
1180 1421 m 1
 1355 1421 l 1
 535 0 l 1
 359 0 l 1xee
 1180 1421 l 1
EndSplineSet
EndChar

StartChar: onehalf
Encoding: 189 189 122
Width: 1797
VWidth: 0
Flags: W
HStem: -0.300781 115.5<1309.45 1686.95> 728.053 114.268<1208.44 1501.4> 1401 20G<267.538 453 1168.44 1355>
VStem: 320 133<618 1291> 359 176<0 176> 1180 175<1246 1421> 1543.09 143.86<528.726 688.01>
DStem2: 359 0 535 0 0.500267 0.865871<88.0471 1641.12>
LayerCount: 2
Fore
SplineSet
341 1421 m 1xf6
 453 1421 l 1
 453 618 l 1
 320 618 l 1
 320 1291 l 1
 180 1252 l 1
 150 1369 l 1
 341 1421 l 1xf6
1401.38 842.32 m 0
 1552.53 842.596 1672.69 754.849 1672.69 623.663 c 0
 1672.69 421.582 1406.58 357.133 1309.45 115.199 c 1
 1686.95 115.199 l 1
 1686.95 -0.300781 l 1
 1155.65 -0.300781 l 1
 1156.4 71.708 l 1
 1257.88 397.383 1543.09 493.215 1543.09 608.396 c 0
 1543.09 668.884 1475.65 728.053 1383.94 728.053 c 0
 1340.7 728.053 1289.85 716.899 1178.73 672.933 c 1
 1138.07 772.846 l 1
 1201.82 804.25 1290.87 842.112 1401.38 842.32 c 0
1180 1421 m 1
 1355 1421 l 1
 535 0 l 1
 359 0 l 1xee
 1180 1421 l 1
  Spiro
    1180 1421 v
    1355 1421 v
    535 0 v
    359 0 v
    0 0 z
  EndSpiro
EndSplineSet
EndChar

StartChar: threequarters
Encoding: 190 190 123
Width: 1851
VWidth: 0
Flags: W
HStem: 0 21G<450 637.541 1496 1629> 195 110<1255 1496 1629 1736> 601 120<162.234 490.614> 644 112<156.996 349.353> 1002 113<292 467.709> 1332 118<197.906 484.574> 1401 20G<1259.44 1446>
VStem: 450 176<0 176> 508 127<1155.44 1306.55> 541 128<771.789 952.782> 1271 175<1246 1421> 1496 133<0 195 305 688>
DStem2: 140 1385 184 1281 0.906183 0.422885<0 183.977> 450 0 626 0 0.500267 0.865871<88.0471 1641.12> 1106 284 1255 305 0.552608 0.833441<99.8408 552.227>
LayerCount: 2
Fore
SplineSet
541 1073 m 1xec70
 635 1034 669 959 669 882 c 0
 669 714 532 602 350 601 c 1
 347 601 l 2xec70
 284 601 212 615 140 644 c 2
 125 650 l 1
 162 756 l 1xd870
 177 752 l 2
 272 726 316 721 351 721 c 0
 453 721 541 778 541 862 c 0xe870
 541 918 497 1002 320 1002 c 2
 292 1002 l 1
 292 1115 l 1
 309 1115 l 2
 468 1119 508 1186 508 1233 c 0
 508 1283 460 1332 371 1332 c 0
 302 1332 234 1304 199 1288 c 2
 184 1281 l 1
 140 1385 l 1
 154 1392 l 2
 206 1417 292 1450 383 1450 c 0
 526 1450 635 1365 635 1248 c 0xecb0
 635 1174 598 1110 541 1073 c 1xec70
1496 688 m 1
 1255 305 l 1
 1496 305 l 1
 1496 688 l 1
1472 836 m 1
 1629 836 l 1
 1629 305 l 1
 1736 305 l 1
 1736 195 l 1
 1629 195 l 1
 1629 0 l 1
 1496 0 l 1
 1496 195 l 1
 1106 195 l 1
 1106 284 l 1
 1472 836 l 1
1271 1421 m 1xcb30
 1446 1421 l 1
 626 0 l 1
 450 0 l 1
 1271 1421 l 1xcb30
EndSplineSet
EndChar

StartChar: degree
Encoding: 176 176 124
Width: 589
Flags: W
HStem: 1010 91<199.679 388.932> 1368 91<198.559 388.31>
VStem: 75 90<1134.96 1333.49> 422 92<1135.17 1334.43>
LayerCount: 2
Fore
SplineSet
294 1459 m 0
 413 1459 514 1360 514 1235 c 0
 514 1110 415 1010 295 1010 c 0
 176 1010 75 1109 75 1235 c 0
 75 1359 174 1459 294 1459 c 0
295 1368 m 0
 220 1368 165 1306 165 1235 c 0
 165 1166 217 1101 295 1101 c 0
 369 1101 422 1166 422 1235 c 0
 422 1304 369 1368 295 1368 c 0
EndSplineSet
Validated: 1
EndChar

StartChar: cedilla
Encoding: 184 184 126
Width: 1101
VWidth: 0
InSpiro: 1
Flags: W
HStem: -494 516
VStem: 547 127<-105 22>
DStem2: 412 -355 386 -446 0.963027 -0.269405<0 270.019>
LayerCount: 2
Fore
SplineSet
547 22 m 1
 674 22 l 1
 629 -156 l 1
 610 -128 l 1
 660 -143 l 2
 685.824 -150.747 711.742 -159.082 734.984 -172.749 c 0
 758.225 -186.415 778.572 -205.224 793 -228 c 0
 806.751 -249.708 815.089 -274.793 817.219 -300.401 c 0
 819.349 -326.009 815.332 -352.058 806 -376 c 0
 793.694 -407.571 772.152 -435.381 745.062 -455.737 c 0
 717.974 -476.093 685.494 -488.867 652 -494 c 0
 612.934 -499.986 572.919 -495.792 534.28 -487.481 c 0
 495.641 -479.171 457.89 -467.24 420 -456 c 0
 408.674 -452.64 397.342 -449.304 386 -446 c 1
 412 -355 l 1
 421.986 -358.045 431.987 -361.045 442 -364 c 0
 471.826 -372.801 501.723 -381.396 531.922 -388.816 c 0
 562.121 -396.237 592.915 -402.868 624 -402 c 0
 642.509 -401.483 661.214 -397.964 677.566 -389.278 c 0
 693.918 -380.591 707.594 -366.373 714 -349 c 0
 718.378 -337.127 719.314 -324.021 716.748 -311.63 c 0
 714.182 -299.238 708.18 -287.655 700 -278 c 0
 689.388 -265.475 675.311 -256.257 660.402 -249.384 c 0
 645.493 -242.512 629.707 -237.775 614 -233 c 2
 489 -195 l 1
 547 22 l 1
  Spiro
    547 22 v
    674 22 v
    629 -156 v
    610 -128 v
    660 -143 ]
    793 -228 o
    806 -376 o
    652 -494 o
    420 -456 o
    386 -446 v
    412 -355 v
    442 -364 o
    624 -402 o
    714 -349 o
    700 -278 o
    614 -233 [
    489 -195 v
    0 0 z
  EndSpiro
EndSplineSet
Validated: 37
EndChar

StartChar: Ccedilla
Encoding: 199 199 127
Width: 1451
VWidth: 0
Flags: W
HStem: 1281 150<765.317 1249.05>
VStem: 275 170<480.584 940.018> 772.5 144<-118.706 25.2939> 944.506 112.464<-390 -261.348>
DStem2: 638.5 -348.706 608.5 -452.706 0.963095 -0.269163<0 276.76> 1223 1402 1162 1259 0.964784 -0.263044<-255.844 143.036>
LayerCount: 2
Fore
SplineSet
772.5 25.2939 m 1
 916.5 19.2939 l 1
 871.5 -158.706 l 1
 843.5 -124.706 l 1
 893.5 -139.706 l 2
 920.172 -147.708 946.945 -156.258 971.054 -170.193 c 0
 995.162 -184.129 1016.39 -203.313 1031.5 -226.706 c 0
 1045.92 -249.043 1054.7 -274.97 1056.97 -301.462 c 0
 1059.25 -327.954 1055.11 -354.913 1045.5 -379.706 c 0
 1033.18 -411.489 1011.9 -439.658 985.087 -460.698 c 0
 958.27 -481.739 926.021 -495.522 892.5 -501.706 c 0
 850.614 -509.433 807.326 -505.434 765.654 -496.627 c 0
 723.982 -487.821 683.33 -474.83 642.5 -462.706 c 0
 631.176 -459.343 619.843 -456.007 608.5 -452.706 c 1
 638.5 -348.706 l 1
 648.485 -351.755 658.485 -354.754 668.5 -357.706 c 0
 699.518 -366.849 730.618 -375.734 761.948 -383.741 c 0
 793.278 -391.748 825.172 -399.482 857.5 -398.706 c 0
 874.349 -398.302 891.374 -395.23 906.381 -387.561 c 0
 921.388 -379.89 934.117 -367.304 940.5 -351.706 c 0
 944.769 -341.276 946.157 -329.691 944.506 -318.544 c 0
 942.854 -307.396 938.203 -296.765 931.5 -287.706 c 0
 921.828 -274.634 908.109 -264.99 893.432 -257.99 c 0
 878.754 -250.991 863.079 -246.368 847.5 -241.706 c 2
 710.5 -200.706 l 1
 772.5 25.2939 l 1
  Spiro
    772.5 25.294 v
    916.5 19.294 v
    871.5 -158.706 v
    843.5 -124.706 v
    893.5 -139.706 ]
    1031.5 -226.706 o
    1045.5 -379.706 o
    892.5 -501.706 o
    642.5 -462.706 o
    608.5 -452.706 v
    638.5 -348.706 v
    668.5 -357.706 o
    857.5 -398.706 o
    940.5 -351.706 o
    931.5 -287.706 o
    847.5 -241.706 [
    710.5 -200.706 v
    0 0 z
  EndSpiro
EndSplineSet
Refer: 54 67 N 1 0 0 1 0 0 3
Validated: 37
EndChar

StartChar: dieresis
Encoding: 168 168 128
Width: 1200
VWidth: 0
Flags: W
HStem: 1235 185<283 468 732 917>
VStem: 283 185<1235 1420> 732 185<1235 1420>
LayerCount: 2
Fore
SplineSet
283 1420 m 5
 468 1420 l 5
 468 1235 l 5
 283 1235 l 5
 283 1420 l 5
732 1420 m 5
 917 1420 l 5
 917 1235 l 5
 732 1235 l 5
 732 1420 l 5
EndSplineSet
Validated: 1
EndChar

StartChar: Idieresis
Encoding: 207 207 131
Width: 670
VWidth: 0
Flags: W
HStem: 0 21G<290 460> 1401 20G<290 460> 1639 185<88 273 477 662>
VStem: 88 185<1639 1824> 290 170<0 1421> 477 185<1639 1824>
CounterMasks: 1 1c
LayerCount: 2
Fore
SplineSet
290 1421 m 1
 460 1421 l 1
 460 0 l 1
 290 0 l 1
 290 1421 l 1
88 1824 m 1
 273 1824 l 1
 273 1639 l 1
 88 1639 l 1
 88 1824 l 1
477 1824 m 5
 662 1824 l 5
 662 1639 l 5
 477 1639 l 5
 477 1824 l 5
EndSplineSet
Validated: 1
EndChar

StartChar: idieresis
Encoding: 239 239 136
Width: 524
VWidth: 0
Flags: W
HStem: 0 21<180 344> 968 20<180 344> 1236 185<-15 170 354 539>
VStem: -15 185<1236 1421> 180 164<0 988> 354 185<1236 1421>
CounterMasks: 1 1c
LayerCount: 2
Fore
SplineSet
-15 1421 m 5
 170 1421 l 5
 170 1236 l 5
 -15 1236 l 5
 -15 1421 l 5
354 1421 m 5
 539 1421 l 5
 539 1236 l 5
 354 1236 l 5
 354 1421 l 5
EndSplineSet
Refer: 140 305 N 1 0 0 1 0 0 3
Validated: 1
EndChar

StartChar: dotlessi
Encoding: 305 305 140
Width: 524
VWidth: 2097
Flags: W
HStem: 0 21G<180 344> 968 20G<180 344>
VStem: 180 164<0 988>
LayerCount: 2
Fore
SplineSet
180 988 m 1
 344 988 l 1
 344 0 l 1
 180 0 l 1
 180 988 l 1
  Spiro
    180 988 v
    344 988 v
    344 0 v
    180 0 v
    0 0 z
  EndSpiro
EndSplineSet
Validated: 1
EndChar

StartChar: uni00B2
Encoding: 178 178 146
Width: 800
VWidth: 0
Flags: HW
HStem: 758 105<285.814 629> 1420.14 103.88<181.005 465.898>
VStem: 498.224 130.776<1232.9 1388.07>
LayerCount: 2
Fore
SplineSet
369.391 1524.02 m 4
 506.798 1524.27 616.038 1444.5 616.038 1325.24 c 4
 616.038 1141.53 374.117 1082.94 285.814 863 c 5
 629 863 l 5
 629 758 l 5
 146 758 l 5
 146.68 823.463 l 5
 238.939 1119.53 498.224 1206.65 498.224 1311.36 c 4
 498.224 1366.35 436.907 1420.14 353.539 1420.14 c 4
 314.228 1420.14 268 1410 166.984 1370.03 c 5
 130.019 1460.86 l 5
 187.976 1489.41 268.925 1523.83 369.391 1524.02 c 4
EndSplineSet
Validated: 33
EndChar

StartChar: uni00B3
Encoding: 179 179 147
Width: 800
VWidth: 2097
Flags: HW
HStem: 750 109<158.659 462.544> 789.104 101.091<153.461 328.513> 1114 102.62<277 440.023> 1414 107<174.24 455.44>
VStem: 473 115<1250.41 1393.99> 503 116<900.723 1072.16>
DStem2: 138.707 1462.26 178.159 1367.86 0.907963 0.419051<0 167.149>
CounterMasks: 1 b0
LayerCount: 2
Fore
SplineSet
502.649 1178.82 m 5xb8
 588.396 1143.43 619 1075.26 619 1005 c 4
 619 851.854 494.291 751.046 329.048 750 c 5
 327 750 l 6xb4
 269.833 750 204.102 762.394 138.354 789.104 c 6
 125.15 794.467 l 5
 158.447 890.195 l 5x74
 171.989 886.46 l 6
 258.35 862.637 298.418 859 330 859 c 4
 422.6 859 503 910.2 503 987 c 4xb4
 503 1037.8 462.8 1114 302 1114 c 6
 277 1114 l 5
 277 1216.62 l 5
 291.615 1217 l 6
 436.146 1220.7 473 1281.2 473 1324 c 4
 473 1369.62 428.636 1414 348 1414 c 4
 285.715 1414 224.51 1389.25 192.286 1374.38 c 6
 178.159 1367.86 l 5
 138.707 1462.26 l 5
 151.412 1468.48 l 6
 198.391 1491.44 275.965 1521 359 1521 c 4
 488.849 1521 588 1444.48 588 1338 c 4
 588 1270.51 554.687 1212.13 502.649 1178.82 c 5xb8
EndSplineSet
Validated: 1
EndChar

StartChar: acute
Encoding: 180 180 148
Width: 1122
VWidth: 2097
InSpiro: 1
Flags: W
HStem: 1167 418
VStem: 274 574
LayerCount: 2
Fore
SplineSet
778 1585 m 1
 848 1462 l 1
 336 1167 l 1
 274 1275 l 1
 778 1585 l 1
  Spiro
    778 1585 v
    848 1462 v
    336 1167 v
    274 1275 v
    0 0 z
  EndSpiro
EndSplineSet
Validated: 1
EndChar

StartChar: uni00B9
Encoding: 185 185 149
Width: 543
VWidth: 0
Flags: W
HStem: 1362 97<81.3052 112.657> 1491 20G<177.538 343>
VStem: 230 113<760 1403>
LayerCount: 2
Fore
SplineSet
251 1511 m 1
 343 1511 l 1
 343 760 l 1
 230 760 l 1
 230 1403 l 1
 85 1362 l 1
 60 1459 l 1
 251 1511 l 1
EndSplineSet
Validated: 1
EndChar

StartChar: ordmasculine
Encoding: 186 186 150
Width: 762
VWidth: 2097
Flags: W
HStem: 752 100<263.541 502.576> 1416 103<258.557 505.014>
VStem: 67 114<945.719 1329.78> 581 114<941.443 1332.72>
LayerCount: 2
Fore
SplineSet
382 1519 m 4
 498 1519 695 1467 695 1145 c 4
 695 895 555 752 380 752 c 4
 221 752 67 843 67 1146 c 4
 67 1399 225 1519 382 1519 c 4
380 1416 m 4
 289 1415 181 1361 181 1149 c 4
 181 897 302 852 382 852 c 4
 467 852 581 903 581 1142 c 4
 581 1374 463 1416 380 1416 c 4
EndSplineSet
Validated: 1
EndChar

StartChar: agrave
Encoding: 224 224 166
Width: 1069
VWidth: 0
Flags: W
HStem: 0 21<764.482 886.096> 438 123<366.019 752.004> 871.25 135.26<231.788 648.661>
DStem2: 300.004 981 217.004 826 0.965879 0.258992<-119.175 203.013> 809.004 1225 729.004 1125 0.766548 -0.642187<-487.092 0>
LayerCount: 2
Fore
SplineSet
445.004 1549 m 29
 809.004 1225 l 29
 729.004 1125 l 29
 353.004 1440 l 29
 445.004 1549 l 29
EndSplineSet
Refer: 0 97 N 1 0 0 1 0 0 3
Validated: 5
EndChar

StartChar: aacute
Encoding: 225 225 167
Width: 1069
VWidth: 0
Flags: W
HStem: 0 21<764.482 886.096> 438 123<366.019 752.004> 871.25 135.26<231.788 648.661>
DStem2: 300.004 981 217.004 826 0.965879 0.258992<-119.175 203.013> 312.004 1225 392.004 1125 0.766548 0.642187<0 487.092>
LayerCount: 2
Fore
SplineSet
676.004 1549 m 29
 312.004 1225 l 29
 392.004 1125 l 29
 768.004 1440 l 29
 676.004 1549 l 29
EndSplineSet
Refer: 0 97 N 1 0 0 1 0 0 3
Validated: 5
EndChar

StartChar: egrave
Encoding: 232 232 171
Width: 1102
VWidth: 0
Flags: W
HStem: -20 131<471.466 886.028> 417 124<297 813>
VStem: 130 167<541 714.343> 813 159<541 764.806>
DStem2: 824 1225 744 1125 0.766548 -0.642187<-487.092 0>
LayerCount: 2
Fore
SplineSet
460 1549 m 29
 824 1225 l 29
 744 1125 l 29
 368 1440 l 29
 460 1549 l 29
EndSplineSet
Refer: 2 101 N 1 0 0 1 0 0 3
Validated: 1
EndChar

StartChar: eacute
Encoding: 233 233 172
Width: 1102
VWidth: 0
Flags: W
HStem: -20 131<471.466 886.028> 417 124<297 813>
VStem: 130 167<541 714.343> 813 159<541 764.806>
DStem2: 412 1225 492 1125 0.766548 0.642187<0 487.092>
LayerCount: 2
Fore
SplineSet
776 1549 m 29
 412 1225 l 29
 492 1125 l 29
 868 1440 l 29
 776 1549 l 29
EndSplineSet
Refer: 2 101 N 1 0 0 1 0 0 3
Validated: 9
EndChar

StartChar: igrave
Encoding: 236 236 174
Width: 524
VWidth: 0
Flags: W
HStem: 0 21<180 344> 968 20<180 344>
VStem: -10 456 180 164<0 988>
DStem2: 446 1225 366 1125 0.766548 -0.642187<-487.092 0>
LayerCount: 2
Fore
SplineSet
82 1549 m 29xe0
 446 1225 l 29
 366 1125 l 29
 -10 1440 l 29
 82 1549 l 29xe0
EndSplineSet
Refer: 140 305 N 1 0 0 1 0 0 3
Validated: 1
EndChar

StartChar: iacute
Encoding: 237 237 175
Width: 524
VWidth: 0
Flags: W
HStem: 0 21<180 344> 968 20<180 344>
VStem: 180 164<0 988>
DStem2: 112 1225 192 1125 0.766548 0.642187<0 487.092>
LayerCount: 2
Fore
SplineSet
476 1549 m 29
 112 1225 l 29
 192 1125 l 29
 568 1440 l 29
 476 1549 l 29
EndSplineSet
Refer: 140 305 N 1 0 0 1 0 0 3
Validated: 9
EndChar

StartChar: ograve
Encoding: 242 242 177
Width: 1211
VWidth: 0
Flags: W
HStem: -20 140<461.412 767.349> 867 140<447.645 750.28>
VStem: 130 160<307.781 702.989> 921 160<288.229 680.33>
DStem2: 893 1225 813 1125 0.766548 -0.642187<-487.092 0>
LayerCount: 2
Fore
SplineSet
529 1549 m 25
 893 1225 l 25
 813 1125 l 25
 437 1440 l 25
 529 1549 l 25
EndSplineSet
Refer: 6 111 N 1 0 0 1 0 0 3
Validated: 1
EndChar

StartChar: oacute
Encoding: 243 243 178
Width: 1211
VWidth: 0
Flags: W
HStem: -20 140<461.412 767.349> 867 140<447.645 750.28>
VStem: 130 160<307.781 702.989> 921 160<288.229 680.33>
DStem2: 342 1225 422 1125 0.766548 0.642187<0 487.092>
LayerCount: 2
Fore
SplineSet
706 1549 m 25
 342 1225 l 25
 422 1125 l 25
 798 1440 l 25
 706 1549 l 25
EndSplineSet
Refer: 6 111 N 1 0 0 1 0 0 3
Validated: 9
EndChar

StartChar: ugrave
Encoding: 249 249 181
Width: 1181
VWidth: 0
Flags: W
HStem: 0 21<877.478 1001> 968 20<183.848 348.034 837 1001>
VStem: 181.953 167.047<209.317 988> 837 164<152 988>
DStem2: 841 1225 761 1125 0.766548 -0.642187<-487.092 0>
LayerCount: 2
Fore
SplineSet
477 1549 m 29
 841 1225 l 29
 761 1125 l 29
 385 1440 l 29
 477 1549 l 29
EndSplineSet
Refer: 14 117 N 1 0 0 1 0 0 3
Validated: 5
EndChar

StartChar: uacute
Encoding: 250 250 182
Width: 1181
VWidth: 0
Flags: W
HStem: 0 21<877.478 1001> 968 20<183.848 348.034 837 1001>
VStem: 181.953 167.047<209.317 988> 837 164<152 988>
DStem2: 402 1225 482 1125 0.766548 0.642187<0 487.092>
LayerCount: 2
Fore
SplineSet
766 1549 m 29
 402 1225 l 29
 482 1125 l 29
 858 1440 l 29
 766 1549 l 29
EndSplineSet
Refer: 14 117 N 1 0 0 1 0 0 3
Validated: 5
EndChar

StartChar: yacute
Encoding: 253 253 184
Width: 1040
VWidth: 0
Flags: W
HStem: 968 20<45 217.425 822.636 985>
VStem: 45 165<823 988> 245 175<-531 -356> 830 155<833 988>
DStem2: 402 1225 482 1125 0.766548 0.642187<0 487.092>
LayerCount: 2
Fore
SplineSet
766 1549 m 25
 402 1225 l 25
 482 1125 l 25
 858 1440 l 25
 766 1549 l 25
EndSplineSet
Refer: 26 121 N 1 0 0 1 0 0 3
Validated: 5
EndChar

StartChar: eth
Encoding: 240 240 186
Width: 1252
VWidth: 2097
InSpiro: 1
Flags: W
HStem: 807 135<431.58 774.323>
VStem: 130 160<288.54 660.873> 914 158<301.123 970.734>
LayerCount: 2
Fore
SplineSet
514.738 1144.67 m 1
 990.29 1417.68 l 1
 1044.79 1323.29 l 1
 569.238 1050.27 l 1
 514.738 1144.67 l 1
  Spiro
    514.738 1144.67 v
    990.29 1417.68 v
    1044.79 1323.29 v
    569.238 1050.27 v
    0 0 z
  EndSpiro
513 1458.5 m 1
 626.362 1427.1 733.936 1373.46 825 1299 c 0
 892.169 1244.08 949.78 1176.88 990 1100 c 0
 1055.72 974.402 1071.53 828.751 1072 687 c 0
 1072.37 575.337 1066.52 462.939 1042 354 c 0
 1028.53 294.164 1008.36 235.415 977.18 182.6 c 0
 946 129.785 903.378 83.4951 852 50 c 0
 782.983 5.00488 700.302 -16.2344 618 -20 c 0
 548.668 -23.1719 478.537 -14.7988 412.775 7.38965 c 0
 347.013 29.5791 285.877 66.8193 239 118 c 0
 199.323 161.32 170.31 213.993 152.719 270.041 c 0
 135.127 326.089 128.457 385.276 130 444 c 0
 131.765 511.176 144.01 578.151 166.959 641.311 c 0
 189.908 704.471 224.116 763.904 270 813 c 0
 310.69 856.539 360.611 891.595 415.902 913.825 c 0
 471.193 936.055 531.494 945.204 591 942 c 0
 676.903 937.374 759.794 907.946 837 870 c 0
 909.578 834.329 978.47 791.385 1044 744 c 1
 976 650 l 1
 917.574 690.933 856.015 727.639 791 757 c 0
 725.165 786.731 654.219 808.606 582 807 c 0
 503.281 805.249 425.049 772.184 372 714 c 0
 339.402 678.247 316.268 634.299 302.989 587.774 c 0
 289.709 541.249 285.896 492.208 290 444 c 0
 295.6 378.226 315.96 313.305 352 258 c 0
 381.054 213.414 420.601 175.429 467.341 149.984 c 0
 514.08 124.539 567.873 111.905 621 115 c 0
 669.118 117.803 716.414 133.534 756.639 160.089 c 0
 796.864 186.643 829.693 223.81 853 266 c 0
 881.777 318.092 896.222 376.998 904 436 c 0
 915.737 525.034 916.126 615.221 914 705 c 0
 911.718 801.396 902.489 899.592 864 988 c 0
 835.398 1053.7 791.359 1112.09 739 1161 c 0
 657.129 1237.49 557.121 1293.56 451 1329.5 c 1
 513 1458.5 l 1
  Spiro
    513 1458.5 v
    825 1299 o
    990 1100 o
    1072 687 o
    1042 354 o
    852 50 o
    618 -20 o
    239 118 o
    130 444 o
    270 813 o
    591 942 o
    837 870 o
    1044 744 v
    976 650 v
    791 757 o
    582 807 o
    372 714 o
    290 444 o
    352 258 o
    621 115 o
    853 266 o
    904 436 o
    914 705 o
    864 988 o
    739 1161 o
    451 1329.5 v
    0 0 z
  EndSpiro
EndSplineSet
Validated: 37
EndChar

StartChar: thorn
Encoding: 254 254 187
Width: 1221
VWidth: 2097
InSpiro: 1
Flags: W
HStem: -22 140<465.759 773.31> 862 140<468.923 765.575> 1401 20G<190 354>
VStem: 190 164<-531 104 277.216 721.249 868 1421> 931 160<284.158 679.809>
LayerCount: 2
Fore
SplineSet
634 118 m 0
 710.833 122.88 785.635 157.564 838 214 c 0
 870.471 248.996 894.157 291.706 909.101 337.047 c 0
 924.044 382.387 930.712 430.261 931 478 c 0
 931.49 559.238 913.671 641.869 871 711 c 0
 843.77 755.116 806.292 793.042 761.78 819.621 c 0
 717.268 846.201 665.841 861.474 614 862 c 0
 579.755 862.347 545.368 856.203 513.697 843.173 c 0
 482.026 830.144 453.246 810.149 430 785 c 0
 392.664 744.609 370.734 691.932 359.373 638.114 c 0
 348.012 584.296 345.259 529.003 345 474 c 0
 344.805 432.582 346.336 391.009 353.238 350.17 c 0
 360.139 309.331 373.028 269.11 395 234 c 0
 419.692 194.543 455.901 162.414 498.034 142.629 c 0
 540.166 122.844 587.547 115.049 634 118 c 0
  Spiro
    634 118 o
    838 214 o
    931 478 o
    871 711 o
    614 862 o
    430 785 o
    345 474 o
    395 234 o
    0 0 z
  EndSpiro
190 1421 m 1
 354 1421 l 1
 354 819 l 1
 277 722 l 1
 285.111 774.965 307.088 825.717 340 868 c 0
 361.83 896.045 388.371 920.373 418 940 c 0
 475.529 978.109 544.104 998.098 613 1002 c 0
 681.42 1005.88 750.716 994.419 814.136 968.452 c 0
 877.556 942.485 934.854 901.416 979 849 c 0
 1057.04 756.34 1090.77 632.146 1091 511 c 0
 1091.26 377.917 1053.54 241.781 969 139 c 0
 925.256 85.8193 869.258 42.6611 806.318 14.7275 c 0
 743.378 -13.2051 673.744 -26.002 605 -22 c 0
 503.012 -16.0635 402.676 28.3672 334 104 c 0
 290.279 152.15 259.777 212.23 247 276 c 1
 354 168 l 1
 354 -531 l 1
 190 -531 l 1
 190 1421 l 1
  Spiro
    190 1421 v
    354 1421 v
    354 819 v
    277 722 v
    340 868 o
    418 940 o
    613 1002 o
    979 849 o
    1091 511 o
    969 139 o
    605 -22 o
    334 104 o
    247 276 v
    354 168 v
    354 -531 v
    190 -531 v
    0 0 z
  EndSpiro
EndSplineSet
Validated: 37
EndChar

StartChar: Eth
Encoding: 208 208 188
Width: 1605
VWidth: 2097
InSpiro: 1
Flags: W
HStem: 0 150<505 1024.34> 658 150<117 761> 1271 150<505 1027.21>
VStem: 335 170<150 1271> 1320 170<460.936 969.362>
LayerCount: 2
Fore
SplineSet
117 808 m 1
 761 808 l 1
 761 658 l 1
 117 658 l 1
 117 808 l 1
  Spiro
    761 808 v
    761 658 v
    117 658 v
    117 808 v
    0 0 z
  EndSpiro
505 1271 m 1
 505 150 l 1
 712 150 l 2
 774.782 150 837.849 150.426 899.856 160.261 c 0
 961.863 170.096 1022.69 189.509 1077 221 c 0
 1152.95 265.037 1214.39 332.647 1254 411 c 0
 1297.89 497.836 1316.95 595.748 1320 693 c 0
 1323.78 813.297 1302.41 937.088 1240 1040 c 0
 1192.61 1118.14 1122.17 1182.01 1040 1222 c 0
 1000.1 1241.42 957.428 1255.13 913.691 1262.64 c 0
 869.953 1270.15 825.378 1271 781 1271 c 2
 505 1271 l 1
  Spiro
    505 1271 v
    505 150 v
    712 150 ]
    1077 221 o
    1254 411 o
    1320 693 o
    1240 1040 o
    1040 1222 o
    781 1271 [
    0 0 z
  EndSpiro
335 1421 m 1
 732 1421 l 2
 864.03 1421 998.753 1412.88 1121 1363 c 0
 1229.57 1318.7 1326.39 1243.51 1390 1145 c 0
 1472.73 1016.88 1496.63 858.361 1490 706 c 0
 1485.99 613.829 1471.46 521.767 1442.17 434.284 c 0
 1412.88 346.8 1367.36 264.063 1304 197 c 0
 1225.32 113.715 1120.14 57.8271 1009 30 c 0
 889.935 0.189805 765.74 1.50308e-14 643 0 c 2
 335 0 l 1
 335 1421 l 1
  Spiro
    335 1421 v
    732 1421 ]
    1121 1363 o
    1390 1145 o
    1490 706 o
    1304 197 o
    1009 30 o
    643 0 [
    335 0 v
    0 0 z
  EndSpiro
EndSplineSet
Validated: 37
EndChar

StartChar: Oslash
Encoding: 216 216 189
Width: 1756
VWidth: 0
InSpiro: 1
Flags: W
HStem: -15 149<695.378 1088.21> 1287 149<676.07 1077.27>
VStem: 215 175<465.477 980.057> 1376 175<448.924 965.224>
LayerCount: 2
Fore
SplineSet
1555.91 1409.07 m 1
 1618.67 1343.84 l 1
 217.091 4.93457 l 1
 154.329 70.1641 l 1
 1555.91 1409.07 l 1
  Spiro
    1555.91 1409.07 v
    1618.67 1343.84 v
    217.09 4.93437 v
    154.329 70.1645 v
    0 0 z
  EndSpiro
872 1287 m 0
 740.98 1286.28 610.44 1229.46 524 1131 c 0
 474.071 1074.13 438.884 1005.1 417.637 932.463 c 0
 396.39 859.827 388.262 783.66 390 708 c 0
 393.198 568.756 430.185 426.704 516 317 c 0
 560.892 259.612 618.805 212.35 684.451 180.738 c 0
 750.096 149.125 823.145 133.084 896 134 c 0
 966.914 134.892 1037.66 151.873 1100.93 183.913 c 0
 1164.2 215.953 1219.62 263.136 1262 320 c 0
 1343.93 429.929 1375.84 570.899 1376 708 c 0
 1376.14 827.98 1351.95 950.25 1290 1053 c 0
 1246.86 1124.56 1185.23 1185.02 1112.23 1225.69 c 0
 1039.24 1266.37 955.557 1287.46 872 1287 c 0
  Spiro
    524 1131 o
    390 708 o
    516 317 o
    896 134 o
    1262 320 o
    1376 708 o
    1290 1053 o
    872 1287 o
    0 0 z
  EndSpiro
891 1436 m 0
 981.195 1435.13 1071.43 1417.92 1154.78 1383.45 c 0
 1238.13 1348.98 1314.25 1296.67 1375 1230 c 0
 1438.35 1160.48 1484.45 1076 1512.84 986.328 c 0
 1541.23 896.66 1552.81 802.038 1551 708 c 0
 1549.03 605.611 1531.3 503.157 1494.65 407.529 c 0
 1458.01 311.9 1401.27 223.436 1326 154 c 0
 1205.44 42.7908 1040.02 -15.1393 876 -15 c 0
 706.801 -14.8563 535.935 47.6526 416 167 c 0
 346.014 236.644 294.304 323.686 261.799 416.916 c 0
 229.294 510.145 214.907 609.266 215 708 c 0
 215.098 811.35 231.017 915.114 266.663 1012.12 c 0
 302.309 1109.13 358.981 1198.98 435 1269 c 0
 556.945 1381.32 725.221 1437.61 891 1436 c 0
  Spiro
    1375 1230 o
    1551 708 o
    1326 154 o
    876 -15 o
    416 167 o
    215 708 o
    435 1269 o
    891 1436 o
    0 0 z
  EndSpiro
EndSplineSet
Validated: 37
EndChar

StartChar: logicalnot
Encoding: 172 172 190
Width: 1400
VWidth: 2097
Flags: W
HStem: 583 149<125 1127>
VStem: 1127 148<282 583>
LayerCount: 2
Fore
SplineSet
125 732 m 1
 1275 732 l 1
 1275 282 l 1
 1127 282 l 1
 1127 583 l 1
 125 583 l 1
 125 732 l 1
EndSplineSet
Validated: 1
EndChar

StartChar: macron
Encoding: 175 175 191
Width: 1400
VWidth: 2097
Flags: W
HStem: 1491 149<285 1115>
LayerCount: 2
Fore
SplineSet
285 1640 m 5
 1115 1640 l 5
 1115 1491 l 5
 285 1491 l 5
 285 1640 l 5
EndSplineSet
Validated: 1
EndChar

StartChar: ordfeminine
Encoding: 170 170 192
Width: 766
VWidth: 2097
Flags: W
HStem: 742 80<296.563 485.555> 971 20G<562 603.5> 1019 83<298.826 539> 1259 80<204.269 491.029>
VStem: 175 97<844.469 987.927> 523 98<828 1019 1102 1229.27>
CounterMasks: 1 b0
LayerCount: 2
Fore
SplineSet
379 742 m 0
 262 742 175 802 175 915 c 0
 175 1077 301 1102 540 1102 c 1
 539 1019 l 1
 457 1017 272 1032 272 917 c 0
 272 872 318 822 394 822 c 0
 472 822 537 898 562 988 c 5
 610 991 l 1
 597 873 502 742 379 742 c 0
392 1339 m 0
 618 1339 621 1195 621 1131 c 2
 619 760 l 1
 551 760 l 1
 523 828 l 1
 523 1105 l 2
 523 1110 523 1116 523 1121 c 0
 523 1148 526 1259 381 1259 c 0
 324 1259 244 1242 211 1232 c 1
 193 1303 l 1
 256 1326 324 1339 392 1339 c 0
EndSplineSet
Validated: 37
EndChar

StartChar: Thorn
Encoding: 222 222 193
Width: 1326
VWidth: 2097
InSpiro: 1
Flags: W
HStem: 0 21G<290 460> 333 147<460.912 949.374> 1008.47 151.77<463.182 938.6> 1401 20G<290 460>
VStem: 290 170<0 335 484 997 1143 1421>
LayerCount: 2
Fore
SplineSet
290 1421 m 1
 460 1421 l 1
 460 0 l 1
 290 0 l 1
 290 1421 l 1
  Spiro
    290 1421 v
    460 1421 v
    460 0 v
    290 0 v
    0 0 z
  EndSpiro
324 1131 m 1
 357.272 1135.49 390.61 1139.49 424 1143 c 0
 516.822 1152.76 610.044 1159.25 703.372 1160.24 c 0
 796.701 1161.22 891.246 1157.6 981 1132 c 0
 1050.59 1112.15 1117.18 1076.01 1163 1020 c 0
 1195.86 979.831 1217.18 930.858 1227.48 879.993 c 0
 1237.78 829.128 1237.96 776.554 1232 725 c 0
 1225.49 668.734 1211.76 613.051 1188.37 561.467 c 0
 1164.97 509.882 1130.91 462.775 1087 427 c 0
 1047.46 394.79 1000.61 372.208 951.67 357.888 c 0
 902.726 343.569 851.845 336.922 801 333 c 0
 675.919 323.352 549.956 323.859 425 335 c 0
 391.555 337.982 358.199 341.97 325 347 c 1
 353 495 l 1
 385.213 490.358 417.568 486.713 450 484 c 0
 566.369 474.267 683.735 469.1 800 480 c 0
 832.209 483.02 864.364 488.32 895.019 498.654 c 0
 925.675 508.987 954.712 524.631 979 546 c 0
 1004.92 568.804 1025.08 597.859 1038.68 629.591 c 0
 1052.28 661.323 1059.73 695.551 1062 730 c 0
 1064.21 763.481 1061.5 797.441 1052.24 829.69 c 0
 1042.97 861.94 1026.72 892.305 1004 917 c 0
 975.83 947.623 938.436 968.73 899 982 c 0
 827.459 1006.07 750.567 1008.67 675.085 1008.47 c 0
 599.603 1008.26 524.152 1004.05 449 997 c 0
 416.6 993.959 384.258 990.296 352 986 c 1
 324 1131 l 1
  Spiro
    324 1131 v
    424 1143 o
    981 1132 o
    1163 1020 o
    1232 725 o
    1087 427 o
    801 333 o
    425 335 o
    325 347 v
    353 495 v
    450 484 o
    800 480 o
    979 546 o
    1062 730 o
    1004 917 o
    899 982 o
    449 997 o
    352 986 v
    0 0 z
  EndSpiro
EndSplineSet
Validated: 37
EndChar

StartChar: quotedblleft
Encoding: 8220 8220 194
Width: 830
VWidth: 2097
Flags: W
HStem: 988 433
VStem: 40 195<988 1183> 165 195<1226 1421> 420 195<988 1183> 545 195<1226 1421>
DStem2: 40 988 235 988 0.277358 0.960767<54.0847 450.682> 420 988 615 988 0.277358 0.960767<54.0847 450.682>
LayerCount: 2
Fore
SplineSet
740 1421 m 5x88
 545 1421 l 5x88
 420 988 l 5
 615 988 l 5x90
 740 1421 l 5x88
360 1421 m 5xa0
 165 1421 l 5xa0
 40 988 l 5
 235 988 l 5xc0
 360 1421 l 5xa0
EndSplineSet
Validated: 9
EndChar

StartChar: quotedblright
Encoding: 8221 8221 195
Width: 830
VWidth: 2097
Flags: W
HStem: 988 433<165 235 545 615>
VStem: 40 195<988 1183> 165 195<1226 1421> 420 195<988 1183> 545 195<1226 1421>
DStem2: 40 988 235 988 0.277358 0.960767<54.0847 450.682> 420 988 615 988 0.277358 0.960767<54.0847 450.682>
LayerCount: 2
Fore
SplineSet
545 1421 m 5x88
 740 1421 l 5x88
 615 988 l 5
 420 988 l 5x90
 545 1421 l 5x88
165 1421 m 5xa0
 360 1421 l 5xa0
 235 988 l 5
 40 988 l 5xc0
 165 1421 l 5xa0
EndSplineSet
Validated: 1
EndChar

StartChar: Euro
Encoding: 8364 8364 201
Width: 1335
VWidth: 2097
Flags: W
HStem: -20.8857 157.126<712.648 1139.59> 504 130<50 844> 848 130<114 908> 1281.08 149.96<702.28 1124.12>
VStem: 251 153<559.955 838.97>
LayerCount: 2
Fore
SplineSet
251 708 m 0
 251 1130.59 506.6 1431.04 889.998 1431.04 c 0
 1029.2 1431.04 1149.84 1393.07 1238 1355 c 1
 1191 1214 l 1
 1018.39 1280.11 916.837 1281.08 886.804 1281.08 c 0
 597.121 1281.08 404 1019.6 404 708 c 0
 404 414.861 592.418 136.24 918.005 136.24 c 0
 1005.19 136.24 1099.29 153.463 1208 196 c 1
 1255 70 l 1
 1161.69 25.1377 1030.14 -20.8857 880.227 -20.8857 c 0
 502.69 -20.8857 251 289.841 251 708 c 0
  Spiro
    898 1431 o
    967.12 1427.04 o
    1036.22 1417.28 o
    1104 1402 o
    1149.36 1388.72 o
    1193.97 1372.95 o
    1238 1355 v
    1191 1214 v
    1144.01 1230.98 o
    1096.66 1246.01 o
    1049 1259 o
    992.72 1271.14 o
    935.61 1278.86 o
    878 1281 o
    811.547 1275.01 o
    746.455 1258.98 o
    684 1233 o
    625.537 1196.93 o
    572.469 1151.39 o
    526 1098 o
    458.425 980.349 o
    417.602 847.64 o
    404 708 o
    417.492 573.318 o
    457.534 445.36 o
    523 332 o
    570.763 276.866 o
    625.576 229.809 o
    686 192 o
    750.711 163.986 o
    818.291 145.69 o
    887 137 o
    947.64 136.923 o
    1008.02 142.416 o
    1068 153 o
    1115.36 164.579 o
    1161.97 179.09 o
    1208 196 v
    1255 70 v
    1202.16 46.4295 o
    1147.83 25.9071 o
    1093 9 o
    981.48 -13.8735 o
    867.849 -20.7758 o
    755 -9 o
    638.632 27.4327 o
    530.379 88.2576 o
    436 172 o
    379.089 246.18 o
    332.255 329.494 o
    296 419 o
    270.576 512.941 o
    255.768 610.061 o
    251 708 o
    267.966 888.156 o
    320.404 1059.5 o
    410 1209 o
    475.485 1278.12 o
    550.523 1335.2 o
    632 1379 o
    717.986 1409.12 o
    807.349 1426.2 o
    0 0 z
  EndSpiro
50 634 m 1
 844 634 l 1
 844 504 l 1
 50 504 l 1
 50 634 l 1
  Spiro
    50 634 v
    844 634 v
    844 504 v
    50 504 v
    0 0 z
  EndSpiro
114 978 m 1
 908 978 l 1
 908 848 l 1
 114 848 l 1
 114 978 l 1
  Spiro
    114 978 v
    908 978 v
    908 848 v
    114 848 v
    0 0 z
  EndSpiro
EndSplineSet
Validated: 5
EndChar

StartChar: emdash
Encoding: 8212 8212 202
Width: 1384
VWidth: 2097
Flags: W
HStem: 589 139<0 1384>
LayerCount: 2
Fore
SplineSet
0 728 m 1
 1384 728 l 1
 1384 589 l 5
 0 589 l 5
 0 728 l 1
EndSplineSet
Validated: 1
EndChar

StartChar: endash
Encoding: 8211 8211 203
Width: 1159
VWidth: 2097
Flags: W
HStem: 589 139<0 1159>
LayerCount: 2
Fore
SplineSet
0 728 m 1
 1159 728 l 1
 1159 589 l 5
 0 589 l 5
 0 728 l 1
EndSplineSet
Validated: 1
EndChar

StartChar: afii00208
Encoding: 8213 8213 204
Width: 1600
VWidth: 2097
Flags: W
HStem: 589 139<0 1600>
LayerCount: 2
Fore
SplineSet
0 728 m 1
 1600 728 l 1
 1600 589 l 1
 0 589 l 1
 0 728 l 1
EndSplineSet
Validated: 1
EndChar

StartChar: bullet
Encoding: 8226 8226 206
Width: 640
VWidth: 2097
Flags: W
HStem: 603 260<190 450>
VStem: 190 260<603 863>
LayerCount: 2
Fore
SplineSet
190 863 m 1
 450 863 l 1
 450 603 l 1
 190 603 l 1
 190 863 l 1
EndSplineSet
Validated: 1
EndChar

StartChar: interrobang
Encoding: 8253 8253 207
Width: 1046
VWidth: 2097
InSpiro: 1
Flags: HW
HStem: 0 200<311 511> 1294 143<157.654 603.848>
VStem: 311 200<0 200> 336 150<392 551.144 694.199 1080> 366 120<392 442.296> 711 165<931.752 1196.74>
LayerCount: 2
Fore
SplineSet
423 1437 m 0xcc
 504.6 1437.01 587.097 1427.88 663.799 1400.04 c 0
 725.245 1377.73 782.658 1340.56 820.442 1287.22 c 0
 859.227 1232.46 875.513 1164.1 876 1097 c 0
 876.369 1046.21 868.491 995.299 852.145 947.209 c 0
 835.799 899.119 810.283 854.227 777.65 815.304 c 0
 724.112 751.445 652.528 705.373 594.35 645.71 c 0
 561.345 611.863 532.909 573.155 513.802 529.914 c 0
 494.696 486.672 484.975 439.263 486 392 c 1xd4
 366 392 l 1
 346.424 442.296 342.176 498.343 353.356 551.144 c 0
 364.537 603.945 391.003 652.812 425.644 694.199 c 0
 479.555 758.611 552.004 804.649 611.356 864.085 c 0
 638.889 891.657 663.6 922.396 681.553 956.978 c 0
 699.506 991.56 710.563 1030.04 711 1069 c 0
 711.374 1102.4 703.733 1135.97 688.052 1165.46 c 0
 667.531 1204.05 633.6 1234.61 594.86 1254.85 c 0
 534.366 1286.46 464.244 1295.13 396 1294 c 0
 368.189 1293.54 340.413 1291.4 312.829 1287.83 c 0
 283.531 1284.03 254.436 1278.59 225.843 1271.16 c 0
 200.759 1264.65 176.075 1256.59 152 1247 c 1
 100 1369 l 1
 133.316 1385.09 168.047 1398.25 203.634 1408.38 c 0
 239.334 1418.54 275.872 1425.66 312.703 1430.27 c 0
 349.275 1434.85 386.142 1437 423 1437 c 0xcc
  Spiro
    423 1437 o
    663.799 1400.04 o
    820.442 1287.22 o
    876 1097 o
    777.65 815.304 o
    594.35 645.71 o
    486 392 v
    366 392 v
    425.644 694.199 o
    611.356 864.085 o
    711 1069 o
    688.052 1165.46 o
    594.86 1254.85 o
    396 1294 o
    312.829 1287.83 o
    225.843 1271.16 o
    152 1247 v
    100 1369 v
    203.634 1408.38 o
    312.703 1430.27 o
    0 0 z
  EndSpiro
336 1080 m 1
 486 1080 l 1
 486 392 l 1
 336 392 l 1
 336 1080 l 1
  Spiro
    336 1080 v
    486 1080 v
    486 392 v
    336 392 v
    0 0 z
  EndSpiro
311 200 m 1xe4
 511 200 l 1
 511 0 l 1
 311 0 l 1
 311 200 l 1xe4
  Spiro
    311 200 v
    511 200 v
    511 0 v
    311 0 v
    0 0 z
  EndSpiro
EndSplineSet
Validated: 37
EndChar

StartChar: quoteleft
Encoding: 8216 8216 208
Width: 450
VWidth: 2097
Flags: W
HStem: 988 433<215 285>
VStem: 90 195<1226 1421> 215 195<988 1183>
DStem2: 285 1421 90 1421 0.277358 -0.960767<0 396.597>
LayerCount: 2
Fore
SplineSet
90 1421 m 5xc0
 285 1421 l 5xc0
 410 988 l 5
 215 988 l 5xa0
 90 1421 l 5xc0
EndSplineSet
Validated: 1
EndChar

StartChar: quoteright
Encoding: 8217 8217 209
Width: 450
VWidth: 2097
Flags: W
HStem: 988 433<165 235>
VStem: 40 195<988 1183> 165 195<1226 1421>
DStem2: 40 988 235 988 0.277358 0.960767<54.0847 450.682>
LayerCount: 2
Fore
SplineSet
165 1421 m 1xa0
 360 1421 l 1xa0
 235 988 l 1
 40 988 l 1xc0
 165 1421 l 1xa0
EndSplineSet
Validated: 1
EndChar

StartChar: fraction
Encoding: 8260 8260 210
Width: 1036
VWidth: 0
Flags: W
HStem: 0 21G<20 207.541> 1401 20G<829.445 1016>
VStem: 20 176<0 176> 841 175<1246 1421>
DStem2: 20 0 196 0 0.500267 0.865871<88.0471 1641.12>
LayerCount: 2
Fore
SplineSet
841 1421 m 1
 1016 1421 l 1
 196 0 l 1
 20 0 l 1
 841 1421 l 1
EndSplineSet
Validated: 1
EndChar

StartChar: florin
Encoding: 402 402 211
Width: 821
VWidth: 2097
Flags: W
HStem: -570 137<-99.9702 218.451> 859 129<108 278 444 775> 1292 137<509.622 826.964>
VStem: 278 166<-373.474 859 988 1227.46>
LayerCount: 2
Fore
SplineSet
108 988 m 1
 278 988 l 1
 278 1095 l 2
 278 1152 280 1222 317 1286 c 0
 369 1378 475 1429 608 1429 c 0
 696 1429 786 1408 846 1390 c 1
 821 1268 l 1
 790 1276 725 1292 662 1292 c 0
 446 1292 444 1134 444 1082 c 2
 444 988 l 1
 775 988 l 1
 775 859 l 1
 444 859 l 1
 444 -229 l 2
 444 -289 447 -361 409 -427 c 0
 356 -519 251 -570 118 -570 c 0
 30 -570 -59 -549 -119 -531 c 1
 -94 -409 l 1
 -63 -417 1 -433 64 -433 c 0
 282 -433 278 -279 278 -223 c 2
 278 859 l 1
 108 859 l 1
 108 988 l 1
EndSplineSet
Validated: 33
EndChar

StartChar: guilsinglleft
Encoding: 8249 8249 212
Width: 565
VWidth: 2097
Flags: W
HStem: 968 20G<315.082 515>
VStem: 330 185<258 443 803 988>
LayerCount: 2
Fore
SplineSet
329 988 m 5
 515 988 l 5
 226 604 l 5
 226 643 l 5
 515 258 l 5
 330 258 l 5
 75 623 l 5
 329 988 l 5
EndSplineSet
Validated: 5
EndChar

StartChar: guilsinglright
Encoding: 8250 8250 213
Width: 565
VWidth: 2097
Flags: W
HStem: 968 20G<50 248.973>
VStem: 50 186<258 444 802 988>
LayerCount: 2
Fore
SplineSet
50 988 m 1
 235 988 l 1
 490 623 l 1
 236 258 l 1
 50 258 l 1
 339 642 l 1
 339 603 l 1
 50 988 l 1
EndSplineSet
Validated: 5
EndChar

StartChar: dagger
Encoding: 8224 8224 214
Width: 942
VWidth: 2097
Flags: HW
HStem: 1166 110<170 399 542 772> 1491 20G<399 542>
VStem: 399 143<148 1176 1266 1511>
LayerCount: 2
Fore
SplineSet
399 148 m 9
 399 1176 l 1
 170 1166 l 1
 170 1276 l 1
 399 1266 l 1
 399 1511 l 1
 542 1511 l 1
 542 1266 l 1
 772 1276 l 1
 772 1166 l 1
 542 1176 l 1
 542 148 l 17
 399 148 l 9
EndSplineSet
Validated: 1
EndChar

StartChar: daggerdbl
Encoding: 8225 8225 215
Width: 942
VWidth: 2097
Flags: W
HStem: -5 110<170 399 542 772> 1166 110<170 399 542 772> 1491 20G<399 542>
VStem: 399 143<-240 5 95 1176 1266 1511>
LayerCount: 2
Fore
SplineSet
399 95 m 1
 399 1176 l 1
 170 1166 l 1
 170 1276 l 1
 399 1266 l 1
 399 1511 l 1
 542 1511 l 1
 542 1266 l 1
 772 1276 l 1
 772 1166 l 1
 542 1176 l 1
 542 95 l 1
 772 105 l 1
 772 -5 l 1
 542 5 l 1
 542 -240 l 1
 399 -240 l 1
 399 5 l 1
 170 -5 l 1
 170 105 l 1
 399 95 l 1
EndSplineSet
Validated: 1
EndChar

StartChar: quotesinglbase
Encoding: 8218 8218 216
Width: 450
VWidth: 2097
Flags: W
HStem: -216 433<165 235>
VStem: 40 195<-216 -21> 165 195<22 217>
DStem2: 40 -216 235 -216 0.277358 0.960767<54.0847 450.682>
LayerCount: 2
Fore
SplineSet
165 217 m 1xa0
 360 217 l 1xa0
 235 -216 l 1
 40 -216 l 1xc0
 165 217 l 1xa0
EndSplineSet
Validated: 1
EndChar

StartChar: quotedblbase
Encoding: 8222 8222 217
Width: 830
VWidth: 2097
Flags: W
HStem: -219 433<165 235 545 615>
VStem: 40 195<-219 -24> 165 195<19 214> 420 195<-219 -24> 545 195<19 214>
DStem2: 40 -219 235 -219 0.277358 0.960767<54.0847 450.682> 420 -219 615 -219 0.277358 0.960767<54.0847 450.682>
LayerCount: 2
Fore
SplineSet
545 214 m 5x88
 740 214 l 5x88
 615 -219 l 5
 420 -219 l 5x90
 545 214 l 5x88
165 214 m 5xa0
 360 214 l 5xa0
 235 -219 l 5
 40 -219 l 5xc0
 165 214 l 5xa0
EndSplineSet
Validated: 1
EndChar

StartChar: perthousand
Encoding: 8240 8240 218
Width: 1920
VWidth: 2097
Flags: W
HStem: 0 21G<85 268.638> 66 93<883.918 1068.22 1490.92 1675.22> 527 96<880.68 1069.51 1487.68 1676.51> 806 94<235.831 420.136> 1268 95<232.584 421.384> 1401 20G<1040.36 1224>
VStem: 85 170<0 170> 98 98<939.784 1232.01> 457 97<937.478 1233.05> 747 97<198.881 491.12> 1054 170<1251 1421> 1105 98<196.604 492.124> 1354 97<198.881 491.12> 1712 98<196.604 492.124>
DStem2: 85 0 255 0 0.563391 0.82619<95.7765 1719.94>
CounterMasks: 1 005c
LayerCount: 2
Fore
SplineSet
1054 1421 m 1xfeec
 1224 1421 l 1
 255 0 l 1
 85 0 l 1
 1054 1421 l 1xfeec
1582 623 m 4
 1666 623 1810 585 1810 351 c 4
 1810 169 1708 66 1581 66 c 4
 1466 66 1354 132 1354 352 c 4
 1354 536 1468 623 1582 623 c 4
1581 527 m 4
 1522 526 1451 492 1451 353 c 4
 1451 188 1530 159 1582 159 c 4
 1638 159 1712 192 1712 348 c 4
 1712 500 1635 527 1581 527 c 4
975 623 m 0
 1059 623 1203 585 1203 351 c 0xfcdc
 1203 169 1101 66 974 66 c 0
 859 66 747 132 747 352 c 0
 747 536 861 623 975 623 c 0
974 527 m 0
 915 526 844 492 844 353 c 0
 844 188 923 159 975 159 c 0
 1031 159 1105 192 1105 348 c 0
 1105 500 1028 527 974 527 c 0
327 1363 m 0
 411 1363 554 1326 554 1092 c 0
 554 910 453 806 326 806 c 0
 211 806 98 873 98 1093 c 0xfdcc
 98 1277 213 1363 327 1363 c 0
326 1268 m 0
 267 1267 196 1233 196 1094 c 0
 196 929 275 900 327 900 c 0
 383 900 457 933 457 1089 c 0
 457 1241 380 1268 326 1268 c 0
EndSplineSet
Validated: 1
EndChar

StartChar: circumflex
Encoding: 710 710 219
Width: 1479
VWidth: 2097
Flags: W
HStem: 1167 374 1413 20G<667 759.359>
VStem: 443 538
LayerCount: 2
Fore
SplineSet
725 1541 m 29xa0
 981 1255 l 21
 888 1167 l 5xa0
 667 1413 l 5
 778 1433 l 5x60
 531 1168 l 13
 443 1246 l 29
 725 1541 l 29xa0
EndSplineSet
Validated: 5
EndChar

StartChar: tilde
Encoding: 732 732 220
Width: 1400
VWidth: 2097
Flags: W
HStem: 1239 123<791.799 957.175> 1418 123<482.825 648.201>
DStem2: 306 1284 411 1237 0.440673 0.897668<4.08031 226.056> 709 1483 640 1381 0.751928 -0.659245<-84.4835 226.139> 1003 1491 1107 1441 0.440673 0.897668<-164.738 58.1362>
LayerCount: 2
Fore
SplineSet
1029 1543 m 5
 1134 1496 l 5
 1107 1441 l 6
 1083.82 1393.78 1060.45 1345.65 1024.82 1306.95 c 4
 1007 1287.59 986.164 1270.87 962.716 1258.95 c 4
 939.267 1247.03 913.281 1240.07 887 1239 c 4
 858.693 1237.84 830.295 1243.49 803.984 1253.99 c 4
 777.673 1264.5 753.394 1279.65 731 1297 c 4
 698.35 1322.3 670.846 1353.53 640 1381 c 4
 629.137 1390.67 617.571 1399.7 604.692 1406.46 c 4
 591.812 1413.22 577.54 1417.58 563 1418 c 4
 547.023 1418.46 531.013 1414.06 517.264 1405.91 c 4
 503.514 1397.76 492.071 1386.12 482.637 1373.22 c 4
 463.769 1347.42 451.296 1317.59 437 1289 c 6
 411 1237 l 5
 306 1284 l 5
 333 1339 l 6
 356.183 1386.22 379.55 1434.35 415.181 1473.05 c 4
 432.996 1492.41 453.836 1509.13 477.284 1521.05 c 4
 500.733 1532.97 526.719 1539.93 553 1541 c 4
 581.307 1542.16 609.705 1536.51 636.016 1526.01 c 4
 662.327 1515.5 686.606 1500.35 709 1483 c 4
 741.65 1457.7 769.154 1426.47 800 1399 c 4
 810.863 1389.33 822.429 1380.3 835.308 1373.54 c 4
 848.188 1366.78 862.46 1362.42 877 1362 c 4
 892.977 1361.54 908.987 1365.94 922.736 1374.09 c 4
 936.486 1382.24 947.929 1393.88 957.363 1406.78 c 4
 976.231 1432.58 988.704 1462.41 1003 1491 c 6
 1029 1543 l 5
  Spiro
    1029 1543 v
    1134 1496 v
    1107 1441 ]
    887 1239 o
    731 1297 o
    640 1381 o
    563 1418 o
    437 1289 [
    411 1237 v
    306 1284 v
    333 1339 ]
    553 1541 o
    709 1483 o
    800 1399 o
    877 1362 o
    1003 1491 [
    0 0 z
  EndSpiro
EndSplineSet
Validated: 33
EndChar

StartChar: breve
Encoding: 728 728 222
Width: 1078
VWidth: 0
InSpiro: 1
Flags: W
LayerCount: 2
Fore
SplineSet
817.5 1448 m 1
 782.778 1402.06 742.333 1360.2 696 1326 c 0
 649.608 1291.76 595.51 1265.63 538 1261.5 c 0
 491.857 1258.18 444.975 1269.72 405 1293 c 0
 369.294 1313.8 339.003 1343.1 314 1376 c 0
 296.953 1398.43 282.245 1422.63 270 1448 c 1
 147 1382 l 1
 164.974 1332.65 192.616 1286.82 228 1248 c 0
 267.159 1205.04 315.912 1170.72 369.944 1149.29 c 0
 423.977 1127.85 483.12 1119.62 541 1125 c 0
 625.246 1132.83 705.145 1168.83 774 1218 c 0
 833.499 1260.49 885.938 1312.66 930 1371 c 1
 817.5 1448 l 1
  Spiro
    817.5 1448 v
    696 1326 o
    538 1261.5 o
    405 1293 o
    314 1376 o
    270 1448 v
    147 1382 v
    228 1248 o
    541 1125 o
    774 1218 o
    930 1371 v
    0 0 z
  EndSpiro
EndSplineSet
Validated: 41
EndChar

StartChar: trademark
Encoding: 8482 8482 225
Width: 1424
VWidth: 2097
Flags: W
HStem: 1431 80<110 285 383 558>
VStem: 285 98<943 1431> 1166 98<943 1444>
LayerCount: 2
Fore
SplineSet
690 1511 m 1
 806 1511 l 1
 978.236 1193.56 l 1
 1144 1511 l 1
 1264 1511 l 1
 1264 943 l 1
 1166 943 l 1
 1166 1444.2 l 1
 1196 1444 l 1
 1006 1095 l 1
 938 1095 l 1
 746 1476 l 1
 788 1437 l 1
 788 943 l 1
 690 943 l 1
 690 1511 l 1
383 943 m 1
 285 943 l 1
 285 1431 l 1
 110 1431 l 1
 110 1511 l 1
 558 1511 l 1
 558 1431 l 1
 383 1431 l 1
 383 943 l 1
EndSplineSet
Validated: 5
EndChar

StartChar: Amacron
Encoding: 256 256 226
Width: 1383
VWidth: 0
Flags: W
HStem: 0 21<130 293.956 1154.03 1333> 413 149<482.461 965.139> 1401 20<627.892 835.108> 1568 129<363.5 1103.5>
VStem: 130 157<0 157> 1161 172<0 172>
DStem2: 130 0 287 0 0.334866 0.942266<52.5739 489.83 647.581 1381.49> 828 1421 723.554 1255.2 0.334866 -0.942266<121.252 855.33 1013.12 1450.47>
LayerCount: 2
Fore
SplineSet
363.5 1697 m 1
 1103.5 1697 l 1
 1103.5 1568 l 1
 363.5 1568 l 1
 363.5 1697 l 1
EndSplineSet
Refer: 32 65 N 1 0 0 1 0 0 3
Validated: 1
EndChar

StartChar: amacron
Encoding: 257 257 227
Width: 1069
VWidth: 0
Flags: W
HStem: 0 21<764.482 886.096> 438 123<366.019 752.004> 871.25 135.26<231.788 648.661> 1204 129<264.683 797.326>
DStem2: 300.004 981 217.004 826 0.965879 0.258992<-119.175 203.013>
LayerCount: 2
Fore
SplineSet
264.683 1333 m 1
 797.326 1333 l 1
 797.326 1204 l 1
 264.683 1204 l 1
 264.683 1333 l 1
EndSplineSet
Refer: 0 97 N 1 0 0 1 0 0 3
Validated: 5
EndChar

StartChar: cacute
Encoding: 263 263 231
Width: 1001
VWidth: 0
Flags: W
HStem: -20 138<448.008 831.356> 865 141<437.142 842.388>
VStem: 130 160<280.044 716.518>
DStem2: 322 1225 402 1125 0.766548 0.642187<0 487.092>
LayerCount: 2
Fore
SplineSet
686 1549 m 29
 322 1225 l 29
 402 1125 l 29
 778 1440 l 29
 686 1549 l 29
EndSplineSet
Refer: 18 99 N 1 0 0 1 0 0 3
Validated: 9
EndChar

StartChar: dcaron
Encoding: 271 271 239
Width: 1424
VWidth: 0
Flags: W
HStem: 0 21<875.304 998> 1491 20G<834 998 1202.95 1374>
VStem: 130 160<285.421 718.05> 834 164<142 825 919 1511> 1091 165<1121 1286> 1209 165<1346 1511>
DStem2: 1091 1121 1256 1121 0.289599 0.957148<47.7838 407.46>
LayerCount: 2
Fore
SplineSet
1209 1511 m 5xf4
 1374 1511 l 5xf4
 1256 1121 l 5
 1091 1121 l 5xf8
 1209 1511 l 5xf4
EndSplineSet
Refer: 1 100 N 1 0 0 1 0 0 2
Validated: 5
EndChar

StartChar: Emacron
Encoding: 274 274 241
Width: 1283
VWidth: 0
Flags: W
HStem: 0 150<290 1123> 657 150<290 1068> 1271 150<290 1123> 1568 129<360 1093>
VStem: 290 170<150 657 807 1271>
LayerCount: 2
Fore
SplineSet
360 1697 m 5
 1093 1697 l 5
 1093 1568 l 5
 360 1568 l 5
 360 1697 l 5
EndSplineSet
Refer: 34 69 N 1 0 0 1 0 0 3
Validated: 5
EndChar

StartChar: Itilde
Encoding: 296 296 258
Width: 730
VWidth: 0
InSpiro: 1
Flags: W
HStem: 0 21<320 490> 1401 20<320 490> 1742 122<208.968 327.438>
VStem: 72 642 320 170<0 1421>
DStem2: 72 1612 176 1584 0.265614 0.964079<0.629602 176.214> 405 1792 333 1690 0.6 -0.8<-54.7381 166.667> 583 1766 688 1738 0.265614 0.964079<-100.37 101.317>
LayerCount: 2
Fore
SplineSet
176 1584 m 1xf0
 72 1612 l 1
 98 1710 l 2
 102.968 1728.72 108.213 1747.48 116.324 1765.07 c 0
 124.436 1782.66 135.326 1799.01 148.842 1812.89 c 0
 175.874 1840.65 212.688 1858.22 251 1864 c 0
 280.77 1868.49 312.074 1865.46 339.21 1852.42 c 0
 352.777 1845.9 365.138 1836.98 375.95 1826.51 c 0
 386.763 1816.03 395.969 1804.04 405 1792 c 2
 453 1728 l 2
 462.126 1715.83 471.113 1703.31 482.86 1693.65 c 0
 488.734 1688.82 495.329 1684.79 502.518 1682.31 c 0
 509.705 1679.82 517.47 1678.94 525 1680 c 0
 534.116 1681.29 542.74 1685.46 549.704 1691.48 c 0
 556.669 1697.5 561.993 1705.24 566.053 1713.51 c 0
 574.172 1730.03 578.109 1748.25 583 1766 c 2
 610 1864 l 1
 714 1835 l 1
 688 1738 l 2
 677.173 1697.61 664.363 1656.82 639.542 1623.16 c 0
 614.721 1589.5 578.749 1563.4 538 1554 c 0
 507.969 1547.07 475.504 1549.89 447.87 1563.54 c 0
 434.054 1570.36 421.556 1579.71 410.597 1590.54 c 0
 399.637 1601.38 390.246 1613.67 381 1626 c 2
 333 1690 l 2
 323.138 1703.15 313.323 1716.61 300.554 1726.96 c 0
 294.169 1732.14 287.032 1736.46 279.277 1739.18 c 0
 271.522 1741.9 263.16 1742.98 255 1742 c 0
 240.938 1740.3 228.011 1732.18 219.481 1720.87 c 0
 210.952 1709.56 206.763 1695.66 203 1682 c 2
 176 1584 l 1xf0
  Spiro
    176 1584 v
    72 1612 v
    98 1710 ]
    251 1864 o
    405 1792 [
    453 1728 ]
    525 1680 o
    583 1766 [
    610 1864 v
    714 1835 v
    688 1738 ]
    538 1554 o
    381 1626 [
    333 1690 ]
    255 1742 o
    203 1682 [
    0 0 z
  EndSpiro
EndSplineSet
Refer: 40 73 N 1 0 0 1 0 0 3
Validated: 33
EndChar

StartChar: itilde
Encoding: 297 297 259
Width: 524
VWidth: 0
InSpiro: 1
Flags: W
HStem: -9 21<180 344> 959 20<180 344> 1300 122<77.968 196.438>
VStem: -59 642 180 164<-9 979>
DStem2: -59 1170 45 1142 0.265614 0.964079<0.629602 176.214> 274 1350 202 1248 0.6 -0.8<-54.7381 166.667> 452 1324 557 1296 0.265614 0.964079<-100.37 101.317>
LayerCount: 2
Fore
SplineSet
45 1142 m 1xf0
 -59 1170 l 1
 -33 1268 l 2
 -28.0322 1286.72 -22.7871 1305.48 -14.6758 1323.07 c 0
 -6.56445 1340.66 4.32617 1357.01 17.8418 1370.89 c 0
 44.874 1398.65 81.6885 1416.22 120 1422 c 0
 149.77 1426.49 181.074 1423.46 208.21 1410.42 c 0
 221.777 1403.9 234.138 1394.98 244.95 1384.51 c 0
 255.763 1374.03 264.969 1362.04 274 1350 c 2
 322 1286 l 2
 331.126 1273.83 340.113 1261.31 351.86 1251.65 c 0
 357.734 1246.82 364.329 1242.79 371.518 1240.31 c 0
 378.705 1237.82 386.47 1236.94 394 1238 c 0
 403.116 1239.29 411.74 1243.46 418.704 1249.48 c 0
 425.669 1255.5 430.993 1263.24 435.053 1271.51 c 0
 443.172 1288.03 447.109 1306.25 452 1324 c 2
 479 1422 l 1
 583 1393 l 1
 557 1296 l 2
 546.173 1255.61 533.363 1214.82 508.542 1181.16 c 0
 483.721 1147.5 447.749 1121.4 407 1112 c 0
 376.969 1105.07 344.504 1107.89 316.87 1121.54 c 0
 303.054 1128.36 290.556 1137.71 279.597 1148.54 c 0
 268.637 1159.38 259.246 1171.67 250 1184 c 2
 202 1248 l 2
 192.138 1261.15 182.323 1274.61 169.554 1284.96 c 0
 163.169 1290.14 156.032 1294.46 148.277 1297.18 c 0
 140.522 1299.9 132.16 1300.98 124 1300 c 0
 109.938 1298.3 97.0107 1290.18 88.4814 1278.87 c 0
 79.9521 1267.56 75.7627 1253.66 72 1240 c 2
 45 1142 l 1xf0
  Spiro
    45 1142 v
    -59 1170 v
    -33 1268 ]
    120 1422 o
    274 1350 [
    322 1286 ]
    394 1238 o
    452 1324 [
    479 1422 v
    583 1393 v
    557 1296 ]
    407 1112 o
    250 1184 [
    202 1248 ]
    124 1300 o
    72 1240 [
    0 0 z
  EndSpiro
EndSplineSet
Refer: 140 305 N 1 0 0 1 0 -9 3
Validated: 33
EndChar

StartChar: Imacron
Encoding: 298 298 260
Width: 730
VWidth: 0
Flags: W
HStem: 0 21<320 490> 1401 20<320 490> 1568 129<200 610>
VStem: 200 410<1568 1697> 320 170<0 1421>
LayerCount: 2
Fore
SplineSet
200 1697 m 1xf0
 610 1697 l 1
 610 1568 l 1
 200 1568 l 1
 200 1697 l 1xf0
EndSplineSet
Refer: 40 73 N 1 0 0 1 0 0 3
Validated: 1
EndChar

StartChar: imacron
Encoding: 299 299 261
Width: 524
VWidth: 0
Flags: W
HStem: 0 21<180 344> 968 20<180 344> 1204 129<80 444>
VStem: 80 364<1204 1333> 180 164<0 988>
LayerCount: 2
Fore
SplineSet
80 1333 m 5xf0
 444 1333 l 5
 444 1204 l 5
 80 1204 l 5
 80 1333 l 5xf0
EndSplineSet
Refer: 140 305 N 1 0 0 1 0 0 3
Validated: 1
EndChar

StartChar: Ibreve
Encoding: 300 300 262
Width: 730
VWidth: 0
InSpiro: 1
Flags: W
HStem: 0 21<280 450> 1401 20<280 450> 1568.08 137.43<246.117 477.79>
VStem: 280 170<0 1421>
LayerCount: 2
Fore
SplineSet
590.5 1872.01 m 1
 573.628 1849.25 555.882 1827.12 537 1806 c 0
 511.515 1777.49 483.716 1750.44 450.75 1731.06 c 0
 417.783 1711.69 378.987 1701.13 341 1705.51 c 0
 313.817 1708.65 287.696 1719.15 265.078 1734.55 c 0
 242.46 1749.95 223.204 1769.96 207 1792.01 c 0
 188.573 1817.08 173.89 1844.86 163 1874.01 c 1
 40 1808.01 l 1
 50.3857 1774.73 63.9902 1742.43 81 1712 c 0
 98.7051 1680.33 120.331 1650.61 147 1626 c 0
 175.744 1599.48 210.422 1579.36 247.87 1568.08 c 0
 285.318 1556.8 325.185 1554.22 364 1559.01 c 0
 427.425 1566.84 487.659 1593.94 539 1632 c 0
 566.717 1652.55 592.032 1676.25 615 1702 c 0
 640.606 1730.7 663.351 1761.94 683 1795.01 c 1
 590.5 1872.01 l 1
  Spiro
    590.5 1872.01 v
    537 1806 o
    341 1705.51 o
    207 1792.01 o
    163 1874.01 v
    40 1808.01 v
    81 1712 o
    147 1626 o
    364 1559.01 o
    539 1632 o
    615 1702 o
    683 1795.01 v
    0 0 z
  EndSpiro
EndSplineSet
Refer: 40 73 N 1 0 0 1 -40 0 3
Validated: 41
EndChar

StartChar: ibreve
Encoding: 301 301 263
Width: 524
VWidth: 0
InSpiro: 1
Flags: W
HStem: 0 21<180 344> 968 20<180 344> 1129.07 137.43<170.117 401.79>
VStem: 180 164<0 988>
LayerCount: 2
Fore
SplineSet
514.5 1433 m 1
 497.628 1410.24 479.882 1388.11 461 1366.99 c 0
 435.515 1338.48 407.716 1311.43 374.75 1292.05 c 0
 341.783 1272.68 302.987 1262.12 265 1266.5 c 0
 237.817 1269.64 211.696 1280.14 189.078 1295.54 c 0
 166.46 1310.94 147.204 1330.95 131 1353 c 0
 112.573 1378.07 97.8896 1405.85 87 1435 c 1
 -36 1369 l 1
 -25.6143 1335.72 -12.0098 1303.42 5 1272.99 c 0
 22.7051 1241.32 44.3311 1211.6 71 1186.99 c 0
 99.7441 1160.47 134.422 1140.35 171.87 1129.07 c 0
 209.318 1117.79 249.185 1115.21 288 1120 c 0
 351.425 1127.83 411.659 1154.93 463 1192.99 c 0
 490.717 1213.54 516.032 1237.24 539 1262.99 c 0
 564.606 1291.69 587.351 1322.93 607 1356 c 1
 514.5 1433 l 1
  Spiro
    514.5 1433 v
    461 1366.99 o
    265 1266.5 o
    131 1353 o
    87 1435 v
    -36 1369 v
    5 1272.99 o
    71 1186.99 o
    288 1120 o
    463 1192.99 o
    539 1262.99 o
    607 1356 v
    0 0 z
  EndSpiro
EndSplineSet
Refer: 140 305 N 1 0 0 1 0 0 3
Validated: 41
EndChar

StartChar: lcaron
Encoding: 318 318 276
Width: 805
VWidth: 0
Flags: W
HStem: 0 21.0139<200 364> 1491 20G<583.949 755> 1491.98 20.0132<200 364>
VStem: 200 164<0 1512> 472 165<1121 1286> 590 165<1346 1511>
DStem2: 472 1121 637 1121 0.289599 0.957148<47.7838 407.46>
LayerCount: 2
Fore
SplineSet
590 1511 m 5xd4
 755 1511 l 5xd4
 637 1121 l 5
 472 1121 l 5xd8
 590 1511 l 5xd4
EndSplineSet
Refer: 10 108 N 1 0 0 1.00066 0 0 2
Validated: 1
EndChar

StartChar: Omacron
Encoding: 332 332 285
Width: 1686
VWidth: 0
Flags: W
HStem: -15 149<695.378 1088.21> 1287 149<676.07 1077.27> 1568 129<531.5 1271.5>
VStem: 215 175<465.477 980.057> 1376 175<448.924 965.224>
LayerCount: 2
Fore
SplineSet
531.5 1697 m 5
 1271.5 1697 l 5
 1271.5 1568 l 5
 531.5 1568 l 5
 531.5 1697 l 5
EndSplineSet
Refer: 31 79 N 1 0 0 1 0 0 3
Validated: 1
EndChar

StartChar: omacron
Encoding: 333 333 286
Width: 1211
VWidth: 0
Flags: HW
HStem: -20 140<461.412 767.349> 867 140<447.645 750.28> 1204 129<251 991>
VStem: 130 160<307.781 702.989> 921 160<288.229 680.33>
LayerCount: 2
Fore
SplineSet
251 1333 m 1
 991 1333 l 1
 991 1204 l 1
 251 1204 l 1
 251 1333 l 1
EndSplineSet
Refer: 6 111 N 1 0 0 1 0 0 3
Validated: 1
EndChar

StartChar: racute
Encoding: 341 341 290
Width: 801
VWidth: 0
Flags: W
HStem: 0 21<180 344> 867 140<408.785 738.583> 968 20<180 303.448>
VStem: 180 164<0 798.667>
DStem2: 242 1225 322 1125 0.766548 0.642187<0 487.092>
LayerCount: 2
Fore
SplineSet
606 1549 m 29x90
 242 1225 l 29
 322 1125 l 29
 698 1440 l 29
 606 1549 l 29x90
EndSplineSet
Refer: 20 114 N 1 0 0 1 0 0 3
Validated: 5
EndChar

StartChar: sacute
Encoding: 347 347 296
Width: 1016
VWidth: 0
Flags: W
HStem: -20 129<250.642 661.605> 879 128<387.264 810.305>
VStem: 154 170<651.393 821.563> 717 179<162.699 339.123>
DStem2: 312 1225 392 1125 0.766548 0.642187<0 487.092>
LayerCount: 2
Fore
SplineSet
676 1549 m 29
 312 1225 l 29
 392 1125 l 29
 768 1440 l 29
 676 1549 l 29
EndSplineSet
Refer: 7 115 N 1 0 0 1 0 0 3
Validated: 9
EndChar

StartChar: Scedilla
Encoding: 350 350 299
Width: 1361
VWidth: 0
InSpiro: 1
Flags: W
HStem: -19 167<445.365 904.585> 1274 160<591.234 1091.19>
VStem: 269 185<942.967 1160.98> 661.5 144<-119.706 24.2939> 833.505 112.469<-391 -262.348> 1036 185<254.697 482.74>
DStem2: 527.5 -349.706 497.5 -453.706 0.963095 -0.269163<0 276.761>
LayerCount: 2
Fore
SplineSet
661.5 24.2939 m 1
 805.5 18.2939 l 1
 760.5 -159.706 l 1
 732.5 -125.706 l 1
 782.5 -140.706 l 2
 809.172 -148.708 835.945 -157.258 860.053 -171.193 c 0
 884.162 -185.129 905.393 -204.314 920.5 -227.706 c 0
 934.925 -250.043 943.699 -275.97 945.974 -302.462 c 0
 948.25 -328.954 944.109 -355.913 934.5 -380.706 c 0
 922.182 -412.489 900.905 -440.658 874.087 -461.699 c 0
 847.27 -482.74 815.021 -496.522 781.5 -502.706 c 0
 739.615 -510.433 696.326 -506.433 654.654 -497.627 c 0
 612.982 -488.821 572.33 -475.83 531.5 -463.706 c 0
 520.175 -460.343 508.843 -457.007 497.5 -453.706 c 1
 527.5 -349.706 l 1
 537.485 -352.755 547.486 -355.754 557.5 -358.706 c 0
 588.518 -367.849 619.618 -376.734 650.948 -384.741 c 0
 682.278 -392.749 714.172 -400.482 746.5 -399.706 c 0
 763.348 -399.301 780.374 -396.23 795.381 -388.56 c 0
 810.387 -380.89 823.117 -368.304 829.5 -352.706 c 0
 833.768 -342.276 835.157 -330.692 833.505 -319.544 c 0
 831.854 -308.397 827.203 -297.765 820.5 -288.706 c 0
 810.828 -275.634 797.109 -265.99 782.432 -258.99 c 0
 767.754 -251.991 752.079 -247.368 736.5 -242.706 c 2
 599.5 -201.706 l 1
 661.5 24.2939 l 1
  Spiro
    661.5 24.294 v
    805.5 18.294 v
    760.5 -159.706 v
    732.5 -125.706 v
    782.5 -140.706 ]
    920.5 -227.706 o
    934.5 -380.706 o
    781.5 -502.706 o
    531.5 -463.706 o
    497.5 -453.706 v
    527.5 -349.706 v
    557.5 -358.706 o
    746.5 -399.706 o
    829.5 -352.706 o
    820.5 -288.706 o
    736.5 -242.706 [
    599.5 -201.706 v
    0 0 z
  EndSpiro
EndSplineSet
Refer: 55 83 N 1 0 0 1 0 0 3
Validated: 37
EndChar

StartChar: Tcommaaccent
Encoding: 354 354 301
Width: 1210
VWidth: 0
InSpiro: 1
Flags: HW
HStem: -512 105<448.456 731.191> 1271 150<85 560 730 1205> 1271 122<560 730>
VStem: 560 170<-129.156 1393>
DStem2: 461 -366 434 -471 0.96223 -0.272236<-31.317 242.431>
LayerCount: 2
Fore
SplineSet
730 1393 m 1xb0
 730 160 l 2
 730 117.611 730.07 75.1143 725.357 32.9883 c 0
 720.644 -9.13867 710.08 -50.3682 698 -91 c 2
 676 -165 l 1
 627 -130 l 1
 677 -145 l 2
 705.496 -153.549 734.131 -162.526 760.065 -177.104 c 0
 785.999 -191.682 809.021 -211.904 825 -237 c 0
 838.991 -258.975 847.468 -284.411 849.56 -310.378 c 0
 851.652 -336.345 847.455 -362.726 838 -387 c 0
 824.698 -421.152 801.042 -451.055 771.421 -472.64 c 0
 741.801 -494.225 706.354 -507.342 670 -512 c 0
 630.092 -517.113 589.482 -512.281 550.218 -503.5 c 0
 510.954 -494.718 472.565 -482.467 434 -471 c 0
 422.677 -467.633 411.344 -464.297 400 -461 c 1
 431 -357 l 1
 440.992 -360.027 450.992 -363.027 461 -366 c 0
 490.574 -374.784 520.172 -383.512 550.006 -391.369 c 0
 579.839 -399.227 610.151 -406.629 641 -407 c 0
 659.496 -407.223 678.316 -404.584 695.039 -396.679 c 0
 711.762 -388.774 726.118 -375.169 733 -358 c 0
 737.79 -346.05 738.849 -332.627 735.919 -320.09 c 0
 732.988 -307.554 726.135 -296.072 717 -287 c 0
 705.341 -275.422 690.318 -267.806 674.943 -262.011 c 0
 659.568 -256.217 643.721 -251.779 628 -247 c 2
 503 -209 l 1
 534 -98 l 2
 545.232 -57.7822 554.363 -16.8477 557.568 24.7861 c 0
 560.774 66.4189 560 108.243 560 150 c 2
 560 1393 l 1
 730 1393 l 1xb0
  Spiro
    730 1393 v
    730 160 ]
    698 -91 [
    676 -165 v
    627 -130 v
    677 -145 ]
    825 -237 o
    838 -387 o
    670 -512 o
    434 -471 o
    400 -461 v
    431 -357 v
    461 -366 o
    641 -407 o
    733 -358 o
    717 -287 o
    628 -247 [
    503 -209 v
    534 -98 ]
    560 150 [
    560 1393 v
    0 0 z
  EndSpiro
85 1421 m 1xd0
 1205 1421 l 1
 1205 1271 l 1
 85 1271 l 1
 85 1421 l 1xd0
  Spiro
    85 1421 v
    1205 1421 v
    1205 1271 v
    85 1271 v
    0 0 z
  EndSpiro
EndSplineSet
Validated: 37
EndChar

StartChar: Umacron
Encoding: 362 362 307
Width: 1580
VWidth: 0
Flags: W
HStem: -21 148<626.396 1033.6> 1401 20<290 460 1200 1370> 1568 129<395 1225>
VStem: 290 170<282.326 1421> 1200 170<282.326 1421>
LayerCount: 2
Fore
SplineSet
395 1697 m 5
 1225 1697 l 5
 1225 1568 l 5
 395 1568 l 5
 395 1697 l 5
EndSplineSet
Refer: 51 85 N 1 0 0 1 0 0 3
Validated: 1
EndChar

StartChar: umacron
Encoding: 363 363 308
Width: 1181
VWidth: 0
Flags: W
HStem: 0 21<877.478 1001> 968 20<183.848 348.034 837 1001> 1204 129<293 891>
VStem: 181.953 167.047<209.317 988> 837 164<152 988>
LayerCount: 2
Fore
SplineSet
293 1333 m 5
 891 1333 l 5
 891 1204 l 5
 293 1204 l 5
 293 1333 l 5
EndSplineSet
Refer: 14 117 N 1 0 0 1 0 0 3
Validated: 5
EndChar

StartChar: zacute
Encoding: 378 378 318
Width: 1078
VWidth: 0
Flags: W
HStem: 0 129<363 928> 859 129<150 688>
DStem2: 150 87 363 129 0.573177 0.819431<156.503 940.97> 322 1225 402 1125 0.766548 0.642187<0 487.092>
LayerCount: 2
Fore
SplineSet
686 1549 m 29
 322 1225 l 29
 402 1125 l 29
 778 1440 l 29
 686 1549 l 29
EndSplineSet
Refer: 25 122 N 1 0 0 1 0 0 3
Validated: 9
EndChar

StartChar: zdotaccent
Encoding: 380 380 320
Width: 1078
VWidth: 0
Flags: W
HStem: 0 129<363 928> 859 129<150 688> 1232 189<433 627>
VStem: 433 194<1232 1421>
DStem2: 150 87 363 129 0.573177 0.819431<156.503 940.97>
LayerCount: 2
Fore
SplineSet
150 988 m 25
 903 988 l 17
 903 901 l 1
 363 129 l 9
 928 129 l 25
 928 0 l 25
 150 0 l 17
 150 87 l 1
 688 859 l 9
 150 859 l 25
 150 988 l 25
433 1421 m 1
 627 1421 l 1
 627 1232 l 1
 433 1232 l 1
 433 1421 l 1
  Spiro
    433 1421 v
    627 1421 v
    627 1232 v
    433 1232 v
    0 0 z
  EndSpiro
EndSplineSet
Validated: 1
EndChar

StartChar: eng
Encoding: 331 331 322
Width: 1176
VWidth: 2097
InSpiro: 1
Flags: W
HStem: 0 21G<180 344> 968 20G<180 303.522>
VStem: 180 164<0 835> 832 164<-164.385 777.665>
DStem2: 597 -201 568 -327 0.986046 -0.166475<-78.0897 161.331>
LayerCount: 2
Fore
SplineSet
571 996 m 0
 647.361 1011.73 728.655 1012.78 801.453 984.869 c 0
 874.25 956.957 934.248 898.065 964 826 c 0
 983.25 779.361 990.91 728.705 993.87 678.335 c 0
 996.83 627.964 996 577.457 996 527 c 2
 996 -16 l 2
 996 -49.96 995.82 -84.043 991.07 -117.671 c 0
 986.33 -151.298 976.957 -184.455 961.269 -214.575 c 0
 945.581 -244.694 923.602 -271.573 896.868 -292.516 c 0
 870.135 -313.459 838.841 -328.355 806 -337 c 0
 728.489 -357.404 646.375 -343.78 568 -327 c 0
 543.568 -321.769 519.238 -316.066 495 -310 c 1
 520 -188 l 1
 545.693 -192.178 571.321 -196.738 597 -201 c 0
 635.733 -207.429 675.604 -213.206 714 -205 c 0
 734.432 -200.633 754.068 -192.195 770.811 -179.696 c 0
 787.553 -167.197 801.253 -150.743 810.924 -132.223 c 0
 820.596 -113.703 826.247 -93.2598 829.082 -72.5596 c 0
 831.917 -51.8594 832 -30.8936 832 -10 c 2
 832 595 l 2
 832 623.971 831.791 653.083 827.074 681.667 c 0
 822.358 710.251 813.057 738.249 798 763 c 0
 773.419 803.406 733.36 833.637 688.367 848.212 c 0
 643.373 862.787 594.656 862.752 548 855 c 0
 442.73 837.51 344.884 788.52 255 731 c 1
 218 835 l 1
 324.864 909.298 443.524 969.733 571 996 c 0
  Spiro
    571 996 o
    964 826 o
    996 527 [
    996 -16 ]
    806 -337 o
    568 -327 o
    495 -310 v
    520 -188 v
    597 -201 o
    714 -205 o
    832 -10 [
    832 595 ]
    798 763 o
    548 855 o
    255 731 v
    218 835 v
    0 0 z
  EndSpiro
180 988 m 1
 295 988 l 1
 344 873 l 1
 344 0 l 1
 180 0 l 1
 180 988 l 1
  Spiro
    180 988 v
    295 988 v
    344 873 v
    344 0 v
    180 0 v
    0 0 z
  EndSpiro
EndSplineSet
Validated: 37
EndChar

StartChar: uni0237
Encoding: 567 567 323
Width: 524
VWidth: 2097
Flags: W
HStem: 968 20G<176 340.072>
VStem: 178 166<-312.74 988>
LayerCount: 2
Fore
SplineSet
344 -131 m 6
 344 -239 347 -440 78 -538 c 5
 16 -414 l 5
 195 -330 178 -164 178 -140 c 6
 176 988 l 5
 340 988 l 5
 344 -131 l 6
EndSplineSet
Validated: 33
EndChar

StartChar: Eng
Encoding: 330 330 324
Width: 1648
VWidth: 2097
InSpiro: 1
Flags: W
HStem: 0 21G<290 460> 1403 20G<290 410.44>
VStem: 290 170<0 1136> 1268 170<-166.837 1134.78>
LayerCount: 2
Fore
SplineSet
376 1136 m 1
 324 1270 l 1
 439.003 1326.31 556.079 1378.87 677 1421 c 0
 803.215 1464.98 938.066 1496.99 1070.04 1475.86 c 0
 1136.03 1465.3 1200.13 1440.95 1254.66 1402.31 c 0
 1309.19 1363.68 1353.44 1310.93 1383 1251 c 0
 1408.57 1199.17 1423.26 1142.43 1430.56 1085.1 c 0
 1437.86 1027.77 1438 969.795 1438 912 c 2
 1438 -16 l 2
 1438 -54.2227 1437.6 -92.666 1430.74 -130.268 c 0
 1423.88 -167.871 1410.53 -204.479 1389.73 -236.544 c 0
 1368.92 -268.609 1340.86 -295.863 1308.45 -316.124 c 0
 1276.04 -336.386 1239.52 -349.692 1202 -357 c 0
 1123.57 -372.277 1042.33 -362.778 964 -347 c 0
 939.504 -342.066 915.16 -336.378 891 -330 c 1
 916 -208 l 1
 941.562 -212.921 967.222 -217.369 993 -221 c 0
 1031.76 -226.46 1071.21 -230.271 1110 -225 c 0
 1134.61 -221.655 1158.83 -214.437 1180.53 -202.338 c 0
 1202.22 -190.239 1221.19 -173.233 1235.29 -152.78 c 0
 1249.38 -132.327 1258.44 -108.63 1263.09 -84.2314 c 0
 1267.73 -59.832 1268 -34.8379 1268 -10 c 2
 1268 840 l 2
 1268 900.509 1268.27 961.344 1258.63 1021.08 c 0
 1248.98 1080.81 1228.3 1139.59 1192 1188 c 0
 1155.99 1236.03 1105.17 1272.47 1048.63 1292.65 c 0
 992.096 1312.83 930.792 1317.35 871 1312 c 0
 808.599 1306.42 747.475 1290.69 688 1271 c 0
 580.324 1235.35 476.826 1187.95 376 1136 c 1
  Spiro
    376 1136 v
    324 1270 v
    677 1421 o
    1383 1251 o
    1438 912 [
    1438 -16 ]
    1202 -357 o
    964 -347 o
    891 -330 v
    916 -208 v
    993 -221 o
    1110 -225 o
    1268 -10 [
    1268 840 ]
    1192 1188 o
    871 1312 o
    688 1271 o
    0 0 z
  EndSpiro
290 1423 m 1
 401 1423 l 1
 460 1298 l 1
 460 0 l 1
 290 0 l 1
 290 1423 l 1
  Spiro
    290 1423 v
    401 1423 v
    460 1298 v
    460 0 v
    290 0 v
    0 0 z
  EndSpiro
EndSplineSet
Validated: 37
EndChar

StartChar: Lslash
Encoding: 321 321 325
Width: 1133
VWidth: 2097
Flags: W
HStem: 0 149<357 1098> 472 172<146 318> 804 172<548 720> 1401 20<290 460>
VStem: 290 170<149 1421> 357 103<0 149>
DStem2: 146 644 146 472 0.865633 0.50068<0 576.982>
LayerCount: 2
Fore
SplineSet
146 644 m 1xf0
 720 976 l 1
 720 804 l 1
 146 472 l 1
 146 644 l 1xf0
EndSplineSet
Refer: 33 76 N 1 0 0 1 0 0 2
Validated: 5
EndChar

StartChar: lslash
Encoding: 322 322 326
Width: 687
VWidth: 2097
Flags: W
HStem: 0 21<230 394> 523 149<90 239> 821 150<457 607> 1491 20<230 394>
VStem: 90 517 230 164<0 1511>
DStem2: 90 672 90 523 0.865655 0.50064<0 522.139>
LayerCount: 2
Fore
SplineSet
90 672 m 1xf8
 607 971 l 1
 607 821 l 1
 90 523 l 1
 90 672 l 1xf8
EndSplineSet
Refer: 10 108 N 1 0 0 1 30 0 2
Validated: 5
EndChar

StartChar: kgreenlandic
Encoding: 312 312 327
Width: 1072
VWidth: 0
Flags: W
HStem: 0 21G<180 344 783.569 1002> 968 20G<180 344 761.614 949>
VStem: 180 164<0 988> 779 170<818 988> 801 201<0 201>
LayerCount: 2
Fore
SplineSet
779 988 m 1xf0
 949 988 l 1xf0
 502 476 l 1
 543 531 l 1
 1002 0 l 1
 801 0 l 1xe8
 360 506 l 1
 779 988 l 1xf0
180 988 m 1
 344 988 l 1
 344 0 l 1
 180 0 l 1
 180 988 l 1
EndSplineSet
Validated: 5
EndChar

StartChar: napostrophe
Encoding: 329 329 328
Width: 1351
VWidth: 2097
Flags: W
HStem: 0 21<350 514 1002.97 1167.15> 968 20<350 473.522> 988 21G<140 290> 1402 20G<140 290>
VStem: 140 150<988 1422> 350 164<0 835> 1003 164<0 776.847>
LayerCount: 2
Fore
SplineSet
140 1422 m 1
 290 1422 l 1
 290 988 l 1
 140 988 l 1
 140 1422 l 1
EndSplineSet
Refer: 5 110 N 1 0 0 1 170 0 2
Validated: 5
EndChar

StartChar: ogonek
Encoding: 731 731 329
Width: 1084
VWidth: 0
InSpiro: 1
Flags: W
VStem: 460 144<-383.125 -175.369>
LayerCount: 2
Fore
SplineSet
898 144 m 1
 927 32 l 1
 867.098 10.0339 810.489 -20.9909 760 -60 c 0
 719.471 -91.3138 682.443 -127.572 652.946 -169.442 c 0
 638.197 -190.376 625.408 -212.812 616.395 -236.782 c 0
 607.382 -260.751 602.16 -286.458 604 -312 c 0
 605.931 -338.809 616.54 -365.459 636 -384 c 0
 654.605 -401.726 680.322 -411.004 706 -412 c 0
 738.427 -413.257 770.218 -402.887 800 -390 c 0
 825.463 -378.982 850.048 -366.002 874 -352 c 1
 922 -442 l 1
 891.63 -463.876 859.562 -483.431 826 -500 c 0
 778.964 -523.221 728.371 -541.02 676 -544 c 0
 632.186 -546.493 587.099 -537.442 550 -514 c 0
 518.65 -494.191 493.824 -464.546 478.804 -430.64 c 0
 463.784 -396.735 458.282 -359.044 460 -322 c 0
 463.525 -245.976 495.124 -173.324 537.878 -110.363 c 0
 580.632 -47.4017 635.584 7.09016 698 50.6364 c 0
 758.639 92.9432 826.626 124.695 898 144 c 1
  Spiro
    898 144 v
    927 32 v
    760 -60 o
    604 -312 o
    636 -384 o
    706 -412 o
    800 -390 o
    874 -352 v
    922 -442 v
    826 -500 o
    676 -544 o
    550 -514 o
    460 -322 o
    698 50.6364 o
    0 0 z
  EndSpiro
EndSplineSet
Validated: 33
EndChar

StartChar: Tbar
Encoding: 358 358 333
Width: 1210
VWidth: 2097
Flags: W
HStem: 0 21<560 730> 603 150<254 1087> 1271 122<560 730> 1271 150<85 560 730 1205>
VStem: 560 170<0 1393>
LayerCount: 2
Fore
SplineSet
254 753 m 1xc8
 1087 753 l 1
 1087 603 l 1
 254 603 l 1
 254 753 l 1xc8
EndSplineSet
Refer: 39 84 N 1 0 0 1 0 0 2
Validated: 5
EndChar

StartChar: tbar
Encoding: 359 359 334
Width: 780
VWidth: 2097
Flags: HW
HStem: 479 109<70 668> 859 129<70 668>
VStem: 203 164<155.356 1271>
DStem2: 605 116 632 0 0.986046 0.166475<-161.51 78.0897>
LayerCount: 2
Fore
SplineSet
70 588 m 1
 668 588 l 1
 668 479 l 1
 70 479 l 1
 70 588 l 1
EndSplineSet
Refer: 19 116 N 1 0 0 1 0 0 2
EndChar

StartChar: Hbar
Encoding: 294 294 335
Width: 1600
VWidth: 2097
Flags: W
HStem: 0 21<290 460 1220 1390> 658 150<357 1319> 1133 138<140 1540> 1401 20<290 460 1220 1390>
VStem: 290 170<0 658 808 1421> 357 103<658 808> 1220 99<658 808> 1220 170<0 658 808 1421>
LayerCount: 2
Fore
SplineSet
140 1271 m 5xf0
 1540 1271 l 5
 1540 1133 l 5
 140 1133 l 5
 140 1271 l 5xf0
EndSplineSet
Refer: 29 72 S 1 0 0 1 0 0 2
Validated: 5
EndChar

StartChar: hbar
Encoding: 295 295 336
Width: 1191
VWidth: 2097
Flags: W
HStem: 0 21<190 354 842.966 1007.15> 1142 129<95 677> 1491 20<190 354>
VStem: 190 164<0 1511> 843 164<0 776.847>
LayerCount: 2
Fore
SplineSet
95 1271 m 1
 677 1271 l 1
 677 1142 l 1
 95 1142 l 1
 95 1271 l 1
EndSplineSet
Refer: 3 104 N 1 0 0 1 0 0 2
Validated: 5
EndChar

StartChar: dcroat
Encoding: 273 273 337
Width: 1238
VWidth: 2097
Flags: W
HStem: 0 21<875.304 998> 1142 129<566 1148> 1491 20<834 998>
VStem: 130 160<285.421 718.05> 834 164<142 825 919 1511>
LayerCount: 2
Fore
SplineSet
566 1271 m 1
 1148 1271 l 1
 1148 1142 l 1
 566 1142 l 1
 566 1271 l 1
EndSplineSet
Refer: 1 100 N 1 0 0 1 0 0 2
Validated: 5
EndChar

StartChar: ohungarumlaut
Encoding: 337 337 339
Width: 1211
VWidth: 0
Flags: W
HStem: -20 140<461.412 767.349> 867 140<447.645 750.28>
VStem: 130 160<307.781 702.989> 921 160<288.229 680.33>
DStem2: 266 1225 346 1125 0.766548 0.642187<0 487.092> 705 1225 785 1125 0.766548 0.642187<0 487.092>
LayerCount: 2
Fore
SplineSet
1069 1549 m 29
 705 1225 l 29
 785 1125 l 29
 1161 1440 l 29
 1069 1549 l 29
630 1549 m 29
 266 1225 l 29
 346 1125 l 29
 722 1440 l 29
 630 1549 l 29
EndSplineSet
Refer: 6 111 N 1 0 0 1 0 0 3
Validated: 9
EndChar

StartChar: Aogonek
Encoding: 260 260 340
Width: 1383
VWidth: 0
InSpiro: 1
Flags: W
HStem: 0 21G<130 293.956> 413 149<482.461 965.139> 1401 20G<627.892 835.108>
VStem: 130 157<0 157> 785 143<-379.094 -185.15>
DStem2: 130 0 287 0 0.334866 0.942266<52.5739 489.83 647.581 1381.49>
LayerCount: 2
Fore
SplineSet
723.554 1255.2 m 1
 482.461 562 l 1
 965.139 562 l 1
 723.554 1255.2 l 1
  Spiro
    723.554 1255.2 v
    482.461 562 v
    965.139 562 v
    0 0 z
  EndSpiro
635 1421 m 1
 828 1421 l 1
 1333 0 l 1
 1319 0 l 2
 1285.48 0 1251.76 -0.666992 1218.85 -7.05371 c 0
 1185.94 -13.4404 1154.13 -25.2783 1124.9 -41.708 c 0
 1066.46 -74.5654 1017.33 -122.703 978 -177 c 0
 964.044 -196.264 951.531 -216.695 942.341 -238.636 c 0
 933.15 -260.576 927.363 -284.221 928 -308 c 0
 928.705 -334.323 938.006 -360.774 956 -380 c 0
 970.505 -395.498 990.19 -405.835 1011 -410 c 0
 1028.45 -413.491 1046.56 -412.857 1064.06 -409.636 c 0
 1081.56 -406.415 1098.52 -400.716 1115 -394 c 0
 1143.74 -382.287 1171.27 -367.764 1198 -352 c 1
 1246 -442 l 1
 1218.64 -461.684 1189.93 -479.502 1160 -495 c 0
 1103.6 -524.204 1041.48 -546.07 978 -544 c 0
 929.378 -542.414 880.665 -525.085 845 -492 c 0
 820.548 -469.317 802.613 -439.872 792.752 -408.01 c 0
 782.892 -376.148 780.92 -342.102 785 -309 c 0
 791.475 -256.465 812.576 -206.498 840.509 -161.535 c 0
 868.442 -116.573 903.216 -76.0234 942 -40 c 0
 1017.7 30.3135 1112.21 84.5576 1215 95 c 0
 1235.92 97.125 1257.02 97.4668 1278 96 c 1
 1151 28 l 1
 1017.07 413 l 1
 430.639 413 l 1
 287 0 l 1
 130 0 l 1
 635 1421 l 1
  Spiro
    635 1421 v
    828 1421 v
    1333 0 v
    1319 0 ]
    978 -177 o
    928 -308 o
    956 -380 o
    1011 -410 o
    1115 -394 o
    1198 -352 v
    1246 -442 v
    1160 -495 o
    978 -544 o
    845 -492 o
    785 -309 o
    942 -40 o
    1215 95 o
    1278 96 v
    1151 28 v
    1017.07 413 v
    430.639 413 v
    287 0 v
    130 0 v
    0 0 z
  EndSpiro
EndSplineSet
Validated: 37
EndChar

StartChar: aogonek
Encoding: 261 261 341
Width: 1069
VWidth: 0
InSpiro: 1
Flags: W
HStem: -543 121<595.894 792.786> 438 123<365.959 752> 859.25 135.253<231.784 648.656>
DStem2: 300 969 217 814 0.96588 0.25899<-119.175 203.014>
LayerCount: 2
Fore
SplineSet
753 561 m 1
 752 438 l 1
 671.314 436.014 590.44 437.603 510 431 c 0
 476.454 428.246 442.869 423.5 410.84 413.152 c 0
 378.812 402.803 348.148 386.436 325 362 c 0
 299.058 334.615 283.549 296.564 287 259 c 0
 289.028 236.928 297.417 215.628 310.009 197.387 c 0
 322.601 179.147 339.308 163.913 358 152 c 0
 394.387 128.809 437.868 118.187 481 117 c 0
 541.475 115.335 601.768 131.188 656 158 c 0
 722.362 190.81 780.082 240.681 823 301 c 1
 870 199 l 1
 807.986 134.21 736.057 78.4268 656 38 c 0
 581.266 0.261719 497.423 -23.0693 414 -16 c 0
 359.611 -11.3906 306.341 6.15625 260 35 c 0
 222.08 58.6025 188.625 89.7832 164.24 127.205 c 0
 139.855 164.627 124.741 208.368 123 253 c 0
 120.103 327.274 155.299 400.783 211 450 c 0
 259.872 493.183 322.4 518.34 385.96 532.953 c 0
 449.519 547.565 514.868 552.673 580 556 c 0
 637.619 558.943 695.31 560.33 753 561 c 1
  Spiro
    753 561 v
    752 438 v
    510 431 o
    325 362 c
    287 259 c
    358 152 c
    481 117 o
    656 158 o
    823 301 v
    870 199 v
    656 38 o
    414 -16 o
    260 35 c
    123 253 c
    211 450 c
    580 556 o
    0 0 z
  EndSpiro
186 934 m 1
 223.231 947.999 261.326 959.701 300 969 c 0
 366.927 985.093 435.629 994.255 504.464 994.503 c 0
 573.298 994.751 642.981 986.295 707 961 c 0
 766.521 937.482 820.521 896.723 852 841 c 0
 868.641 811.542 878.883 778.713 883.981 745.266 c 0
 889.079 711.818 889.146 677.833 889 644 c 2
 886 -45 l 1
 828.055 -74.8096 769.47 -103.483 713 -136 c 0
 675.604 -157.534 638.868 -181.39 609.715 -213.205 c 0
 595.139 -229.113 582.612 -247.063 574.097 -266.887 c 0
 565.581 -286.712 561.169 -308.502 563 -330 c 0
 565.126 -354.961 576.31 -379.319 595 -396 c 0
 613.959 -412.921 639.6 -421.215 665 -422 c 0
 697.646 -423.009 729.702 -413.202 760 -401 c 0
 785.046 -390.913 809.334 -378.999 833 -366 c 1
 881 -449 l 1
 850.383 -469.032 818.319 -486.882 785 -502 c 0
 736.63 -523.948 685.062 -540.619 632 -543 c 0
 589.396 -544.911 545.733 -536.665 509 -515 c 0
 479.392 -497.538 454.867 -471.546 439.301 -440.898 c 0
 423.736 -410.25 417.136 -375.323 419 -341 c 0
 422.519 -276.216 455.421 -215.706 499.38 -167.989 c 0
 543.34 -120.272 597.742 -83.3164 654 -51 c 0
 707.16 -20.4629 762.507 6.18848 819 30 c 1
 795 -53 l 1
 724 115 l 1
 724 601 l 2
 724 641.242 725.743 682.219 715 721 c 0
 709.274 741.67 699.762 761.326 686.704 778.342 c 0
 673.646 795.358 657.219 809.683 639 821 c 0
 593.693 849.143 539.007 858.774 485.673 859.25 c 0
 432.339 859.725 379.254 851.688 327 841 c 0
 290.002 833.433 253.321 824.34 217 814 c 1
 186 934 l 1
  Spiro
    186 934 v
    300 969 o
    707 961 o
    852 841 o
    889 644 [
    886 -45 v
    713 -136 o
    563 -330 o
    595 -396 o
    665 -422 o
    760 -401 o
    833 -366 v
    881 -449 v
    785 -502 o
    632 -543 o
    509 -515 o
    419 -341 o
    654 -51 o
    819 30 v
    795 -53 v
    724 115 v
    724 601 ]
    715 721 o
    639 821 o
    327 841 o
    217 814 v
    0 0 z
  EndSpiro
EndSplineSet
Validated: 37
EndChar

StartChar: Eogonek
Encoding: 280 280 342
Width: 1283
VWidth: 0
InSpiro: 1
Flags: W
HStem: -543 133<821.361 1025.81> 0 21G<290 1043.07> 657 150<460 1068> 1271 150<460 1123>
VStem: 290 170<150 657 807 1271> 659 144<-392.979 -189.883>
LayerCount: 2
Fore
SplineSet
290 0 m 1
 290 1421 l 1
 1123 1421 l 1
 1123 1271 l 1
 460 1271 l 1
 460 807 l 1
 1068 807 l 1
 1068 657 l 1
 460 657 l 1
 460 150 l 1
 1123 150 l 1
 1122 28 l 1
 1064.05 -14.2041 1004.41 -54.0732 947 -97 c 0
 907.752 -126.344 869.353 -158.03 841 -198 c 0
 817.778 -230.737 801.35 -269.897 803 -310 c 0
 803.591 -324.348 806.602 -338.653 812.45 -351.768 c 0
 818.298 -364.884 827.029 -376.735 838 -386 c 0
 857.233 -402.243 882.827 -409.746 908 -410 c 0
 931.846 -410.24 955.445 -404.744 978 -397 c 0
 1011.34 -385.552 1042.97 -369.464 1073 -351 c 1
 1121 -441 l 1
 1094.12 -460.861 1065.7 -478.669 1036 -494 c 0
 981.972 -521.888 922.799 -542.513 862 -543 c 0
 818.568 -543.348 774.422 -532.134 739 -507 c 0
 712.691 -488.333 691.718 -462.401 678.309 -433.061 c 0
 664.899 -403.722 658.887 -371.258 659 -339 c 0
 659.22 -276.167 681.654 -214.616 716 -162 c 0
 755.831 -100.982 813.545 -54.1281 873 -12 c 2
 1048 112 l 1
 1042 0 l 1
 290 0 l 1
  Spiro
    290 0 v
    290 1421 v
    1123 1421 v
    1123 1271 v
    460 1271 v
    460 807 v
    1068 807 v
    1068 657 v
    460 657 v
    460 150 v
    1123 150 v
    1122 28 v
    947 -97 o
    841 -198 o
    803 -310 o
    838 -386 o
    908 -410 o
    978 -397 o
    1073 -351 v
    1121 -441 v
    1036 -494 o
    862 -543 o
    739 -507 o
    659 -339 o
    716 -162 o
    873 -12 [
    1048 112 v
    1042 0 v
    0 0 z
  EndSpiro
EndSplineSet
Validated: 37
EndChar

StartChar: eogonek
Encoding: 281 281 343
Width: 1102
VWidth: 0
InSpiro: 1
Flags: W
HStem: -544 121<610.865 823.807> -23 131<467.764 681.445> 32 112<819.139 892.712> 407 124<297 813>
VStem: 130 163<266.596 407 531 704.343> 450 144<-406.264 -187.608> 813 159<531 754.805>
LayerCount: 2
Fore
SplineSet
591 854 m 0x9e
 536.131 857.896 479.497 846.391 433 817 c 0
 394.036 792.371 363.47 755.79 342 715 c 0
 312.326 658.624 297.954 594.702 297 531 c 1
 813 531 l 1
 814.153 572.835 811.722 614.868 804 656 c 0
 795.98 698.721 781.161 741.062 754 775 c 0
 734.578 799.267 709.219 818.614 681.01 831.667 c 0
 652.802 844.721 622.004 851.798 591 854 c 0x9e
  Spiro
    591 854 o
    433 817 o
    342 715 o
    297 531 v
    813 531 v
    804 656 o
    754 775 o
    0 0 z
  EndSpiro
598 997 m 0
 646.996 997.774 696.351 991.214 742.562 974.913 c 0
 788.775 958.612 831.532 932.086 865.463 896.732 c 0
 918.365 841.613 947.337 767.175 960.409 691.903 c 0
 971.16 629.992 972 566.838 972 504 c 2
 972 407 l 1
 293 407 l 1
 294.856 341.71 321.263 277.709 364.773 228.994 c 0
 402.878 186.331 452.944 155.253 506.602 135.43 c 0
 555.882 117.224 608.466 108.423 661 108 c 0xde
 686.662 107.794 712.319 109.486 737.812 112.436 c 0
 763.445 115.402 788.931 119.616 814.188 124.905 c 0
 839.386 130.182 864.354 136.557 889 144 c 1
 918 32 l 1xbe
 851.403 9.46289 789.25 -26.0918 736 -72 c 0
 697.789 -104.943 663.674 -142.901 636.806 -185.603 c 0
 623.372 -206.953 611.815 -229.591 603.845 -253.524 c 0
 595.876 -277.458 591.503 -302.898 594 -328 c 0
 595.529 -343.364 599.727 -358.544 607.114 -372.102 c 0
 614.501 -385.66 625.131 -397.47 638 -406 c 0
 654.467 -416.915 674.259 -422.229 694 -423 c 0
 726.971 -424.288 759.364 -414.256 790 -402 c 0
 815.347 -391.86 839.96 -379.938 864 -367 c 1
 912 -450 l 1
 888.276 -465.88 863.558 -480.281 838 -493 c 0
 777.872 -522.924 712.153 -545.141 645 -544 c 0
 604.455 -543.311 563.486 -532.872 530 -510 c 0
 503.834 -492.128 482.794 -466.974 469.345 -438.282 c 0
 455.895 -409.591 449.894 -377.688 450 -346 c 0
 450.157 -299.092 463.195 -252.835 483.076 -210.349 c 0
 502.957 -167.863 529.671 -128.784 560 -93 c 0
 618.141 -24.4033 689.279 32.7744 767 78 c 1
 866 20 l 1
 815.015 2.44824 762.203 -9.76562 708.708 -16.5312 c 0
 673.33 -21.0059 637.659 -23.1514 602 -23 c 0xde
 517.429 -22.6396 431.555 -9.72168 355.395 27.0469 c 0
 286.483 60.3164 227.638 114.415 190.032 181.059 c 0
 145.526 259.931 130.263 352.438 130 443 c 0
 129.664 558.942 150.972 677.486 209.632 777.494 c 0
 252.697 850.914 317.286 911.662 393.764 949.029 c 0
 457.095 979.973 527.521 995.887 598 997 c 0
  Spiro
    598 997 o
    865.463 896.732 o
    960.409 691.903 o
    972 504 [
    972 407 v
    293 407 v
    364.773 228.994 o
    506.602 135.43 o
    661 108 o
    737.812 112.436 o
    814.187 124.905 o
    889 144 v
    918 32 v
    736 -72 o
    594 -328 o
    638 -406 o
    694 -423 o
    790 -402 o
    864 -367 v
    912 -450 v
    838 -493 o
    645 -544 o
    530 -510 o
    450 -346 o
    560 -93 o
    767 78 v
    866 20 v
    708.708 -16.5313 o
    602 -23 o
    355.395 27.0471 o
    190.032 181.059 o
    130 443 o
    209.632 777.494 o
    393.764 949.029 o
    0 0 z
  EndSpiro
EndSplineSet
Validated: 37
EndChar

StartChar: Iogonek
Encoding: 302 302 344
Width: 730
VWidth: 0
InSpiro: 1
Flags: W
HStem: -544 132<193.726 397.611> 1401 20G<320 490>
VStem: 30 145<-393.28 -185.229> 320 170<5.30837 1421>
LayerCount: 2
Fore
SplineSet
320 1421 m 1
 490 1421 l 1
 490 30 l 1
 404.634 -16.5664 321.704 -70.2441 255 -141 c 0
 233.866 -163.418 214.673 -187.873 200.017 -214.973 c 0
 185.361 -242.073 175.194 -272.192 175 -303 c 0
 174.907 -317.698 177.167 -332.468 182.299 -346.241 c 0
 187.432 -360.014 195.487 -372.728 206 -383 c 0
 224.945 -401.51 251.528 -411.124 278 -412 c 0
 309.362 -413.038 340.131 -403.298 369 -391 c 0
 395.214 -379.833 420.462 -366.483 445 -352 c 1
 493 -442 l 1
 467.52 -460.472 440.803 -477.254 413 -492 c 0
 358.753 -520.771 299.392 -542.754 238 -544 c 0
 190.699 -544.96 142.398 -531.979 105 -503 c 0
 80.5156 -484.028 61.1113 -458.698 48.5566 -430.382 c 0
 36.002 -402.066 30.1738 -370.974 30 -340 c 0
 29.6924 -285.228 46.4736 -231.25 72.3242 -182.961 c 0
 98.1748 -134.673 133.114 -91.5391 173 -54 c 0
 240.008 9.06543 321.092 56.7637 408 87 c 1
 320 2 l 1
 320 1421 l 1
  Spiro
    320 1421 v
    490 1421 v
    490 30 v
    255 -141 o
    175 -303 o
    206 -383 o
    278 -412 o
    369 -391 o
    445 -352 v
    493 -442 v
    413 -492 o
    238 -544 o
    105 -503 o
    30 -340 o
    173 -54 o
    408 87 v
    320 2 v
    0 0 z
  EndSpiro
EndSplineSet
Validated: 37
EndChar

StartChar: iogonek
Encoding: 303 303 345
Width: 524
VWidth: 0
InSpiro: 1
Flags: HW
HStem: 968 20G<180 344> 1232 189<165 359>
VStem: -123 144<-394.133 -184.228> 165 194<1232 1421> 180 164<19.9093 22 124 988>
LayerCount: 2
Fore
SplineSet
165 1421 m 1xf0
 359 1421 l 1
 359 1232 l 1
 165 1232 l 1
 165 1421 l 1xf0
  Spiro
    165 1421 v
    359 1421 v
    359 1232 v
    165 1232 v
    0 0 z
  EndSpiro
180 988 m 1xe8
 344 988 l 1
 344 22 l 1
 282.492 0.00292969 224.432 -31.7285 173 -72 c 0
 133.063 -103.27 96.6924 -139.506 67.9229 -181.281 c 0
 53.5381 -202.168 41.1309 -224.534 32.4795 -248.374 c 0
 23.8271 -272.213 18.9473 -297.722 21 -323 c 0
 23.1875 -349.939 34.168 -376.637 54 -395 c 0
 72.5166 -412.145 97.7822 -421.065 123 -422 c 0
 155.422 -423.203 187.17 -412.759 217 -400 c 0
 242.368 -389.15 266.941 -376.505 291 -363 c 1
 339 -451 l 1
 306.961 -474.688 272.863 -495.639 237 -513 c 0
 192.971 -534.314 145.791 -550.497 97 -554 c 0
 51.1084 -557.295 3.58398 -548.064 -35 -523 c 0
 -65.8076 -502.988 -90.0879 -473.4 -104.747 -439.714 c 0
 -119.406 -406.028 -124.731 -368.696 -123 -332 c 0
 -119.469 -257.124 -88.7842 -185.482 -47.1582 -123.143 c 0
 -5.53223 -60.8027 48.0332 -6.61133 109 37 c 0
 161.212 74.3486 219.068 103.793 280 124 c 1
 180 19 l 1
 180 988 l 1xe8
  Spiro
    180 988 v
    344 988 v
    344 22 v
    173 -72 o
    21 -323 o
    54 -395 o
    123 -422 o
    217 -400 o
    291 -363 v
    339 -451 v
    237 -513 o
    97 -554 o
    -35 -523 o
    -123 -332 o
    109 37 o
    280 124 v
    180 19 v
    0 0 z
  EndSpiro
EndSplineSet
Validated: 37
EndChar

